<svg width="1440" height="1024" viewBox="0 0 1440 1024" fill="none" xmlns="http://www.w3.org/2000/svg">
<rect width="1440" height="1024" fill="#E5E5E5"/>
<rect width="1440" height="1024" fill="white"/>
<ellipse cx="939.5" cy="298" rx="59.5" ry="59" fill="#074AF5" fill-opacity="0.12"/>
<path d="M1054 696.5C1066.33 665.667 1134 609.9 1306 633.5C1327 693.5 1353.4 808.7 1291 789.5C1213 765.5 1180 969 1054 696.5Z" fill="#FEECFA"/>
<path d="M326.45 875.646C294.752 885.548 208.784 868.279 118.496 719.992C151.769 665.826 224.44 572.622 248.946 633.136C279.578 708.778 458.228 605.893 326.45 875.646Z" fill="#FCFCDB"/>
<path d="M163.5 233C152.5 212.5 34 196 225 99.5C288 99.5 389.1 116.2 289.5 183C304.333 204.667 299.9 245 163.5 233Z" fill="#E9FFFB"/>
</svg>
