<svg width="1440" height="2188" viewBox="0 0 1440 2188" fill="none" xmlns="http://www.w3.org/2000/svg">
<g clip-path="url(#clip0)">
<rect width="1440" height="2188" fill="white"/>
<ellipse cx="719.5" cy="269" rx="59.5" ry="59" fill="#074AF5" fill-opacity="0.12"/>
<ellipse cx="582.5" cy="1310" rx="59.5" ry="59" fill="#FEECFA"/>
<path d="M1054 696.5C1066.33 665.667 1134 609.9 1306 633.5C1327 693.5 1353.4 808.7 1291 789.5C1213 765.5 1180 969 1054 696.5Z" fill="#FEECFA"/>
<path d="M1312.06 1770.76C1279.41 1776.82 1196.11 1749.46 1124.08 1591.5C1163.55 1541.67 1246.78 1457.76 1263.92 1520.76C1285.35 1599.5 1474.96 1518.57 1312.06 1770.76Z" fill="#C5D99A" fill-opacity="0.24"/>
<path d="M326.45 875.646C294.752 885.548 208.784 868.279 118.496 719.992C151.769 665.826 224.44 572.622 248.946 633.136C279.578 708.778 458.228 605.893 326.45 875.646Z" fill="#FCFCDB"/>
<path d="M422.697 1611.42C442.019 1638.42 452.513 1725.48 339.919 1857.63C278.062 1842.97 166.802 1803.11 216.61 1760.9C278.871 1708.14 125.257 1570.65 422.697 1611.42Z" fill="#074AF5" fill-opacity="0.08"/>
<path d="M997 211C864.5 221.5 796.5 116 935 -12.5H1464.5V393C1394.83 426.167 1246 456.1 1208 310.5C1181.83 273.833 1103 202.6 997 211Z" fill="#FFF7FA"/>
<path d="M1045.74 1953.84C1301.68 1727.91 1600.56 1834.2 1510.6 2305.9L424.444 3124.69L-188.201 2312C-95.4044 2137.8 164.67 1847.66 462.596 2080.71C571.669 2113.73 841 2134.59 1045.74 1953.84Z" fill="#FFF7FA"/>
<path d="M163.5 233C152.5 212.5 34 196 225 99.5C288 99.5 389.1 116.2 289.5 183C304.333 204.667 299.9 245 163.5 233Z" fill="#E9FFFB"/>
<path d="M1109.67 1170.56C1109.71 1193.83 1206.46 1264.22 992.519 1259.33C936.952 1229.64 855.651 1167.27 974.978 1155.29C972.105 1129.19 995.022 1095.7 1109.67 1170.56Z" fill="#E9FFFB"/>
</g>
<defs>
<clipPath id="clip0">
<rect width="1440" height="2188" fill="white"/>
</clipPath>
</defs>
</svg>
