<svg width="2556" height="1109" viewBox="0 0 2556 1109" fill="none" xmlns="http://www.w3.org/2000/svg">
<g clip-path="url(#clip0)">
<rect width="2556" height="1109" fill="white"/>
<g clip-path="url(#clip1)">
<path d="M449.538 745.449C524.227 745.449 584.774 691.122 584.774 624.106C584.774 557.09 524.227 502.763 449.538 502.763C374.85 502.763 314.302 557.09 314.302 624.106C314.302 691.122 374.85 745.449 449.538 745.449Z" fill="#FFBA55"/>
<path d="M413 801.3L446.266 819.796V694.768L408.979 674.036C405.896 672.322 403.644 669.632 402.668 666.498V666.498C406.23 665.887 409.918 666.499 413 668.213L446.267 686.71V638.228C446.267 628.849 447.549 619.505 450.084 610.406C452.619 619.505 453.901 628.849 453.901 638.228V717.359L502.978 690.072C506.897 687.893 511.431 686.771 516.04 686.839C514.056 690.573 510.918 693.716 506.999 695.895L453.901 725.418V1021.1H446.266V827.855L408.979 807.122C405.896 805.408 403.644 802.718 402.668 799.584V799.584C406.23 798.973 409.918 799.586 413 801.3Z" fill="#9A490F"/>
<path d="M249.236 755.752C323.925 755.752 384.472 701.425 384.472 634.409C384.472 567.393 323.925 513.065 249.236 513.065C174.547 513.065 114 567.393 114 634.409C114 701.425 174.547 755.752 249.236 755.752Z" fill="#FFBA55"/>
<path d="M285.774 811.602L252.508 830.099V705.071L289.795 684.339C292.878 682.625 295.131 679.934 296.107 676.8V676.8C292.545 676.19 288.857 676.802 285.774 678.516L252.508 697.012V648.53C252.508 639.151 251.226 629.808 248.691 620.709C246.155 629.808 244.873 639.151 244.873 648.53V727.662L195.797 700.375C191.878 698.196 187.344 697.074 182.734 697.141C184.718 700.875 187.857 704.019 191.775 706.198L244.874 735.721V1021.75H252.508V838.157L289.795 817.425C292.878 815.711 295.131 813.02 296.107 809.887V809.887C292.545 809.276 288.857 809.888 285.774 811.602V811.602Z" fill="#9A490F"/>
<path d="M347.473 590.043C476.068 590.043 580.315 496.506 580.315 381.121C580.315 265.736 476.068 172.198 347.473 172.198C218.878 172.198 114.631 265.736 114.631 381.121C114.631 496.506 218.878 590.043 347.473 590.043Z" fill="#FFBA55"/>
<path d="M410.383 686.203L353.107 718.049V502.783L417.306 467.088C422.614 464.137 426.492 459.504 428.173 454.108L428.173 454.108H428.173C422.04 453.057 415.69 454.111 410.383 457.062L353.107 488.908V405.435C353.107 389.286 350.9 373.199 346.535 357.533C342.17 373.199 339.962 389.286 339.963 405.435V541.679L255.464 494.698C248.717 490.946 240.911 489.014 232.974 489.13C236.39 495.559 241.794 500.971 248.541 504.723L339.962 555.554V1022.21H353.107V731.924L417.306 696.229C422.614 693.278 426.492 688.645 428.173 683.249L428.173 683.249H428.173C422.04 682.198 415.69 683.252 410.383 686.203V686.203Z" fill="#9A490F"/>
<path d="M1306 1021.1H206.865V1023.6H1306V1021.1Z" fill="#3F3D56"/>
<path d="M1022.93 549.127L968.378 577.387L999.874 626.335L1054.43 598.075L1022.93 549.127Z" fill="#FF6584"/>
<path d="M1023.62 636.537L990.735 585.426L1047.7 555.918L1080.58 607.029L1023.62 636.537ZM994.537 586.34L1024.64 633.126L1076.78 606.115L1046.68 559.329L994.537 586.34Z" fill="#2F2E41"/>
<path d="M972.589 773.88C987.189 773.88 999.024 763.26 999.024 750.16C999.024 737.06 987.189 726.441 972.589 726.441C957.99 726.441 946.155 737.06 946.155 750.16C946.155 763.26 957.99 773.88 972.589 773.88Z" fill="#D0CDE1"/>
<path d="M992.068 775.128C986.564 775.128 981.184 773.664 976.608 770.92C972.032 768.177 968.466 764.277 966.36 759.715C964.254 755.153 963.703 750.133 964.776 745.289C965.85 740.446 968.5 735.997 972.392 732.505C976.283 729.014 981.241 726.636 986.639 725.672C992.037 724.709 997.632 725.203 1002.72 727.093C1007.8 728.983 1012.15 732.183 1015.2 736.289C1018.26 740.395 1019.89 745.222 1019.89 750.16C1019.89 756.782 1016.96 763.133 1011.74 767.815C1006.53 772.497 999.448 775.128 992.068 775.128V775.128ZM992.068 727.689C987.115 727.689 982.273 729.007 978.154 731.476C974.036 733.946 970.826 737.455 968.931 741.561C967.035 745.667 966.539 750.185 967.505 754.544C968.472 758.903 970.857 762.907 974.359 766.05C977.862 769.192 982.324 771.332 987.182 772.199C992.04 773.066 997.076 772.621 1001.65 770.921C1006.23 769.22 1010.14 766.34 1012.89 762.644C1015.64 758.949 1017.11 754.605 1017.11 750.16C1017.11 744.201 1014.47 738.485 1009.78 734.271C1005.08 730.057 998.71 727.689 992.068 727.689V727.689Z" fill="#2F2E41"/>
<path d="M1139.35 1026.78H883.353C880.218 1026.77 877.212 1025.65 874.995 1023.67C872.778 1021.68 871.531 1018.98 871.527 1016.17V802.693C871.531 799.879 872.778 797.182 874.995 795.193C877.212 793.204 880.218 792.085 883.353 792.081H1139.35C1142.49 792.085 1145.5 793.204 1147.71 795.193C1149.93 797.182 1151.18 799.879 1151.18 802.693V1016.17C1151.18 1018.98 1149.93 1021.68 1147.71 1023.67C1145.5 1025.65 1142.49 1026.77 1139.35 1026.78V1026.78Z" fill="#FFA563"/>
<path d="M1029.44 1034.27H993.265C990.129 1034.27 987.124 1033.15 984.907 1031.16C982.69 1029.17 981.442 1026.47 981.439 1023.66V796.351C981.442 793.537 982.69 790.84 984.907 788.851C987.124 786.862 990.129 785.743 993.265 785.739H1029.44C1032.57 785.743 1035.58 786.862 1037.8 788.851C1040.01 790.84 1041.26 793.537 1041.27 796.351V1023.66C1041.26 1026.47 1040.01 1029.17 1037.8 1031.16C1035.58 1033.15 1032.57 1034.27 1029.44 1034.27V1034.27Z" fill="#3F3D56"/>
<path d="M1207.37 770.95C1205.88 792.972 1172.72 809.077 1172.72 809.077C1172.72 809.077 1141.99 789.479 1143.49 767.457C1144.98 745.435 1178.14 729.329 1178.14 729.329C1178.14 729.329 1208.87 748.928 1207.37 770.95Z" fill="#3F3D56"/>
<path d="M1208.87 839.66C1184.32 838.386 1166.27 808.689 1166.27 808.689C1166.27 808.689 1188.02 781.056 1212.57 782.33C1237.11 783.603 1255.17 813.3 1255.17 813.3C1255.17 813.3 1233.42 840.933 1208.87 839.66Z" fill="#3F3D56"/>
<path opacity="0.1" d="M1150.48 818.198V899.692L1060.15 792.706H1128.96L1150.48 818.198Z" fill="black"/>
<path d="M1227.18 957.698C1225.35 957.701 1223.54 957.324 1221.91 956.595C1220.27 955.867 1218.84 954.807 1217.74 953.499L1029.53 730.612C1028.59 729.501 1027.91 728.236 1027.51 726.887C1027.12 725.539 1027.03 724.135 1027.24 722.754C1027.45 721.374 1027.96 720.045 1028.75 718.842C1029.53 717.64 1030.57 716.587 1031.81 715.746L1059.54 696.898C1060.77 696.057 1062.19 695.442 1063.69 695.09C1065.19 694.737 1066.76 694.654 1068.29 694.844C1069.83 695.035 1071.31 695.495 1072.65 696.199C1073.99 696.904 1075.17 697.838 1076.1 698.949L1264.31 921.835C1265.25 922.946 1265.94 924.211 1266.33 925.56C1266.72 926.908 1266.81 928.312 1266.6 929.693C1266.39 931.073 1265.88 932.402 1265.09 933.605C1264.31 934.807 1263.27 935.86 1262.03 936.701L1234.3 955.549C1232.25 956.946 1229.75 957.701 1227.18 957.698V957.698Z" fill="#FFA563"/>
<path d="M1151.84 784.505L1104.16 816.923L1140.29 859.71L1187.97 827.292L1151.84 784.505Z" fill="#3F3D56"/>
<path d="M906.541 621.458L890.238 676.052L951.083 690.68L967.386 636.087L906.541 621.458Z" fill="#D0CDE1"/>
<path d="M925.272 698.842L861.74 683.568L878.763 626.562L942.295 641.836L925.272 698.842ZM865.148 681.803L923.304 695.785L938.887 643.601L880.731 629.619L865.148 681.803Z" fill="#2F2E41"/>
<path d="M657.653 831.344C659.325 829.907 660.626 828.158 661.463 826.221C662.3 824.285 662.654 822.207 662.499 820.134C662.345 818.061 661.686 816.044 660.568 814.225C659.451 812.406 657.903 810.828 656.032 809.604L630.482 624.805L597.472 633.612L633.11 813.453C631.026 816.408 630.222 819.947 630.852 823.399C631.481 826.85 633.5 829.974 636.525 832.18C639.55 834.385 643.372 835.518 647.266 835.364C651.16 835.21 654.856 833.779 657.653 831.344Z" fill="#FFB8B8"/>
<path d="M688.252 1007.98H707.56L716.749 941.157H688.252V1007.98Z" fill="#FFB8B8"/>
<path d="M744.795 1024.06H684.116V1003.03H723.496C729.145 1003.03 734.562 1005.04 738.557 1008.63C742.551 1012.21 744.795 1017.07 744.795 1022.14V1024.06V1024.06Z" fill="#2F2E41"/>
<path d="M554.738 980.994L572.835 987.034L607.409 927.28L580.701 918.365L554.738 980.994Z" fill="#FFB8B8"/>
<path d="M601.483 1013.76L544.611 994.777L552.784 975.061L589.693 987.379C594.988 989.146 599.283 992.728 601.635 997.337C603.986 1001.95 604.2 1007.2 602.231 1011.95L601.483 1013.76L601.483 1013.76Z" fill="#2F2E41"/>
<path d="M653.617 576.832C673.779 576.832 690.124 562.167 690.124 544.076C690.124 525.986 673.779 511.32 653.617 511.32C633.455 511.32 617.111 525.986 617.111 544.076C617.111 562.167 633.455 576.832 653.617 576.832Z" fill="#FFB8B8"/>
<path d="M596.517 628.145C595.374 597.974 630.714 577.043 660.448 591.17C664.236 592.969 703.352 622.788 704.826 641.306C706.301 659.824 709.249 690.246 709.249 690.246L750.525 966.691L662.076 962.723L672.758 882.08L615.267 964.087L545.619 944.205L631.119 723.314C631.119 723.314 598.249 673.868 596.517 628.145Z" fill="#2F2E41"/>
<path d="M597.213 638.648L602.892 704.898C602.952 705.59 603.3 706.236 603.867 706.708C604.435 707.179 605.179 707.441 605.953 707.441H630.943C631.448 707.441 631.945 707.329 632.391 707.116C632.836 706.902 633.216 706.593 633.496 706.216C633.776 705.839 633.949 705.406 633.998 704.955C634.047 704.504 633.971 704.049 633.778 703.631L603.108 637.381C602.828 636.776 602.316 636.28 601.666 635.983C601.015 635.686 600.268 635.606 599.558 635.759C598.848 635.912 598.222 636.287 597.792 636.816C597.362 637.346 597.157 637.995 597.213 638.648V638.648Z" fill="#2F2E41"/>
<path d="M725.549 819.864C727.021 818.262 728.085 816.389 728.664 814.377C729.242 812.366 729.323 810.265 728.899 808.223C728.475 806.181 727.558 804.247 726.211 802.557C724.864 800.868 723.12 799.464 721.103 798.444L671.626 617.599L639.991 629.811L698.84 804.674C697.156 807.828 696.819 811.426 697.895 814.788C698.97 818.15 701.382 821.041 704.675 822.913C707.967 824.786 711.91 825.51 715.757 824.948C719.604 824.386 723.088 822.577 725.549 819.864V819.864Z" fill="#FFB8B8"/>
<path d="M644.387 601.625C644.387 601.625 634.068 620.143 644.387 653.21C654.705 686.278 662.076 714.055 662.076 714.055C662.076 714.055 685.662 700.828 695.981 704.796C706.3 708.764 679.658 616.646 679.658 616.646C679.658 616.646 663.55 585.752 644.387 601.625Z" fill="#2F2E41"/>
<path d="M662.184 549.188C662.677 542.391 672.233 542.158 679.824 542.094C687.414 542.029 696.489 542.273 700.784 536.656C703.623 532.945 703.081 527.793 700.736 523.813C698.391 519.834 694.533 516.774 690.739 513.83C680.942 506.228 670.845 498.687 659.084 493.822C647.322 488.957 633.538 486.991 621.34 490.897C606.356 495.694 586.099 520.391 584.35 534.58C582.601 548.769 588.921 563.233 599.574 573.836C610.227 584.439 634.61 580.161 649.954 583.933C640.625 572.086 646.774 550.561 661.719 545.028L662.184 549.188Z" fill="#2F2E41"/>
</g>
<ellipse cx="104.403" cy="181.105" rx="10.4032" ry="8.90632" fill="#090321"/>
<ellipse cx="104.403" cy="181.105" rx="10.4032" ry="8.90632" fill="#090321"/>
<ellipse cx="104.403" cy="181.105" rx="10.4032" ry="8.90632" fill="#090321"/>
<ellipse cx="255.597" cy="298.668" rx="10.4032" ry="8.90631" fill="#090321"/>
<ellipse cx="204.274" cy="298.668" rx="10.4032" ry="8.90631" fill="#090321"/>
<ellipse cx="152.952" cy="298.668" rx="10.4032" ry="8.90631" fill="#090321"/>
<ellipse cx="104.403" cy="298.668" rx="10.4032" ry="8.90631" fill="#090321"/>
<ellipse cx="255.597" cy="259.48" rx="10.4032" ry="8.90632" fill="#090321"/>
<ellipse cx="204.274" cy="259.48" rx="10.4032" ry="8.90632" fill="#090321"/>
<ellipse cx="152.952" cy="259.48" rx="10.4032" ry="8.90632" fill="#090321"/>
<ellipse cx="104.403" cy="259.48" rx="10.4032" ry="8.90632" fill="#090321"/>
<ellipse cx="255.597" cy="220.292" rx="10.4032" ry="8.90632" fill="#090321"/>
<ellipse cx="204.274" cy="220.292" rx="10.4032" ry="8.90632" fill="#090321"/>
<ellipse cx="152.952" cy="220.292" rx="10.4032" ry="8.90632" fill="#090321"/>
<ellipse cx="104.403" cy="220.292" rx="10.4032" ry="8.90632" fill="#090321"/>
<ellipse cx="255.597" cy="181.105" rx="10.4032" ry="8.90632" fill="#090321"/>
<ellipse cx="152.952" cy="181.105" rx="10.4032" ry="8.90632" fill="#090321"/>
<ellipse cx="204.274" cy="181.105" rx="10.4032" ry="8.90632" fill="#090321"/>
<path d="M1553.31 384.42C1553.31 380.644 1552.84 378.107 1551.9 376.809C1551.07 375.511 1549.36 374.862 1546.76 374.862C1545.58 374.862 1544.4 374.921 1543.22 375.039C1542.04 375.157 1541.22 375.216 1540.74 375.216L1540.39 374.508L1541.63 366.72C1543.05 366.838 1545.7 366.956 1549.59 367.074C1553.49 367.192 1557.38 367.251 1561.28 367.251C1564.46 367.251 1568.06 367.074 1572.07 366.72C1576.2 366.248 1578.92 365.894 1580.22 365.658L1579.51 373.623C1575.14 374.331 1572.13 375.452 1570.48 376.986C1568.83 378.402 1567.94 380.821 1567.83 384.243L1565.7 460.176C1565.58 464.896 1566.06 468.082 1567.12 469.734C1568.18 471.386 1570.3 472.212 1573.49 472.212C1575.26 472.212 1576.91 472.153 1578.45 472.035C1579.98 471.917 1580.98 471.799 1581.45 471.681L1581.81 472.389L1580.22 480.531C1578.68 480.413 1575.79 480.295 1571.54 480.177C1567.29 480.059 1562.93 480 1558.44 480L1538.09 480.177L1539.86 472.212C1543.64 471.858 1546.41 471.268 1548.18 470.442C1550.07 469.616 1551.36 468.318 1552.07 466.548C1552.78 464.778 1553.13 462.182 1553.13 458.76L1553.31 384.42ZM1602.69 388.845C1606.35 385.187 1608.18 382.119 1608.18 379.641C1608.18 376.573 1604.46 374.803 1597.03 374.331L1596.68 373.623L1597.92 366.012C1599.33 366.13 1602.22 366.366 1606.59 366.72C1611.07 367.074 1614.67 367.251 1617.38 367.251C1620.22 367.251 1623.34 367.192 1626.77 367.074C1630.31 366.838 1632.61 366.661 1633.67 366.543L1634.38 367.782L1633.14 375.039C1630.07 375.629 1627.24 376.868 1624.64 378.756C1622.05 380.644 1618.09 384.361 1612.78 389.907L1584.29 419.82L1614.02 458.583C1618.27 464.129 1622.05 468.023 1625.35 470.265C1628.77 472.507 1632.55 473.628 1636.68 473.628L1637.39 474.336L1636.32 480.354C1635.03 480.59 1632.43 481.003 1628.54 481.593C1624.76 482.183 1622.46 482.478 1621.63 482.478C1618.8 482.478 1615.67 481.18 1612.25 478.584C1608.83 475.87 1605.35 472.094 1601.81 467.256L1570.83 424.245L1571.01 421.767L1602.69 388.845ZM1662.68 373.446C1660.09 373.446 1657.96 372.62 1656.31 370.968C1654.78 369.316 1654.01 367.133 1654.01 364.419C1654.01 361.469 1655.01 358.991 1657.02 356.985C1659.03 354.979 1661.5 353.976 1664.45 353.976C1666.93 353.976 1669 354.861 1670.65 356.631C1672.3 358.283 1673.13 360.407 1673.13 363.003C1673.13 365.953 1672.12 368.431 1670.12 370.437C1668.11 372.443 1665.63 373.446 1662.68 373.446ZM1647.64 474.867C1651.18 473.923 1653.72 472.566 1655.25 470.796C1656.78 468.908 1657.55 466.43 1657.55 463.362V418.404C1657.55 412.032 1655.37 408.846 1651 408.846C1650.18 408.846 1649.29 408.964 1648.35 409.2C1647.4 409.318 1646.81 409.436 1646.58 409.554L1647.29 403.005C1652.24 402.297 1657.32 401.353 1662.51 400.173C1667.82 398.993 1671.24 398.226 1672.77 397.872L1673.66 399.996C1672.6 402.474 1671.65 410.085 1670.83 422.829C1670 435.455 1669.59 448.73 1669.59 462.654C1669.59 466.076 1670.06 468.613 1671 470.265C1671.95 471.799 1673.54 472.566 1675.78 472.566C1677.08 472.566 1678.32 472.507 1679.5 472.389C1680.68 472.271 1681.51 472.212 1681.98 472.212L1682.33 472.92L1680.92 480.531C1679.85 480.413 1677.85 480.295 1674.9 480.177C1671.95 480.059 1668.7 480 1665.16 480C1662.09 480 1658.55 480.295 1654.54 480.885C1650.65 481.475 1648.11 481.888 1646.93 482.124L1647.64 474.867ZM1746.62 474.867C1750.16 473.923 1752.7 472.566 1754.23 470.796C1755.77 468.908 1756.53 466.43 1756.53 463.362L1757.24 428.316C1757.24 422.416 1755.94 417.873 1753.35 414.687C1750.87 411.501 1747.27 409.908 1742.55 409.908C1738.78 409.908 1734.94 410.911 1731.05 412.917C1727.15 414.805 1723.73 416.87 1720.78 419.112C1719.72 443.538 1719.19 458.052 1719.19 462.654C1719.19 466.312 1719.66 468.908 1720.6 470.442C1721.55 471.858 1723.2 472.566 1725.56 472.566C1726.86 472.566 1728.1 472.507 1729.28 472.389C1730.46 472.271 1731.28 472.212 1731.75 472.212L1732.11 472.92L1730.52 480.531C1729.45 480.413 1727.39 480.295 1724.32 480.177C1721.25 480.059 1717.95 480 1714.41 480C1711.34 480 1707.92 480.118 1704.14 480.354C1700.48 480.708 1698.07 480.944 1696.89 481.062L1697.77 473.805C1701.19 473.215 1703.61 472.153 1705.03 470.619C1706.44 469.085 1707.15 466.666 1707.15 463.362V420.174C1707.15 416.162 1706.5 413.389 1705.2 411.855C1703.91 410.203 1701.66 409.377 1698.48 409.377H1696.53L1696 408.669L1696.53 402.828C1701.61 402.002 1706.62 401.058 1711.58 399.996C1716.65 398.816 1719.9 398.049 1721.31 397.695L1722.37 399.111C1722.14 399.819 1721.78 401.353 1721.31 403.713C1720.84 405.955 1720.54 408.315 1720.43 410.793L1720.78 411.324C1734.23 402.356 1742.91 397.872 1746.8 397.872C1754.23 397.872 1760.13 399.937 1764.5 404.067C1768.87 408.197 1771.05 413.743 1771.05 420.705C1771.05 421.885 1770.69 427.313 1769.99 436.989C1769.04 449.261 1768.57 457.816 1768.57 462.654C1768.57 466.076 1769.04 468.613 1769.99 470.265C1770.93 471.799 1772.52 472.566 1774.77 472.566C1776.06 472.566 1777.3 472.507 1778.48 472.389C1779.66 472.271 1780.49 472.212 1780.96 472.212L1781.31 472.92L1779.9 480.531C1778.84 480.413 1776.83 480.295 1773.88 480.177C1770.93 480.059 1767.69 480 1764.15 480C1761.08 480 1757.54 480.295 1753.53 480.885C1749.63 481.475 1747.09 481.888 1745.91 482.124L1746.62 474.867ZM1851.15 469.026C1838.87 477.404 1831.5 481.593 1829.02 481.593C1822.29 481.593 1816.34 480.059 1811.14 476.991C1805.95 473.805 1801.94 469.38 1799.11 463.716C1796.28 458.052 1794.86 451.562 1794.86 444.246C1794.86 435.868 1796.81 428.139 1800.7 421.059C1804.71 413.979 1810.08 408.374 1816.81 404.244C1823.65 399.996 1831.03 397.872 1838.93 397.872C1842.71 397.872 1846.78 398.108 1851.15 398.58V369.198C1851.15 362.826 1848.96 359.64 1844.6 359.64C1843.77 359.64 1842.89 359.758 1841.94 359.994C1841 360.112 1840.41 360.23 1840.17 360.348L1840.88 353.799C1845.95 353.091 1851.2 352.147 1856.63 350.967C1862.06 349.787 1865.54 349.02 1867.08 348.666L1868.14 350.967C1866.84 352.973 1865.66 365.422 1864.6 388.314C1863.65 411.206 1863.18 435.573 1863.18 461.415C1863.18 464.011 1863.83 466.017 1865.13 467.433C1866.43 468.849 1868.2 469.557 1870.44 469.557C1872.09 469.557 1873.68 469.262 1875.22 468.672C1876.87 467.964 1878.17 467.256 1879.11 466.548C1880.17 465.84 1880.82 465.368 1881.06 465.132L1883.54 467.964C1883.18 468.554 1882.3 469.852 1880.88 471.858C1879.47 473.746 1877.58 475.752 1875.22 477.876C1872.98 480 1870.62 481.416 1868.14 482.124C1858.93 482.124 1853.68 477.935 1852.38 469.557L1851.15 469.026ZM1851.15 412.209C1850.79 411.973 1849.91 411.56 1848.49 410.97C1847.07 410.262 1845.07 409.613 1842.47 409.023C1839.99 408.433 1837.16 408.138 1833.98 408.138C1826.07 408.138 1819.82 410.852 1815.21 416.28C1810.73 421.59 1808.49 428.906 1808.49 438.228C1808.49 444.128 1809.49 449.497 1811.5 454.335C1813.62 459.173 1816.45 463.008 1819.99 465.84C1823.65 468.672 1827.6 470.088 1831.85 470.088C1834.33 470.088 1836.99 469.38 1839.82 467.964C1842.77 466.548 1845.25 465.132 1847.25 463.716C1849.26 462.182 1850.56 461.179 1851.15 460.707V412.209ZM1889.04 474.867C1892.35 473.923 1894.65 472.743 1895.95 471.327C1897.36 469.911 1898.19 468.2 1898.42 466.194C1898.78 464.188 1898.95 460.825 1898.95 456.105V369.198C1898.95 362.826 1896.77 359.64 1892.41 359.64C1891.58 359.64 1890.69 359.758 1889.75 359.994C1888.81 360.112 1888.22 360.23 1887.98 360.348C1887.98 359.64 1888.1 358.578 1888.33 357.162L1888.69 353.799C1893.76 353.091 1899.01 352.147 1904.44 350.967C1909.87 349.787 1913.35 349.02 1914.88 348.666L1915.95 350.967C1914.65 352.973 1913.47 365.54 1912.41 388.668C1911.46 411.796 1910.99 436.458 1910.99 462.654C1910.99 466.194 1911.46 468.731 1912.41 470.265C1913.35 471.799 1914.94 472.566 1917.19 472.566C1918.48 472.566 1919.72 472.507 1920.9 472.389C1922.08 472.271 1922.91 472.212 1923.38 472.212L1923.73 472.92L1922.32 480.531C1921.26 480.413 1919.25 480.295 1916.3 480.177C1913.35 480.059 1910.11 480 1906.57 480C1903.5 480 1899.96 480.295 1895.95 480.885C1892.05 481.475 1889.51 481.888 1888.33 482.124L1889.04 474.867ZM1946.42 437.166C1946.42 447.078 1948.78 455.043 1953.5 461.061C1958.33 467.079 1964.71 470.088 1972.61 470.088C1975.92 470.088 1979.16 469.675 1982.35 468.849C1985.53 468.023 1988.19 467.197 1990.31 466.371C1992.44 465.427 1993.79 464.837 1994.38 464.601L1995.44 464.955L1997.39 470.088C1996.57 470.678 1994.62 471.976 1991.55 473.982C1988.6 475.87 1985.12 477.699 1981.11 479.469C1977.1 481.239 1973.5 482.124 1970.31 482.124C1962.99 482.124 1956.5 480.531 1950.84 477.345C1945.18 474.041 1940.81 469.439 1937.74 463.539C1934.67 457.521 1933.14 450.677 1933.14 443.007C1933.14 435.101 1934.91 427.667 1938.45 420.705C1942.11 413.743 1946.95 408.197 1952.96 404.067C1958.98 399.937 1965.41 397.872 1972.26 397.872C1980.87 397.872 1987.42 400.055 1991.9 404.421C1996.39 408.787 1998.63 415.159 1998.63 423.537C1998.63 425.425 1998.45 427.254 1998.1 429.024C1997.86 430.676 1997.69 431.738 1997.57 432.21L1995.27 434.334H1946.42V437.166ZM1979.16 426.192C1980.93 425.956 1982.11 425.543 1982.7 424.953C1983.29 424.363 1983.59 423.183 1983.59 421.413C1983.59 416.693 1982.29 413.094 1979.69 410.616C1977.21 408.138 1973.61 406.899 1968.89 406.899C1963.35 406.899 1958.57 408.787 1954.56 412.563C1950.66 416.339 1948.19 421.413 1947.12 427.785L1979.16 426.192Z" fill="#031966"/>
<path d="M1798.6 505.78C1798.6 501.663 1798.08 498.896 1797.06 497.481C1796.15 496.066 1794.29 495.358 1791.46 495.358C1790.17 495.358 1788.88 495.422 1787.6 495.551C1786.31 495.68 1785.41 495.744 1784.9 495.744L1784.51 494.972L1785.86 486.48C1787.41 486.609 1790.3 486.737 1794.55 486.866C1798.79 486.995 1803.04 487.059 1807.28 487.059C1810.76 487.059 1814.68 486.866 1819.06 486.48C1823.56 485.965 1826.52 485.579 1827.94 485.322L1827.16 494.007C1822.4 494.779 1819.12 496.001 1817.32 497.674C1815.52 499.218 1814.55 501.856 1814.43 505.587L1812.11 588.384C1811.98 593.531 1812.5 597.005 1813.65 598.806C1814.81 600.607 1817.13 601.508 1820.6 601.508C1822.53 601.508 1824.33 601.444 1826.01 601.315C1827.68 601.186 1828.77 601.058 1829.29 600.929L1829.67 601.701L1827.94 610.579C1826.26 610.45 1823.11 610.322 1818.48 610.193C1813.85 610.064 1809.09 610 1804.2 610L1782 610.193L1783.93 601.508C1788.05 601.122 1791.07 600.479 1793 599.578C1795.06 598.677 1796.48 597.262 1797.25 595.332C1798.02 593.402 1798.41 590.571 1798.41 586.84L1798.6 505.78ZM1852.45 510.605C1856.43 506.616 1858.43 503.271 1858.43 500.569C1858.43 497.224 1854.38 495.294 1846.27 494.779L1845.88 494.007L1847.24 485.708C1848.78 485.837 1851.93 486.094 1856.69 486.48C1861.58 486.866 1865.51 487.059 1868.46 487.059C1871.55 487.059 1874.96 486.995 1878.69 486.866C1882.55 486.609 1885.06 486.416 1886.22 486.287L1886.99 487.638L1885.64 495.551C1882.3 496.194 1879.21 497.545 1876.38 499.604C1873.55 501.663 1869.24 505.716 1863.45 511.763L1832.37 544.38L1864.8 586.647C1869.43 592.694 1873.55 596.94 1877.15 599.385C1880.88 601.83 1885 603.052 1889.5 603.052L1890.27 603.824L1889.12 610.386C1887.7 610.643 1884.87 611.094 1880.62 611.737C1876.51 612.38 1874 612.702 1873.1 612.702C1870.01 612.702 1866.6 611.287 1862.87 608.456C1859.14 605.497 1855.34 601.379 1851.48 596.104L1817.71 549.205L1817.9 546.503L1852.45 510.605Z" fill="#FFA420"/>
<path d="M1933.47 606.317C1936.01 605.64 1937.83 604.666 1938.93 603.396C1940.03 602.041 1940.58 600.263 1940.58 598.062L1941.09 572.916C1941.09 568.683 1940.15 565.423 1938.29 563.137C1936.51 560.851 1933.93 559.708 1930.54 559.708C1927.84 559.708 1925.08 560.428 1922.29 561.867C1919.5 563.222 1917.04 564.703 1914.92 566.312C1914.16 583.838 1913.78 594.252 1913.78 597.554C1913.78 600.179 1914.12 602.041 1914.8 603.142C1915.47 604.158 1916.66 604.666 1918.35 604.666C1919.28 604.666 1920.17 604.624 1921.02 604.539C1921.87 604.454 1922.46 604.412 1922.8 604.412L1923.05 604.92L1921.91 610.381C1921.15 610.296 1919.66 610.212 1917.46 610.127C1915.26 610.042 1912.89 610 1910.35 610C1908.15 610 1905.69 610.085 1902.99 610.254C1900.36 610.508 1898.63 610.677 1897.78 610.762L1898.41 605.555C1900.87 605.132 1902.6 604.37 1903.62 603.269C1904.64 602.168 1905.14 600.433 1905.14 598.062V567.074C1905.14 564.195 1904.68 562.206 1903.75 561.105C1902.82 559.92 1901.21 559.327 1898.92 559.327H1897.52L1897.14 558.819L1897.52 554.628C1901.17 554.035 1904.76 553.358 1908.32 552.596C1911.96 551.749 1914.29 551.199 1915.3 550.945L1916.07 551.961C1915.9 552.469 1915.64 553.57 1915.3 555.263C1914.97 556.872 1914.75 558.565 1914.67 560.343L1914.92 560.724C1924.58 554.289 1930.8 551.072 1933.59 551.072C1938.93 551.072 1943.16 552.554 1946.29 555.517C1949.43 558.48 1950.99 562.46 1950.99 567.455C1950.99 568.302 1950.74 572.196 1950.23 579.139C1949.55 587.944 1949.21 594.083 1949.21 597.554C1949.21 600.009 1949.55 601.83 1950.23 603.015C1950.91 604.116 1952.05 604.666 1953.66 604.666C1954.59 604.666 1955.48 604.624 1956.33 604.539C1957.17 604.454 1957.76 604.412 1958.1 604.412L1958.36 604.92L1957.34 610.381C1956.58 610.296 1955.14 610.212 1953.02 610.127C1950.91 610.042 1948.58 610 1946.04 610C1943.84 610 1941.3 610.212 1938.42 610.635C1935.62 611.058 1933.8 611.355 1932.96 611.524L1933.47 606.317ZM1999.7 572.916C1999.7 568.683 1998.73 565.381 1996.78 563.01C1994.83 560.639 1992.08 559.454 1988.52 559.454C1986.15 559.454 1983.53 560.047 1980.65 561.232C1977.77 562.417 1975.31 563.941 1973.28 565.804L1972.65 565.423L1971.12 559.962C1975.44 557.422 1979.55 555.305 1983.44 553.612C1987.42 551.919 1990.22 551.072 1991.82 551.072C1997.33 551.072 2001.65 552.511 2004.78 555.39C2007.91 558.269 2009.48 562.29 2009.48 567.455C2009.48 569.318 2009.18 573.128 2008.59 578.885C2007.66 588.198 2007.19 594.125 2007.19 596.665C2007.19 598.528 2007.66 599.967 2008.59 600.983C2009.52 601.999 2010.79 602.507 2012.4 602.507C2013.58 602.507 2014.85 602.211 2016.21 601.618C2017.65 601.025 2018.92 600.263 2020.02 599.332L2021.8 601.364C2020.44 603.735 2018.71 605.894 2016.59 607.841C2014.56 609.704 2012.61 610.931 2010.75 611.524C2003.89 611.524 2000.12 608.095 1999.44 601.237L1998.94 601.11C1995.89 604.158 1993.09 606.571 1990.55 608.349C1988.1 610.127 1986.24 611.016 1984.97 611.016C1980.23 611.016 1976.33 609.534 1973.28 606.571C1970.23 603.608 1968.71 599.84 1968.71 595.268C1968.71 592.813 1969.3 590.654 1970.49 588.791C1971.76 586.928 1973.41 585.701 1975.44 585.108L1999.44 578.504L1999.7 572.916ZM1982.05 588.537C1979.59 589.299 1978.36 591.077 1978.36 593.871C1978.36 596.326 1979.17 598.358 1980.78 599.967C1982.47 601.576 1984.59 602.38 1987.13 602.38C1988.73 602.38 1990.6 601.83 1992.71 600.729C1994.92 599.544 1996.9 598.062 1998.68 596.284L1999.19 583.33L1982.05 588.537ZM2071.18 603.015C2070.58 603.438 2069.27 604.327 2067.24 605.682C2065.29 607.037 2063.01 608.349 2060.38 609.619C2057.84 610.889 2055.64 611.524 2053.78 611.524C2045.73 611.524 2039.3 608.984 2034.47 603.904C2029.65 598.824 2027.24 592.008 2027.24 583.457C2027.24 577.446 2028.51 571.985 2031.05 567.074C2033.67 562.079 2037.18 558.184 2041.59 555.39C2046.07 552.511 2051.07 551.072 2056.57 551.072C2058.94 551.072 2061.23 551.241 2063.43 551.58C2065.63 551.919 2067.41 552.3 2068.76 552.723C2070.2 553.062 2071.09 553.316 2071.43 553.485L2071.81 554.374C2071.73 554.797 2071.47 555.813 2071.05 557.422C2070.71 558.946 2070.33 561.02 2069.91 563.645C2069.48 566.185 2069.23 568.937 2069.15 571.9L2063.94 572.281V568.344C2063.94 565.211 2062.96 562.714 2061.02 560.851C2059.15 558.904 2056.66 557.93 2053.52 557.93C2048.36 557.93 2044.38 559.793 2041.59 563.518C2038.79 567.159 2037.4 572.366 2037.4 579.139C2037.4 586.505 2038.92 592.347 2041.97 596.665C2045.1 600.898 2049.33 603.015 2054.67 603.015C2056.78 603.015 2058.9 602.719 2061.02 602.126C2063.13 601.449 2064.91 600.814 2066.35 600.221C2067.79 599.544 2068.68 599.078 2069.02 598.824L2069.78 599.078L2071.18 603.015ZM2080.81 605.555C2083.01 605.216 2084.57 604.624 2085.51 603.777C2086.44 602.846 2086.99 601.66 2087.16 600.221C2087.41 598.782 2087.54 596.326 2087.54 592.855V530.498C2087.54 525.926 2085.97 523.64 2082.84 523.64C2082.25 523.64 2081.61 523.725 2080.93 523.894C2080.26 523.979 2079.83 524.063 2079.66 524.148C2079.66 523.64 2079.75 522.878 2079.92 521.862L2080.17 519.449C2083.81 518.941 2087.58 518.264 2091.48 517.417C2095.37 516.57 2097.87 516.02 2098.97 515.766L2099.73 517.417C2098.8 518.856 2097.95 527.831 2097.19 544.341C2096.51 560.851 2096.17 578.589 2096.17 597.554C2096.17 600.179 2096.51 602.041 2097.19 603.142C2097.87 604.158 2099.05 604.666 2100.75 604.666C2101.68 604.666 2102.57 604.624 2103.41 604.539C2104.26 604.454 2104.85 604.412 2105.19 604.412L2105.45 604.92L2104.3 610.381C2103.54 610.296 2102.06 610.212 2099.86 610.127C2097.66 610.042 2095.29 610 2092.75 610C2090.54 610 2088.09 610.085 2085.38 610.254C2082.75 610.508 2081.02 610.677 2080.17 610.762L2080.81 605.555ZM2115.1 563.772C2116.28 562.671 2117.09 561.825 2117.51 561.232C2117.93 560.555 2118.15 559.92 2118.15 559.327C2118.15 558.396 2117.59 557.718 2116.49 557.295C2115.39 556.872 2113.62 556.66 2111.16 556.66L2110.78 556.025L2111.92 552.342C2112.77 552.342 2114.38 552.384 2116.75 552.469C2119.2 552.554 2121.74 552.596 2124.37 552.596C2126.4 552.596 2128.73 552.511 2131.35 552.342C2133.98 552.088 2135.67 551.919 2136.43 551.834L2136.81 552.469L2135.8 556.406C2132.33 557.422 2128.81 559.369 2125.26 562.248C2121.79 565.127 2117.59 569.021 2112.68 573.932C2112.68 573.932 2111.37 575.244 2108.75 577.869L2122.08 595.014C2124.96 598.739 2127.59 601.406 2129.96 603.015C2132.33 604.624 2134.82 605.428 2137.45 605.428L2137.83 606.063L2137.07 609.746C2136.31 610 2134.74 610.381 2132.37 610.889C2130 611.482 2128.43 611.778 2127.67 611.778C2126.4 611.778 2124.92 611.355 2123.23 610.508C2121.87 609.831 2120.52 608.772 2119.16 607.333C2117.89 605.894 2116.28 603.777 2114.34 600.983L2099.35 579.774L2099.6 577.996L2115.1 563.772Z" fill="#031966"/>
<path d="M1714.12 703.2H1713.92C1713.79 704.96 1713.52 708.267 1713.12 713.12C1712.75 717.947 1712.56 720.573 1712.56 721C1712.56 721.827 1712.97 722.24 1713.8 722.24L1715.44 722.2L1715.52 722.36L1715.16 724.16C1714.87 724.133 1714.33 724.093 1713.56 724.04C1712.81 724.013 1712.05 724 1711.28 724C1710.61 724 1709.92 724.04 1709.2 724.12C1708.51 724.227 1708.05 724.293 1707.84 724.32L1708.04 722.48C1708.89 722.373 1709.51 722.107 1709.88 721.68C1710.25 721.227 1710.49 720.467 1710.6 719.4C1711.77 708.68 1712.36 702.92 1712.36 702.12C1712.36 701.427 1712.08 700.907 1711.52 700.56C1710.99 700.213 1710.11 700 1708.88 699.92L1708.76 699.72L1709.08 698.32C1709.43 698.347 1710.11 698.387 1711.12 698.44C1712.13 698.493 1712.91 698.52 1713.44 698.52C1713.92 698.52 1714.44 698.507 1715 698.48C1715.59 698.427 1715.97 698.387 1716.16 698.36C1717.23 701.8 1718.25 705 1719.24 707.96C1720.25 710.893 1721.08 713.227 1721.72 714.96C1722.36 716.693 1722.76 717.773 1722.92 718.2H1723.12C1723.49 717.213 1724.35 714.867 1725.68 711.16C1727.01 707.453 1728.47 703.213 1730.04 698.44C1730.04 698.413 1730.4 698.427 1731.12 698.48L1732.68 698.52C1733.19 698.52 1733.95 698.493 1734.96 698.44C1735.97 698.36 1736.65 698.307 1737 698.28L1737.08 698.44L1736.88 699.92C1735.73 700.053 1734.92 700.293 1734.44 700.64C1733.96 700.96 1733.72 701.453 1733.72 702.12C1733.72 702.707 1733.84 704.893 1734.08 708.68C1734.32 712.44 1734.55 715.693 1734.76 718.44C1734.89 719.533 1735.03 720.347 1735.16 720.88C1735.29 721.387 1735.48 721.747 1735.72 721.96C1735.96 722.147 1736.29 722.24 1736.72 722.24C1736.96 722.24 1737.19 722.227 1737.4 722.2C1737.61 722.173 1737.76 722.16 1737.84 722.16L1737.92 722.32L1737.56 724.12C1737.29 724.093 1736.79 724.067 1736.04 724.04C1735.32 724.013 1734.56 724 1733.76 724C1733.04 724 1732.23 724.04 1731.32 724.12C1730.44 724.227 1729.87 724.293 1729.6 724.32L1729.76 722.48C1730.59 722.373 1731.19 722.16 1731.56 721.84C1731.93 721.52 1732.12 721.067 1732.12 720.48C1732.12 719.92 1731.92 717.32 1731.52 712.68C1731.15 708.04 1730.89 704.88 1730.76 703.2H1730.56L1722.84 724.48L1721.88 724.76L1714.12 703.2ZM1748.29 724.48C1746.77 724.48 1745.42 724.107 1744.25 723.36C1743.07 722.613 1742.15 721.573 1741.49 720.24C1740.85 718.88 1740.53 717.333 1740.53 715.6C1740.53 713.733 1740.93 712.027 1741.73 710.48C1742.55 708.907 1743.67 707.68 1745.09 706.8C1746.5 705.893 1748.07 705.44 1749.81 705.44C1751.3 705.44 1752.63 705.813 1753.81 706.56C1755.01 707.307 1755.93 708.36 1756.57 709.72C1757.23 711.053 1757.57 712.587 1757.57 714.32C1757.57 716.187 1757.15 717.907 1756.33 719.48C1755.53 721.027 1754.42 722.253 1753.01 723.16C1751.59 724.04 1750.02 724.48 1748.29 724.48ZM1749.41 722.52C1750.9 722.52 1752.09 721.92 1752.97 720.72C1753.85 719.493 1754.29 717.84 1754.29 715.76C1754.29 714.187 1754.05 712.787 1753.57 711.56C1753.09 710.307 1752.41 709.333 1751.53 708.64C1750.67 707.947 1749.7 707.6 1748.61 707.6C1747.11 707.6 1745.93 708.213 1745.05 709.44C1744.17 710.667 1743.73 712.333 1743.73 714.44C1743.73 716.013 1743.97 717.413 1744.45 718.64C1744.93 719.867 1745.59 720.827 1746.45 721.52C1747.3 722.187 1748.29 722.52 1749.41 722.52ZM1761.37 722.56C1762.17 722.48 1762.7 722.227 1762.97 721.8C1763.23 721.347 1763.37 720.493 1763.37 719.24V710.44C1763.37 709.56 1763.25 708.933 1763.01 708.56C1762.77 708.187 1762.38 708 1761.85 708C1761.63 708 1761.45 708.013 1761.29 708.04C1761.15 708.067 1761.06 708.093 1761.01 708.12L1760.81 707.84L1760.93 706.6C1761.94 706.413 1763.01 706.187 1764.13 705.92C1765.27 705.653 1766.01 705.48 1766.33 705.4L1766.61 705.64C1766.55 705.88 1766.47 706.44 1766.37 707.32C1766.26 708.173 1766.22 708.987 1766.25 709.76L1766.41 709.88C1767.21 708.627 1768.14 707.6 1769.21 706.8C1770.3 706 1771.25 705.6 1772.05 705.6C1772.42 705.6 1772.7 705.627 1772.89 705.68C1773.1 705.707 1773.23 705.733 1773.29 705.76L1773.41 705.92C1773.35 706.293 1773.23 707.093 1773.05 708.32C1772.89 709.52 1772.79 710.627 1772.77 711.64L1771.21 711.76C1771.21 710.667 1771.13 709.947 1770.97 709.6C1770.83 709.227 1770.55 709.04 1770.13 709.04C1769.54 709.04 1768.91 709.293 1768.25 709.8C1767.58 710.28 1766.97 710.933 1766.41 711.76C1766.38 712.533 1766.33 713.813 1766.25 715.6C1766.17 717.387 1766.11 718.827 1766.09 719.92C1766.09 720.827 1766.22 721.44 1766.49 721.76C1766.75 722.08 1767.26 722.24 1768.01 722.24C1768.35 722.24 1768.7 722.227 1769.05 722.2C1769.39 722.173 1769.63 722.16 1769.77 722.16L1769.81 722.32L1769.45 724.08C1769.18 724.08 1768.65 724.067 1767.85 724.04C1767.05 724.013 1766.22 724 1765.37 724C1764.38 724 1763.49 724.013 1762.69 724.04C1761.89 724.093 1761.38 724.133 1761.17 724.16L1761.37 722.56ZM1778.37 714.32C1778.37 716.56 1778.9 718.36 1779.97 719.72C1781.06 721.08 1782.5 721.76 1784.29 721.76C1785.04 721.76 1785.77 721.667 1786.49 721.48C1787.21 721.293 1787.81 721.107 1788.29 720.92C1788.77 720.707 1789.08 720.573 1789.21 720.52L1789.45 720.6L1789.89 721.76C1789.7 721.893 1789.26 722.187 1788.57 722.64C1787.9 723.067 1787.12 723.48 1786.21 723.88C1785.3 724.28 1784.49 724.48 1783.77 724.48C1782.12 724.48 1780.65 724.12 1779.37 723.4C1778.09 722.653 1777.1 721.613 1776.41 720.28C1775.72 718.92 1775.37 717.373 1775.37 715.64C1775.37 713.853 1775.77 712.173 1776.57 710.6C1777.4 709.027 1778.49 707.773 1779.85 706.84C1781.21 705.907 1782.66 705.44 1784.21 705.44C1786.16 705.44 1787.64 705.933 1788.65 706.92C1789.66 707.907 1790.17 709.347 1790.17 711.24C1790.17 711.667 1790.13 712.08 1790.05 712.48C1790 712.853 1789.96 713.093 1789.93 713.2L1789.41 713.68H1778.37V714.32ZM1785.77 711.84C1786.17 711.787 1786.44 711.693 1786.57 711.56C1786.7 711.427 1786.77 711.16 1786.77 710.76C1786.77 709.693 1786.48 708.88 1785.89 708.32C1785.33 707.76 1784.52 707.48 1783.45 707.48C1782.2 707.48 1781.12 707.907 1780.21 708.76C1779.33 709.613 1778.77 710.76 1778.53 712.2L1785.77 711.84ZM1803.23 709.8C1803.23 709.08 1803.07 708.573 1802.75 708.28C1802.43 707.987 1801.83 707.827 1800.95 707.8L1800.79 707.56L1800.99 706.36C1801.76 705.987 1802.51 705.533 1803.23 705C1803.97 704.44 1804.57 703.96 1805.03 703.56C1805.51 703.133 1805.81 702.853 1805.95 702.72L1806.75 703.04C1806.72 703.173 1806.68 703.493 1806.63 704C1806.57 704.507 1806.51 705.187 1806.43 706.04L1812.31 705.92L1812.43 706.04L1812.07 708.16L1806.27 708.04C1806.08 710.973 1805.99 714.307 1805.99 718.04C1805.99 719.4 1806.21 720.36 1806.67 720.92C1807.15 721.48 1807.96 721.76 1809.11 721.76C1809.51 721.76 1809.91 721.707 1810.31 721.6C1810.71 721.493 1811.04 721.387 1811.31 721.28C1811.57 721.147 1811.75 721.067 1811.83 721.04L1812.23 722.08C1812.07 722.213 1811.72 722.467 1811.19 722.84C1810.68 723.213 1810.12 723.587 1809.51 723.96C1808.92 724.307 1808.48 724.48 1808.19 724.48C1806.37 724.48 1805.09 724.12 1804.35 723.4C1803.6 722.653 1803.23 721.4 1803.23 719.64V709.8ZM1814.55 722.44C1815.32 722.36 1815.86 722.16 1816.15 721.84C1816.47 721.52 1816.63 720.987 1816.63 720.24V698.96C1816.63 698.24 1816.51 697.72 1816.27 697.4C1816.03 697.053 1815.66 696.88 1815.15 696.88H1814.31L1814.15 696.76L1814.31 695.48C1815.46 695.32 1816.64 695.107 1817.87 694.84C1819.1 694.573 1819.88 694.4 1820.23 694.32L1820.47 694.84C1820.28 695.133 1820.1 696.547 1819.91 699.08C1819.75 701.587 1819.62 704.747 1819.51 708.56C1822.55 706.48 1824.55 705.44 1825.51 705.44C1827.24 705.44 1828.59 705.893 1829.55 706.8C1830.51 707.707 1830.99 708.973 1830.99 710.6C1830.99 711.133 1830.9 712.36 1830.71 714.28C1830.47 717.4 1830.35 719.333 1830.35 720.08C1830.35 720.853 1830.46 721.427 1830.67 721.8C1830.88 722.147 1831.24 722.32 1831.75 722.32C1832.04 722.32 1832.32 722.307 1832.59 722.28C1832.86 722.253 1833.04 722.24 1833.15 722.24L1833.23 722.4L1832.91 724.12C1832.67 724.093 1832.22 724.067 1831.55 724.04C1830.88 724.013 1830.15 724 1829.35 724C1828.66 724 1827.86 724.067 1826.95 724.2C1826.07 724.333 1825.5 724.427 1825.23 724.48L1825.39 722.84C1826.19 722.627 1826.76 722.32 1827.11 721.92C1827.46 721.493 1827.63 720.933 1827.63 720.24L1827.87 712.32C1827.87 710.987 1827.58 709.96 1826.99 709.24C1826.43 708.52 1825.62 708.16 1824.55 708.16C1823.64 708.16 1822.71 708.413 1821.75 708.92C1820.82 709.4 1820.06 709.88 1819.47 710.36C1819.39 713.427 1819.35 716.667 1819.35 720.08C1819.35 720.907 1819.46 721.493 1819.67 721.84C1819.88 722.16 1820.26 722.32 1820.79 722.32C1821.08 722.32 1821.36 722.307 1821.63 722.28C1821.9 722.253 1822.08 722.24 1822.19 722.24L1822.27 722.4L1821.91 724.12C1821.67 724.093 1821.2 724.067 1820.51 724.04C1819.82 724.013 1819.07 724 1818.27 724C1817.39 724 1816.58 724.013 1815.83 724.04C1815.08 724.067 1814.58 724.08 1814.31 724.08L1814.55 722.44ZM1838.96 714.32C1838.96 716.56 1839.49 718.36 1840.56 719.72C1841.65 721.08 1843.09 721.76 1844.88 721.76C1845.62 721.76 1846.36 721.667 1847.08 721.48C1847.8 721.293 1848.4 721.107 1848.88 720.92C1849.36 720.707 1849.66 720.573 1849.8 720.52L1850.04 720.6L1850.48 721.76C1850.29 721.893 1849.85 722.187 1849.16 722.64C1848.49 723.067 1847.7 723.48 1846.8 723.88C1845.89 724.28 1845.08 724.48 1844.36 724.48C1842.7 724.48 1841.24 724.12 1839.96 723.4C1838.68 722.653 1837.69 721.613 1837 720.28C1836.3 718.92 1835.96 717.373 1835.96 715.64C1835.96 713.853 1836.36 712.173 1837.16 710.6C1837.98 709.027 1839.08 707.773 1840.44 706.84C1841.8 705.907 1843.25 705.44 1844.8 705.44C1846.74 705.44 1848.22 705.933 1849.24 706.92C1850.25 707.907 1850.76 709.347 1850.76 711.24C1850.76 711.667 1850.72 712.08 1850.64 712.48C1850.58 712.853 1850.54 713.093 1850.52 713.2L1850 713.68H1838.96V714.32ZM1846.36 711.84C1846.76 711.787 1847.02 711.693 1847.16 711.56C1847.29 711.427 1847.36 711.16 1847.36 710.76C1847.36 709.693 1847.06 708.88 1846.48 708.32C1845.92 707.76 1845.1 707.48 1844.04 707.48C1842.78 707.48 1841.7 707.907 1840.8 708.76C1839.92 709.613 1839.36 710.76 1839.12 712.2L1846.36 711.84ZM1874.37 708.32C1874.37 707.973 1874.24 707.733 1873.97 707.6C1873.73 707.44 1873.29 707.36 1872.65 707.36H1871.13L1870.97 707.12L1871.17 705.88L1875.33 705.92L1878.61 705.88L1878.33 707.36C1877.77 707.44 1877.33 707.667 1877.01 708.04C1876.69 708.413 1876.28 709.187 1875.77 710.36L1869.97 724L1867.81 724.68C1867.41 723.4 1866.61 720.893 1865.41 717.16C1864.24 713.4 1863.41 710.8 1862.93 709.36C1862.48 708.08 1861.57 707.413 1860.21 707.36L1860.13 707.2L1860.37 705.88L1863.69 705.92C1864.7 705.92 1865.69 705.88 1866.65 705.8C1867.61 705.72 1868.22 705.667 1868.49 705.64L1868.57 705.84L1868.33 707.08C1867.42 707.107 1866.8 707.2 1866.45 707.36C1866.13 707.493 1865.97 707.747 1865.97 708.12C1865.97 708.6 1866.45 710.533 1867.41 713.92C1868.37 717.28 1869.02 719.56 1869.37 720.76H1869.53L1871.93 714.84C1872.81 712.787 1873.44 711.267 1873.81 710.28C1874.18 709.293 1874.37 708.64 1874.37 708.32ZM1889.12 712.32C1889.12 710.987 1888.81 709.947 1888.2 709.2C1887.59 708.453 1886.72 708.08 1885.6 708.08C1884.85 708.08 1884.03 708.267 1883.12 708.64C1882.21 709.013 1881.44 709.493 1880.8 710.08L1880.6 709.96L1880.12 708.24C1881.48 707.44 1882.77 706.773 1884 706.24C1885.25 705.707 1886.13 705.44 1886.64 705.44C1888.37 705.44 1889.73 705.893 1890.72 706.8C1891.71 707.707 1892.2 708.973 1892.2 710.6C1892.2 711.187 1892.11 712.387 1891.92 714.2C1891.63 717.133 1891.48 719 1891.48 719.8C1891.48 720.387 1891.63 720.84 1891.92 721.16C1892.21 721.48 1892.61 721.64 1893.12 721.64C1893.49 721.64 1893.89 721.547 1894.32 721.36C1894.77 721.173 1895.17 720.933 1895.52 720.64L1896.08 721.28C1895.65 722.027 1895.11 722.707 1894.44 723.32C1893.8 723.907 1893.19 724.293 1892.6 724.48C1890.44 724.48 1889.25 723.4 1889.04 721.24L1888.88 721.2C1887.92 722.16 1887.04 722.92 1886.24 723.48C1885.47 724.04 1884.88 724.32 1884.48 724.32C1882.99 724.32 1881.76 723.853 1880.8 722.92C1879.84 721.987 1879.36 720.8 1879.36 719.36C1879.36 718.587 1879.55 717.907 1879.92 717.32C1880.32 716.733 1880.84 716.347 1881.48 716.16L1889.04 714.08L1889.12 712.32ZM1883.56 717.24C1882.79 717.48 1882.4 718.04 1882.4 718.92C1882.4 719.693 1882.65 720.333 1883.16 720.84C1883.69 721.347 1884.36 721.6 1885.16 721.6C1885.67 721.6 1886.25 721.427 1886.92 721.08C1887.61 720.707 1888.24 720.24 1888.8 719.68L1888.96 715.6L1883.56 717.24ZM1898.71 722.56C1899.51 722.48 1900.04 722.227 1900.31 721.8C1900.58 721.347 1900.71 720.493 1900.71 719.24V710.44C1900.71 709.56 1900.59 708.933 1900.35 708.56C1900.11 708.187 1899.72 708 1899.19 708C1898.98 708 1898.79 708.013 1898.63 708.04C1898.5 708.067 1898.4 708.093 1898.35 708.12L1898.15 707.84L1898.27 706.6C1899.28 706.413 1900.35 706.187 1901.47 705.92C1902.62 705.653 1903.35 705.48 1903.67 705.4L1903.95 705.64C1903.9 705.88 1903.82 706.44 1903.71 707.32C1903.6 708.173 1903.56 708.987 1903.59 709.76L1903.75 709.88C1904.55 708.627 1905.48 707.6 1906.55 706.8C1907.64 706 1908.59 705.6 1909.39 705.6C1909.76 705.6 1910.04 705.627 1910.23 705.68C1910.44 705.707 1910.58 705.733 1910.63 705.76L1910.75 705.92C1910.7 706.293 1910.58 707.093 1910.39 708.32C1910.23 709.52 1910.14 710.627 1910.11 711.64L1908.55 711.76C1908.55 710.667 1908.47 709.947 1908.31 709.6C1908.18 709.227 1907.9 709.04 1907.47 709.04C1906.88 709.04 1906.26 709.293 1905.59 709.8C1904.92 710.28 1904.31 710.933 1903.75 711.76C1903.72 712.533 1903.67 713.813 1903.59 715.6C1903.51 717.387 1903.46 718.827 1903.43 719.92C1903.43 720.827 1903.56 721.44 1903.83 721.76C1904.1 722.08 1904.6 722.24 1905.35 722.24C1905.7 722.24 1906.04 722.227 1906.39 722.2C1906.74 722.173 1906.98 722.16 1907.11 722.16L1907.15 722.32L1906.79 724.08C1906.52 724.08 1905.99 724.067 1905.19 724.04C1904.39 724.013 1903.56 724 1902.71 724C1901.72 724 1900.83 724.013 1900.03 724.04C1899.23 724.093 1898.72 724.133 1898.51 724.16L1898.71 722.56ZM1916.98 699.92C1916.4 699.92 1915.92 699.733 1915.54 699.36C1915.2 698.987 1915.02 698.493 1915.02 697.88C1915.02 697.213 1915.25 696.653 1915.7 696.2C1916.16 695.747 1916.72 695.52 1917.38 695.52C1917.94 695.52 1918.41 695.72 1918.78 696.12C1919.16 696.493 1919.34 696.973 1919.34 697.56C1919.34 698.227 1919.12 698.787 1918.66 699.24C1918.21 699.693 1917.65 699.92 1916.98 699.92ZM1913.58 722.84C1914.38 722.627 1914.96 722.32 1915.3 721.92C1915.65 721.493 1915.82 720.933 1915.82 720.24V710.08C1915.82 708.64 1915.33 707.92 1914.34 707.92C1914.16 707.92 1913.96 707.947 1913.74 708C1913.53 708.027 1913.4 708.053 1913.34 708.08L1913.5 706.6C1914.62 706.44 1915.77 706.227 1916.94 705.96C1918.14 705.693 1918.92 705.52 1919.26 705.44L1919.46 705.92C1919.22 706.48 1919.01 708.2 1918.82 711.08C1918.64 713.933 1918.54 716.933 1918.54 720.08C1918.54 720.853 1918.65 721.427 1918.86 721.8C1919.08 722.147 1919.44 722.32 1919.94 722.32C1920.24 722.32 1920.52 722.307 1920.78 722.28C1921.05 722.253 1921.24 722.24 1921.34 722.24L1921.42 722.4L1921.1 724.12C1920.86 724.093 1920.41 724.067 1919.74 724.04C1919.08 724.013 1918.34 724 1917.54 724C1916.85 724 1916.05 724.067 1915.14 724.2C1914.26 724.333 1913.69 724.427 1913.42 724.48L1913.58 722.84ZM1927.39 714.32C1927.39 716.56 1927.93 718.36 1928.99 719.72C1930.09 721.08 1931.53 721.76 1933.31 721.76C1934.06 721.76 1934.79 721.667 1935.51 721.48C1936.23 721.293 1936.83 721.107 1937.31 720.92C1937.79 720.707 1938.1 720.573 1938.23 720.52L1938.47 720.6L1938.91 721.76C1938.73 721.893 1938.29 722.187 1937.59 722.64C1936.93 723.067 1936.14 723.48 1935.23 723.88C1934.33 724.28 1933.51 724.48 1932.79 724.48C1931.14 724.48 1929.67 724.12 1928.39 723.4C1927.11 722.653 1926.13 721.613 1925.43 720.28C1924.74 718.92 1924.39 717.373 1924.39 715.64C1924.39 713.853 1924.79 712.173 1925.59 710.6C1926.42 709.027 1927.51 707.773 1928.87 706.84C1930.23 705.907 1931.69 705.44 1933.23 705.44C1935.18 705.44 1936.66 705.933 1937.67 706.92C1938.69 707.907 1939.19 709.347 1939.19 711.24C1939.19 711.667 1939.15 712.08 1939.07 712.48C1939.02 712.853 1938.98 713.093 1938.95 713.2L1938.43 713.68H1927.39V714.32ZM1934.79 711.84C1935.19 711.787 1935.46 711.693 1935.59 711.56C1935.73 711.427 1935.79 711.16 1935.79 710.76C1935.79 709.693 1935.5 708.88 1934.91 708.32C1934.35 707.76 1933.54 707.48 1932.47 707.48C1931.22 707.48 1930.14 707.907 1929.23 708.76C1928.35 709.613 1927.79 710.76 1927.55 712.2L1934.79 711.84ZM1944.16 709.8C1944.16 709.08 1944 708.573 1943.68 708.28C1943.36 707.987 1942.76 707.827 1941.88 707.8L1941.72 707.56L1941.92 706.36C1942.7 705.987 1943.44 705.533 1944.16 705C1944.91 704.44 1945.51 703.96 1945.96 703.56C1946.44 703.133 1946.75 702.853 1946.88 702.72L1947.68 703.04C1947.66 703.173 1947.62 703.493 1947.56 704C1947.51 704.507 1947.44 705.187 1947.36 706.04L1953.24 705.92L1953.36 706.04L1953 708.16L1947.2 708.04C1947.02 710.973 1946.92 714.307 1946.92 718.04C1946.92 719.4 1947.15 720.36 1947.6 720.92C1948.08 721.48 1948.9 721.76 1950.04 721.76C1950.44 721.76 1950.84 721.707 1951.24 721.6C1951.64 721.493 1951.98 721.387 1952.24 721.28C1952.51 721.147 1952.68 721.067 1952.76 721.04L1953.16 722.08C1953 722.213 1952.66 722.467 1952.12 722.84C1951.62 723.213 1951.06 723.587 1950.44 723.96C1949.86 724.307 1949.42 724.48 1949.12 724.48C1947.31 724.48 1946.03 724.12 1945.28 723.4C1944.54 722.653 1944.16 721.4 1944.16 719.64V709.8ZM1963.29 720.36C1966.41 712.893 1967.97 708.867 1967.97 708.28C1967.97 707.587 1967.46 707.24 1966.45 707.24H1964.61L1964.53 707.08L1964.77 705.76C1965.01 705.787 1965.53 705.827 1966.33 705.88C1967.15 705.907 1967.98 705.92 1968.81 705.92L1972.21 705.88L1971.93 707.36C1971.34 707.467 1970.89 707.68 1970.57 708C1970.27 708.293 1969.98 708.84 1969.69 709.64L1964.53 721.8C1963.01 725.267 1961.82 727.787 1960.97 729.36C1960.14 730.933 1959.31 732.04 1958.49 732.68C1957.69 733.347 1956.7 733.667 1955.53 733.64C1955.31 733.64 1954.97 733.32 1954.49 732.68C1954.01 732.067 1953.77 731.627 1953.77 731.36L1953.97 731.08C1955.51 731.08 1956.97 730.453 1958.33 729.2C1959.71 727.973 1960.86 726.253 1961.77 724.04C1961.13 722.013 1960.27 719.507 1959.21 716.52C1958.17 713.533 1957.27 711.12 1956.53 709.28C1956.21 708.613 1955.83 708.133 1955.41 707.84C1955.01 707.547 1954.47 707.387 1953.81 707.36L1953.73 707.2L1953.97 705.88L1957.29 705.92C1958.27 705.92 1959.25 705.88 1960.21 705.8C1961.19 705.72 1961.82 705.667 1962.09 705.64L1962.17 705.84L1961.93 707.08C1961.02 707.107 1960.39 707.2 1960.05 707.36C1959.73 707.493 1959.57 707.747 1959.57 708.12C1959.57 708.547 1959.83 709.667 1960.37 711.48C1960.9 713.293 1961.45 715.093 1962.01 716.88C1962.57 718.667 1962.94 719.827 1963.13 720.36H1963.29ZM1971.29 721.08C1972.2 720.387 1972.97 720.04 1973.61 720.04C1974.2 720.04 1974.68 720.32 1975.05 720.88C1975.45 721.413 1975.65 722.173 1975.65 723.16C1975.65 724.547 1975.09 725.853 1973.97 727.08C1972.85 728.333 1971.55 729.4 1970.05 730.28L1969.33 729.68V729.28C1970.27 728.64 1971.03 727.88 1971.61 727C1972.2 726.12 1972.49 725.267 1972.49 724.44C1972.49 723.907 1972.37 723.4 1972.13 722.92C1971.89 722.413 1971.59 721.987 1971.21 721.64L1971.29 721.08ZM1987.37 698.96C1987.37 697.52 1986.88 696.8 1985.89 696.8C1985.68 696.8 1985.49 696.813 1985.33 696.84C1985.17 696.867 1985.06 696.893 1985.01 696.92L1984.89 696.8L1985.05 695.48C1986.2 695.32 1987.38 695.107 1988.61 694.84C1989.84 694.573 1990.62 694.4 1990.97 694.32L1991.21 694.84C1991.02 695.107 1990.85 696.467 1990.69 698.92C1990.53 701.347 1990.4 704.453 1990.29 708.24C1991.49 707.387 1992.52 706.707 1993.37 706.2C1994.25 705.693 1994.84 705.44 1995.13 705.44C1996.62 705.44 1997.96 705.8 1999.13 706.52C2000.3 707.24 2001.21 708.253 2001.85 709.56C2002.52 710.84 2002.85 712.32 2002.85 714C2002.85 715.92 2002.4 717.68 2001.49 719.28C2000.61 720.88 1999.41 722.147 1997.89 723.08C1996.37 724.013 1994.7 724.48 1992.89 724.48C1991.77 724.48 1990.62 724.4 1989.45 724.24C1988.3 724.107 1987.73 724.027 1987.73 724L1987.37 723.68V698.96ZM1990.09 721.44C1990.57 721.68 1991.18 721.88 1991.93 722.04C1992.68 722.2 1993.37 722.28 1994.01 722.28C1995.8 722.28 1997.2 721.68 1998.21 720.48C1999.25 719.253 1999.77 717.587 1999.77 715.48C1999.77 714.147 1999.53 712.92 1999.05 711.8C1998.6 710.68 1997.96 709.8 1997.13 709.16C1996.33 708.493 1995.45 708.16 1994.49 708.16C1993.96 708.16 1993.28 708.373 1992.45 708.8C1991.62 709.2 1990.88 709.707 1990.21 710.32L1990.09 721.44ZM2008.72 714.32C2008.72 716.56 2009.25 718.36 2010.32 719.72C2011.41 721.08 2012.85 721.76 2014.64 721.76C2015.39 721.76 2016.12 721.667 2016.84 721.48C2017.56 721.293 2018.16 721.107 2018.64 720.92C2019.12 720.707 2019.43 720.573 2019.56 720.52L2019.8 720.6L2020.24 721.76C2020.05 721.893 2019.61 722.187 2018.92 722.64C2018.25 723.067 2017.47 723.48 2016.56 723.88C2015.65 724.28 2014.84 724.48 2014.12 724.48C2012.47 724.48 2011 724.12 2009.72 723.4C2008.44 722.653 2007.45 721.613 2006.76 720.28C2006.07 718.92 2005.72 717.373 2005.72 715.64C2005.72 713.853 2006.12 712.173 2006.92 710.6C2007.75 709.027 2008.84 707.773 2010.2 706.84C2011.56 705.907 2013.01 705.44 2014.56 705.44C2016.51 705.44 2017.99 705.933 2019 706.92C2020.01 707.907 2020.52 709.347 2020.52 711.24C2020.52 711.667 2020.48 712.08 2020.4 712.48C2020.35 712.853 2020.31 713.093 2020.28 713.2L2019.76 713.68H2008.72V714.32ZM2016.12 711.84C2016.52 711.787 2016.79 711.693 2016.92 711.56C2017.05 711.427 2017.12 711.16 2017.12 710.76C2017.12 709.693 2016.83 708.88 2016.24 708.32C2015.68 707.76 2014.87 707.48 2013.8 707.48C2012.55 707.48 2011.47 707.907 2010.56 708.76C2009.68 709.613 2009.12 710.76 2008.88 712.2L2016.12 711.84ZM2025.49 709.8C2025.49 709.08 2025.33 708.573 2025.01 708.28C2024.69 707.987 2024.09 707.827 2023.21 707.8L2023.05 707.56L2023.25 706.36C2024.02 705.987 2024.77 705.533 2025.49 705C2026.24 704.44 2026.84 703.96 2027.29 703.56C2027.77 703.133 2028.08 702.853 2028.21 702.72L2029.01 703.04C2028.98 703.173 2028.94 703.493 2028.89 704C2028.84 704.507 2028.77 705.187 2028.69 706.04L2034.57 705.92L2034.69 706.04L2034.33 708.16L2028.53 708.04C2028.34 710.973 2028.25 714.307 2028.25 718.04C2028.25 719.4 2028.48 720.36 2028.93 720.92C2029.41 721.48 2030.22 721.76 2031.37 721.76C2031.77 721.76 2032.17 721.707 2032.57 721.6C2032.97 721.493 2033.3 721.387 2033.57 721.28C2033.84 721.147 2034.01 721.067 2034.09 721.04L2034.49 722.08C2034.33 722.213 2033.98 722.467 2033.45 722.84C2032.94 723.213 2032.38 723.587 2031.77 723.96C2031.18 724.307 2030.74 724.48 2030.45 724.48C2028.64 724.48 2027.36 724.12 2026.61 723.4C2025.86 722.653 2025.49 721.4 2025.49 719.64V709.8ZM2038.69 709.8C2038.69 709.08 2038.53 708.573 2038.21 708.28C2037.89 707.987 2037.29 707.827 2036.41 707.8L2036.25 707.56L2036.45 706.36C2037.23 705.987 2037.97 705.533 2038.69 705C2039.44 704.44 2040.04 703.96 2040.49 703.56C2040.97 703.133 2041.28 702.853 2041.41 702.72L2042.21 703.04C2042.19 703.173 2042.15 703.493 2042.09 704C2042.04 704.507 2041.97 705.187 2041.89 706.04L2047.77 705.92L2047.89 706.04L2047.53 708.16L2041.73 708.04C2041.55 710.973 2041.45 714.307 2041.45 718.04C2041.45 719.4 2041.68 720.36 2042.13 720.92C2042.61 721.48 2043.43 721.76 2044.57 721.76C2044.97 721.76 2045.37 721.707 2045.77 721.6C2046.17 721.493 2046.51 721.387 2046.77 721.28C2047.04 721.147 2047.21 721.067 2047.29 721.04L2047.69 722.08C2047.53 722.213 2047.19 722.467 2046.65 722.84C2046.15 723.213 2045.59 723.587 2044.97 723.96C2044.39 724.307 2043.95 724.48 2043.65 724.48C2041.84 724.48 2040.56 724.12 2039.81 723.4C2039.07 722.653 2038.69 721.4 2038.69 719.64V709.8ZM2052.67 714.32C2052.67 716.56 2053.2 718.36 2054.27 719.72C2055.36 721.08 2056.8 721.76 2058.59 721.76C2059.33 721.76 2060.07 721.667 2060.79 721.48C2061.51 721.293 2062.11 721.107 2062.59 720.92C2063.07 720.707 2063.37 720.573 2063.51 720.52L2063.75 720.6L2064.19 721.76C2064 721.893 2063.56 722.187 2062.87 722.64C2062.2 723.067 2061.41 723.48 2060.51 723.88C2059.6 724.28 2058.79 724.48 2058.07 724.48C2056.41 724.48 2054.95 724.12 2053.67 723.4C2052.39 722.653 2051.4 721.613 2050.71 720.28C2050.01 718.92 2049.67 717.373 2049.67 715.64C2049.67 713.853 2050.07 712.173 2050.87 710.6C2051.69 709.027 2052.79 707.773 2054.15 706.84C2055.51 705.907 2056.96 705.44 2058.51 705.44C2060.45 705.44 2061.93 705.933 2062.95 706.92C2063.96 707.907 2064.47 709.347 2064.47 711.24C2064.47 711.667 2064.43 712.08 2064.35 712.48C2064.29 712.853 2064.25 713.093 2064.23 713.2L2063.71 713.68H2052.67V714.32ZM2060.07 711.84C2060.47 711.787 2060.73 711.693 2060.87 711.56C2061 711.427 2061.07 711.16 2061.07 710.76C2061.07 709.693 2060.77 708.88 2060.19 708.32C2059.63 707.76 2058.81 707.48 2057.75 707.48C2056.49 707.48 2055.41 707.907 2054.51 708.76C2053.63 709.613 2053.07 710.76 2052.83 712.2L2060.07 711.84ZM2068.52 722.56C2069.32 722.48 2069.85 722.227 2070.12 721.8C2070.38 721.347 2070.52 720.493 2070.52 719.24V710.44C2070.52 709.56 2070.4 708.933 2070.16 708.56C2069.92 708.187 2069.53 708 2069 708C2068.78 708 2068.6 708.013 2068.44 708.04C2068.3 708.067 2068.21 708.093 2068.16 708.12L2067.96 707.84L2068.08 706.6C2069.09 706.413 2070.16 706.187 2071.28 705.92C2072.42 705.653 2073.16 705.48 2073.48 705.4L2073.76 705.64C2073.7 705.88 2073.62 706.44 2073.52 707.32C2073.41 708.173 2073.37 708.987 2073.4 709.76L2073.56 709.88C2074.36 708.627 2075.29 707.6 2076.36 706.8C2077.45 706 2078.4 705.6 2079.2 705.6C2079.57 705.6 2079.85 705.627 2080.04 705.68C2080.25 705.707 2080.38 705.733 2080.44 705.76L2080.56 705.92C2080.5 706.293 2080.38 707.093 2080.2 708.32C2080.04 709.52 2079.94 710.627 2079.92 711.64L2078.36 711.76C2078.36 710.667 2078.28 709.947 2078.12 709.6C2077.98 709.227 2077.7 709.04 2077.28 709.04C2076.69 709.04 2076.06 709.293 2075.4 709.8C2074.73 710.28 2074.12 710.933 2073.56 711.76C2073.53 712.533 2073.48 713.813 2073.4 715.6C2073.32 717.387 2073.26 718.827 2073.24 719.92C2073.24 720.827 2073.37 721.44 2073.64 721.76C2073.9 722.08 2074.41 722.24 2075.16 722.24C2075.5 722.24 2075.85 722.227 2076.2 722.2C2076.54 722.173 2076.78 722.16 2076.92 722.16L2076.96 722.32L2076.6 724.08C2076.33 724.08 2075.8 724.067 2075 724.04C2074.2 724.013 2073.37 724 2072.52 724C2071.53 724 2070.64 724.013 2069.84 724.04C2069.04 724.093 2068.53 724.133 2068.32 724.16L2068.52 722.56ZM2092.83 709.8C2092.83 709.08 2092.67 708.573 2092.35 708.28C2092.03 707.987 2091.43 707.827 2090.55 707.8L2090.39 707.56L2090.59 706.36C2091.37 705.987 2092.11 705.533 2092.83 705C2093.58 704.44 2094.18 703.96 2094.63 703.56C2095.11 703.133 2095.42 702.853 2095.55 702.72L2096.35 703.04C2096.33 703.173 2096.29 703.493 2096.23 704C2096.18 704.507 2096.11 705.187 2096.03 706.04L2101.91 705.92L2102.03 706.04L2101.67 708.16L2095.87 708.04C2095.69 710.973 2095.59 714.307 2095.59 718.04C2095.59 719.4 2095.82 720.36 2096.27 720.92C2096.75 721.48 2097.57 721.76 2098.71 721.76C2099.11 721.76 2099.51 721.707 2099.91 721.6C2100.31 721.493 2100.65 721.387 2100.91 721.28C2101.18 721.147 2101.35 721.067 2101.43 721.04L2101.83 722.08C2101.67 722.213 2101.33 722.467 2100.79 722.84C2100.29 723.213 2099.73 723.587 2099.11 723.96C2098.53 724.307 2098.09 724.48 2097.79 724.48C2095.98 724.48 2094.7 724.12 2093.95 723.4C2093.21 722.653 2092.83 721.4 2092.83 719.64V709.8ZM2104.16 722.44C2104.93 722.36 2105.46 722.16 2105.76 721.84C2106.08 721.52 2106.24 720.987 2106.24 720.24V698.96C2106.24 698.24 2106.12 697.72 2105.88 697.4C2105.64 697.053 2105.26 696.88 2104.76 696.88H2103.92L2103.76 696.76L2103.92 695.48C2105.06 695.32 2106.25 695.107 2107.48 694.84C2108.7 694.573 2109.49 694.4 2109.84 694.32L2110.08 694.84C2109.89 695.133 2109.7 696.547 2109.52 699.08C2109.36 701.587 2109.22 704.747 2109.12 708.56C2112.16 706.48 2114.16 705.44 2115.12 705.44C2116.85 705.44 2118.2 705.893 2119.16 706.8C2120.12 707.707 2120.6 708.973 2120.6 710.6C2120.6 711.133 2120.5 712.36 2120.32 714.28C2120.08 717.4 2119.96 719.333 2119.96 720.08C2119.96 720.853 2120.06 721.427 2120.28 721.8C2120.49 722.147 2120.85 722.32 2121.36 722.32C2121.65 722.32 2121.93 722.307 2122.2 722.28C2122.46 722.253 2122.65 722.24 2122.76 722.24L2122.84 722.4L2122.52 724.12C2122.28 724.093 2121.82 724.067 2121.16 724.04C2120.49 724.013 2119.76 724 2118.96 724C2118.26 724 2117.46 724.067 2116.56 724.2C2115.68 724.333 2115.1 724.427 2114.84 724.48L2115 722.84C2115.8 722.627 2116.37 722.32 2116.72 721.92C2117.06 721.493 2117.24 720.933 2117.24 720.24L2117.48 712.32C2117.48 710.987 2117.18 709.96 2116.6 709.24C2116.04 708.52 2115.22 708.16 2114.16 708.16C2113.25 708.16 2112.32 708.413 2111.36 708.92C2110.42 709.4 2109.66 709.88 2109.08 710.36C2109 713.427 2108.96 716.667 2108.96 720.08C2108.96 720.907 2109.06 721.493 2109.28 721.84C2109.49 722.16 2109.86 722.32 2110.4 722.32C2110.69 722.32 2110.97 722.307 2111.24 722.28C2111.5 722.253 2111.69 722.24 2111.8 722.24L2111.88 722.4L2111.52 724.12C2111.28 724.093 2110.81 724.067 2110.12 724.04C2109.42 724.013 2108.68 724 2107.88 724C2107 724 2106.18 724.013 2105.44 724.04C2104.69 724.067 2104.18 724.08 2103.92 724.08L2104.16 722.44ZM2128.57 714.32C2128.57 716.56 2129.1 718.36 2130.17 719.72C2131.26 721.08 2132.7 721.76 2134.49 721.76C2135.23 721.76 2135.97 721.667 2136.69 721.48C2137.41 721.293 2138.01 721.107 2138.49 720.92C2138.97 720.707 2139.27 720.573 2139.41 720.52L2139.65 720.6L2140.09 721.76C2139.9 721.893 2139.46 722.187 2138.77 722.64C2138.1 723.067 2137.31 723.48 2136.41 723.88C2135.5 724.28 2134.69 724.48 2133.97 724.48C2132.31 724.48 2130.85 724.12 2129.57 723.4C2128.29 722.653 2127.3 721.613 2126.61 720.28C2125.91 718.92 2125.57 717.373 2125.57 715.64C2125.57 713.853 2125.97 712.173 2126.76 710.6C2127.59 709.027 2128.69 707.773 2130.05 706.84C2131.41 705.907 2132.86 705.44 2134.4 705.44C2136.35 705.44 2137.83 705.933 2138.85 706.92C2139.86 707.907 2140.37 709.347 2140.37 711.24C2140.37 711.667 2140.33 712.08 2140.25 712.48C2140.19 712.853 2140.15 713.093 2140.13 713.2L2139.61 713.68H2128.57V714.32ZM2135.97 711.84C2136.37 711.787 2136.63 711.693 2136.77 711.56C2136.9 711.427 2136.97 711.16 2136.97 710.76C2136.97 709.693 2136.67 708.88 2136.09 708.32C2135.53 707.76 2134.71 707.48 2133.65 707.48C2132.39 707.48 2131.31 707.907 2130.41 708.76C2129.53 709.613 2128.97 710.76 2128.73 712.2L2135.97 711.84ZM2156.98 724.48C2156.13 724.48 2155.34 724.413 2154.62 724.28C2153.93 724.173 2153.38 724.053 2152.98 723.92C2152.58 723.787 2152.33 723.693 2152.22 723.64L2152.1 723.36C2152.18 722.96 2152.27 722.133 2152.38 720.88C2152.49 719.627 2152.55 718.667 2152.58 718L2153.98 717.8C2153.98 719.56 2154.27 720.8 2154.86 721.52C2155.45 722.24 2156.45 722.6 2157.86 722.6C2158.87 722.6 2159.73 722.373 2160.42 721.92C2161.11 721.467 2161.46 720.907 2161.46 720.24C2161.46 719.573 2161.14 718.973 2160.5 718.44C2159.89 717.88 2158.66 717.107 2156.82 716.12C2155.3 715.347 2154.19 714.573 2153.5 713.8C2152.81 713 2152.46 712.12 2152.46 711.16C2152.46 710.093 2152.78 709.12 2153.42 708.24C2154.06 707.36 2154.94 706.68 2156.06 706.2C2157.18 705.693 2158.43 705.44 2159.82 705.44C2160.46 705.44 2161.07 705.493 2161.66 705.6C2162.25 705.68 2162.73 705.773 2163.1 705.88C2163.47 705.987 2163.71 706.053 2163.82 706.08L2163.9 706.28C2163.85 706.547 2163.73 707.16 2163.54 708.12C2163.35 709.053 2163.22 710.067 2163.14 711.16L2161.66 711.28C2161.66 711.2 2161.67 711.04 2161.7 710.8C2161.73 710.56 2161.74 710.333 2161.74 710.12C2161.74 709.16 2161.47 708.467 2160.94 708.04C2160.43 707.587 2159.61 707.36 2158.46 707.36C2157.55 707.36 2156.78 707.573 2156.14 708C2155.53 708.427 2155.22 708.947 2155.22 709.56C2155.22 710.2 2155.49 710.8 2156.02 711.36C2156.58 711.92 2157.47 712.52 2158.7 713.16C2160.86 714.307 2162.33 715.267 2163.1 716.04C2163.9 716.813 2164.3 717.707 2164.3 718.72C2164.3 719.733 2163.95 720.68 2163.26 721.56C2162.59 722.44 2161.7 723.147 2160.58 723.68C2159.46 724.213 2158.26 724.48 2156.98 724.48ZM2175.43 724.48C2173.91 724.48 2172.57 724.107 2171.39 723.36C2170.22 722.613 2169.3 721.573 2168.63 720.24C2167.99 718.88 2167.67 717.333 2167.67 715.6C2167.67 713.733 2168.07 712.027 2168.87 710.48C2169.7 708.907 2170.82 707.68 2172.23 706.8C2173.65 705.893 2175.22 705.44 2176.95 705.44C2178.45 705.44 2179.78 705.813 2180.95 706.56C2182.15 707.307 2183.07 708.36 2183.71 709.72C2184.38 711.053 2184.71 712.587 2184.71 714.32C2184.71 716.187 2184.3 717.907 2183.47 719.48C2182.67 721.027 2181.57 722.253 2180.15 723.16C2178.74 724.04 2177.17 724.48 2175.43 724.48ZM2176.55 722.52C2178.05 722.52 2179.23 721.92 2180.11 720.72C2180.99 719.493 2181.43 717.84 2181.43 715.76C2181.43 714.187 2181.19 712.787 2180.71 711.56C2180.23 710.307 2179.55 709.333 2178.67 708.64C2177.82 707.947 2176.85 707.6 2175.75 707.6C2174.26 707.6 2173.07 708.213 2172.19 709.44C2171.31 710.667 2170.87 712.333 2170.87 714.44C2170.87 716.013 2171.11 717.413 2171.59 718.64C2172.07 719.867 2172.74 720.827 2173.59 721.52C2174.45 722.187 2175.43 722.52 2176.55 722.52ZM2201.44 721.8C2201.25 721.933 2200.84 722.213 2200.2 722.64C2199.58 723.067 2198.86 723.48 2198.04 723.88C2197.24 724.28 2196.54 724.48 2195.96 724.48C2193.42 724.48 2191.4 723.68 2189.88 722.08C2188.36 720.48 2187.6 718.333 2187.6 715.64C2187.6 713.747 2188 712.027 2188.8 710.48C2189.62 708.907 2190.73 707.68 2192.12 706.8C2193.53 705.893 2195.1 705.44 2196.84 705.44C2197.58 705.44 2198.3 705.493 2199 705.6C2199.69 705.707 2200.25 705.827 2200.68 705.96C2201.13 706.067 2201.41 706.147 2201.52 706.2L2201.64 706.48C2201.61 706.613 2201.53 706.933 2201.4 707.44C2201.29 707.92 2201.17 708.573 2201.04 709.4C2200.9 710.2 2200.82 711.067 2200.8 712L2199.16 712.12V710.88C2199.16 709.893 2198.85 709.107 2198.24 708.52C2197.65 707.907 2196.86 707.6 2195.88 707.6C2194.25 707.6 2193 708.187 2192.12 709.36C2191.24 710.507 2190.8 712.147 2190.8 714.28C2190.8 716.6 2191.28 718.44 2192.24 719.8C2193.22 721.133 2194.56 721.8 2196.24 721.8C2196.9 721.8 2197.57 721.707 2198.24 721.52C2198.9 721.307 2199.46 721.107 2199.92 720.92C2200.37 720.707 2200.65 720.56 2200.76 720.48L2201 720.56L2201.44 721.8ZM2208.43 699.92C2207.84 699.92 2207.36 699.733 2206.99 699.36C2206.64 698.987 2206.47 698.493 2206.47 697.88C2206.47 697.213 2206.7 696.653 2207.15 696.2C2207.6 695.747 2208.16 695.52 2208.83 695.52C2209.39 695.52 2209.86 695.72 2210.23 696.12C2210.6 696.493 2210.79 696.973 2210.79 697.56C2210.79 698.227 2210.56 698.787 2210.11 699.24C2209.66 699.693 2209.1 699.92 2208.43 699.92ZM2205.03 722.84C2205.83 722.627 2206.4 722.32 2206.75 721.92C2207.1 721.493 2207.27 720.933 2207.27 720.24V710.08C2207.27 708.64 2206.78 707.92 2205.79 707.92C2205.6 707.92 2205.4 707.947 2205.19 708C2204.98 708.027 2204.84 708.053 2204.79 708.08L2204.95 706.6C2206.07 706.44 2207.22 706.227 2208.39 705.96C2209.59 705.693 2210.36 705.52 2210.71 705.44L2210.91 705.92C2210.67 706.48 2210.46 708.2 2210.27 711.08C2210.08 713.933 2209.99 716.933 2209.99 720.08C2209.99 720.853 2210.1 721.427 2210.31 721.8C2210.52 722.147 2210.88 722.32 2211.39 722.32C2211.68 722.32 2211.96 722.307 2212.23 722.28C2212.5 722.253 2212.68 722.24 2212.79 722.24L2212.87 722.4L2212.55 724.12C2212.31 724.093 2211.86 724.067 2211.19 724.04C2210.52 724.013 2209.79 724 2208.99 724C2208.3 724 2207.5 724.067 2206.59 724.2C2205.71 724.333 2205.14 724.427 2204.87 724.48L2205.03 722.84ZM2218.84 714.32C2218.84 716.56 2219.37 718.36 2220.44 719.72C2221.53 721.08 2222.97 721.76 2224.76 721.76C2225.51 721.76 2226.24 721.667 2226.96 721.48C2227.68 721.293 2228.28 721.107 2228.76 720.92C2229.24 720.707 2229.55 720.573 2229.68 720.52L2229.92 720.6L2230.36 721.76C2230.17 721.893 2229.73 722.187 2229.04 722.64C2228.37 723.067 2227.59 723.48 2226.68 723.88C2225.77 724.28 2224.96 724.48 2224.24 724.48C2222.59 724.48 2221.12 724.12 2219.84 723.4C2218.56 722.653 2217.57 721.613 2216.88 720.28C2216.19 718.92 2215.84 717.373 2215.84 715.64C2215.84 713.853 2216.24 712.173 2217.04 710.6C2217.87 709.027 2218.96 707.773 2220.32 706.84C2221.68 705.907 2223.13 705.44 2224.68 705.44C2226.63 705.44 2228.11 705.933 2229.12 706.92C2230.13 707.907 2230.64 709.347 2230.64 711.24C2230.64 711.667 2230.6 712.08 2230.52 712.48C2230.47 712.853 2230.43 713.093 2230.4 713.2L2229.88 713.68H2218.84V714.32ZM2226.24 711.84C2226.64 711.787 2226.91 711.693 2227.04 711.56C2227.17 711.427 2227.24 711.16 2227.24 710.76C2227.24 709.693 2226.95 708.88 2226.36 708.32C2225.8 707.76 2224.99 707.48 2223.92 707.48C2222.67 707.48 2221.59 707.907 2220.68 708.76C2219.8 709.613 2219.24 710.76 2219 712.2L2226.24 711.84ZM2235.61 709.8C2235.61 709.08 2235.45 708.573 2235.13 708.28C2234.81 707.987 2234.21 707.827 2233.33 707.8L2233.17 707.56L2233.37 706.36C2234.14 705.987 2234.89 705.533 2235.61 705C2236.35 704.44 2236.95 703.96 2237.41 703.56C2237.89 703.133 2238.19 702.853 2238.33 702.72L2239.13 703.04C2239.1 703.173 2239.06 703.493 2239.01 704C2238.95 704.507 2238.89 705.187 2238.81 706.04L2244.69 705.92L2244.81 706.04L2244.45 708.16L2238.65 708.04C2238.46 710.973 2238.37 714.307 2238.37 718.04C2238.37 719.4 2238.59 720.36 2239.05 720.92C2239.53 721.48 2240.34 721.76 2241.49 721.76C2241.89 721.76 2242.29 721.707 2242.69 721.6C2243.09 721.493 2243.42 721.387 2243.69 721.28C2243.95 721.147 2244.13 721.067 2244.21 721.04L2244.61 722.08C2244.45 722.213 2244.1 722.467 2243.57 722.84C2243.06 723.213 2242.5 723.587 2241.89 723.96C2241.3 724.307 2240.86 724.48 2240.57 724.48C2238.75 724.48 2237.47 724.12 2236.73 723.4C2235.98 722.653 2235.61 721.4 2235.61 719.64V709.8ZM2254.73 720.36C2257.85 712.893 2259.41 708.867 2259.41 708.28C2259.41 707.587 2258.9 707.24 2257.89 707.24H2256.05L2255.97 707.08L2256.21 705.76C2256.45 705.787 2256.97 705.827 2257.77 705.88C2258.6 705.907 2259.42 705.92 2260.25 705.92L2263.65 705.88L2263.37 707.36C2262.78 707.467 2262.33 707.68 2262.01 708C2261.72 708.293 2261.42 708.84 2261.13 709.64L2255.97 721.8C2254.45 725.267 2253.26 727.787 2252.41 729.36C2251.58 730.933 2250.76 732.04 2249.93 732.68C2249.13 733.347 2248.14 733.667 2246.97 733.64C2246.76 733.64 2246.41 733.32 2245.93 732.68C2245.45 732.067 2245.21 731.627 2245.21 731.36L2245.41 731.08C2246.96 731.08 2248.41 730.453 2249.77 729.2C2251.16 727.973 2252.3 726.253 2253.21 724.04C2252.57 722.013 2251.72 719.507 2250.65 716.52C2249.61 713.533 2248.72 711.12 2247.97 709.28C2247.65 708.613 2247.28 708.133 2246.85 707.84C2246.45 707.547 2245.92 707.387 2245.25 707.36L2245.17 707.2L2245.41 705.88L2248.73 705.92C2249.72 705.92 2250.69 705.88 2251.65 705.8C2252.64 705.72 2253.26 705.667 2253.53 705.64L2253.61 705.84L2253.37 707.08C2252.46 707.107 2251.84 707.2 2251.49 707.36C2251.17 707.493 2251.01 707.747 2251.01 708.12C2251.01 708.547 2251.28 709.667 2251.81 711.48C2252.34 713.293 2252.89 715.093 2253.45 716.88C2254.01 718.667 2254.38 719.827 2254.57 720.36H2254.73Z" fill="black"/>
</g>
<defs>
<clipPath id="clip0">
<rect width="2556" height="1109" fill="white"/>
</clipPath>
<clipPath id="clip1">
<rect width="1192" height="862.074" fill="white" transform="translate(114 172.198)"/>
</clipPath>
</defs>
</svg>
