<svg width="1440" height="1024" viewBox="0 0 1440 1024" fill="none" xmlns="http://www.w3.org/2000/svg">
<g clip-path="url(#clip0)">
<rect width="1440" height="1024" fill="white"/>
<path d="M253.163 784.468C295.269 784.468 329.403 752.392 329.403 712.823C329.403 673.254 295.269 641.177 253.163 641.177C211.056 641.177 176.922 673.254 176.922 712.823C176.922 752.392 211.056 784.468 253.163 784.468Z" fill="#FFBA55"/>
<path d="M232.564 817.444L251.318 828.365V754.544L230.297 742.303C228.559 741.291 227.289 739.703 226.739 737.852V737.852C228.747 737.492 230.826 737.853 232.564 738.865L251.318 749.786V721.161C251.318 715.623 252.041 710.106 253.47 704.734C254.899 710.106 255.622 715.623 255.622 721.161V767.883L283.29 751.772C285.499 750.485 288.055 749.822 290.654 749.862C289.535 752.067 287.766 753.923 285.557 755.21L255.622 772.641V947.222H251.318V833.123L230.297 820.882C228.559 819.87 227.289 818.282 226.739 816.431V816.431C228.747 816.071 230.826 816.432 232.564 817.444Z" fill="#9A490F"/>
<path d="M140.24 790.551C182.347 790.551 216.481 758.475 216.481 718.906C216.481 679.337 182.347 647.26 140.24 647.26C98.134 647.26 64 679.337 64 718.906C64 758.475 98.134 790.551 140.24 790.551Z" fill="#FFBA55"/>
<path d="M160.839 823.527L142.085 834.448V760.628L163.106 748.386C164.844 747.374 166.114 745.786 166.664 743.935V743.935C164.656 743.575 162.577 743.937 160.839 744.949L142.085 755.869V727.244C142.085 721.706 141.362 716.189 139.933 710.817C138.504 716.189 137.781 721.706 137.781 727.244V773.966L110.114 757.855C107.904 756.568 105.348 755.906 102.75 755.946C103.868 758.15 105.637 760.006 107.847 761.293L137.781 778.724V947.607H142.085V839.207L163.106 826.965C164.844 825.953 166.114 824.365 166.664 822.514V822.514C164.656 822.154 162.577 822.515 160.839 823.527V823.527Z" fill="#9A490F"/>
<path d="M195.623 692.711C268.119 692.711 326.889 637.483 326.889 569.355C326.889 501.228 268.119 446 195.623 446C123.126 446 64.3559 501.228 64.3559 569.355C64.3559 637.483 123.126 692.711 195.623 692.711Z" fill="#FFBA55"/>
<path d="M231.088 749.487L198.798 768.29V641.189L234.991 620.114C237.984 618.371 240.17 615.636 241.118 612.45L241.118 612.45H241.118C237.66 611.829 234.081 612.452 231.088 614.194L198.799 632.997V583.711C198.798 574.177 197.554 564.678 195.093 555.428C192.633 564.678 191.388 574.177 191.388 583.711V664.155L143.752 636.415C139.948 634.2 135.547 633.059 131.073 633.128C132.999 636.924 136.045 640.12 139.849 642.335L191.388 672.347V947.878H198.798V776.483L234.991 755.407C237.984 753.664 240.17 750.929 241.118 747.743L241.118 747.743H241.118C237.66 747.122 234.08 747.745 231.088 749.487V749.487Z" fill="#9A490F"/>
<path d="M736 947.222H116.353V948.696H736V947.222Z" fill="#3F3D56"/>
<path d="M576.417 668.553L545.663 685.238L563.419 714.139L594.173 697.453L576.417 668.553Z" fill="#FF6584"/>
<path d="M576.807 720.162L558.267 689.985L590.38 672.562L608.92 702.74L576.807 720.162ZM560.41 690.525L577.382 718.148L606.777 702.2L589.805 674.576L560.41 690.525Z" fill="#2F2E41"/>
<path d="M548.037 801.255C556.268 801.255 562.94 794.984 562.94 787.25C562.94 779.515 556.268 773.245 548.037 773.245C539.806 773.245 533.134 779.515 533.134 787.25C533.134 794.984 539.806 801.255 548.037 801.255Z" fill="#D0CDE1"/>
<path d="M559.018 801.992C555.915 801.992 552.882 801.127 550.303 799.507C547.723 797.887 545.712 795.585 544.525 792.891C543.338 790.198 543.027 787.233 543.632 784.374C544.238 781.514 545.732 778.887 547.926 776.826C550.119 774.764 552.915 773.36 555.958 772.791C559.001 772.222 562.155 772.514 565.021 773.63C567.888 774.746 570.338 776.635 572.062 779.06C573.785 781.484 574.705 784.334 574.705 787.25C574.705 791.16 573.052 794.909 570.111 797.674C567.169 800.438 563.179 801.992 559.018 801.992V801.992ZM559.018 773.982C556.226 773.982 553.496 774.76 551.174 776.218C548.852 777.676 547.043 779.748 545.974 782.173C544.906 784.597 544.626 787.265 545.171 789.838C545.716 792.412 547.06 794.776 549.035 796.631C551.009 798.487 553.525 799.751 556.264 800.263C559.002 800.774 561.841 800.512 564.421 799.508C567.001 798.503 569.206 796.803 570.757 794.621C572.309 792.439 573.137 789.874 573.137 787.25C573.137 783.731 571.649 780.356 569.001 777.868C566.354 775.38 562.763 773.982 559.018 773.982V773.982Z" fill="#2F2E41"/>
<path d="M642.052 950.575H497.729C495.962 950.573 494.267 949.912 493.017 948.737C491.767 947.563 491.064 945.97 491.062 944.309V818.267C491.064 816.606 491.767 815.013 493.017 813.839C494.267 812.664 495.962 812.003 497.729 812.002H642.052C643.82 812.003 645.514 812.664 646.764 813.839C648.014 815.013 648.717 816.606 648.719 818.267V944.309C648.717 945.97 648.014 947.563 646.764 948.737C645.514 949.912 643.82 950.573 642.052 950.575V950.575Z" fill="#FFA563"/>
<path d="M580.086 955H559.693C557.925 954.998 556.231 954.337 554.981 953.163C553.731 951.988 553.028 950.396 553.026 948.735V814.522C553.028 812.861 553.731 811.269 554.981 810.094C556.231 808.92 557.925 808.259 559.693 808.257H580.086C581.854 808.259 583.549 808.92 584.799 810.094C586.048 811.269 586.752 812.861 586.754 814.522V948.735C586.752 950.396 586.048 951.988 584.799 953.163C583.549 954.337 581.854 954.998 580.086 955V955Z" fill="#3F3D56"/>
<path d="M680.397 799.525C679.554 812.527 660.863 822.037 660.863 822.037C660.863 822.037 643.54 810.465 644.383 797.462C645.226 784.46 663.917 774.95 663.917 774.95C663.917 774.95 681.24 786.522 680.397 799.525Z" fill="#3F3D56"/>
<path d="M681.244 840.093C667.404 839.342 657.227 821.807 657.227 821.807C657.227 821.807 669.487 805.492 683.326 806.244C697.165 806.995 707.342 824.53 707.342 824.53C707.342 824.53 695.083 840.845 681.244 840.093Z" fill="#3F3D56"/>
<path opacity="0.1" d="M648.327 827.422V875.539L597.398 812.37H636.193L648.327 827.422Z" fill="black"/>
<path d="M691.563 909.788C690.532 909.79 689.515 909.567 688.592 909.137C687.668 908.707 686.864 908.081 686.241 907.309L580.137 775.708C579.608 775.052 579.222 774.305 579.001 773.509C578.779 772.713 578.727 771.883 578.846 771.068C578.966 770.253 579.255 769.468 579.697 768.758C580.14 768.048 580.727 767.427 581.425 766.93L597.054 755.802C597.752 755.305 598.547 754.942 599.394 754.734C600.242 754.526 601.124 754.477 601.991 754.589C602.859 754.702 603.694 754.973 604.449 755.389C605.205 755.805 605.866 756.357 606.394 757.013L712.499 888.613C713.027 889.269 713.414 890.016 713.635 890.812C713.856 891.608 713.909 892.437 713.789 893.252C713.67 894.067 713.381 894.852 712.938 895.562C712.496 896.272 711.909 896.893 711.211 897.39L695.581 908.519C694.426 909.343 693.014 909.789 691.563 909.788V909.788Z" fill="#FFA563"/>
<path d="M649.092 807.528L622.209 826.669L642.577 851.932L669.46 832.791L649.092 807.528Z" fill="#3F3D56"/>
<path d="M510.802 711.259L501.611 743.494L535.912 752.131L545.103 719.897L510.802 711.259Z" fill="#D0CDE1"/>
<path d="M521.361 756.95L485.545 747.931L495.142 714.273L530.958 723.291L521.361 756.95ZM487.466 746.889L520.252 755.145L529.037 724.334L496.251 716.078L487.466 746.889Z" fill="#2F2E41"/>
<path d="M370.489 835.183C371.432 834.335 372.165 833.303 372.637 832.159C373.109 831.016 373.308 829.789 373.221 828.565C373.134 827.341 372.762 826.15 372.132 825.076C371.502 824.002 370.63 823.07 369.575 822.347L355.171 713.236L336.561 718.436L356.653 824.62C355.478 826.365 355.025 828.454 355.379 830.492C355.734 832.53 356.872 834.375 358.578 835.677C360.283 836.979 362.438 837.648 364.633 837.557C366.829 837.466 368.912 836.622 370.489 835.183Z" fill="#FFB8B8"/>
<path d="M387.74 939.474H398.624L403.805 900.021H387.74V939.474Z" fill="#FFB8B8"/>
<path d="M419.616 948.972H385.408V936.552H407.608C410.793 936.552 413.847 937.741 416.099 939.857C418.351 941.973 419.616 944.843 419.616 947.836V948.972V948.972Z" fill="#2F2E41"/>
<path d="M312.47 923.543L322.672 927.109L342.163 891.828L327.107 886.564L312.47 923.543Z" fill="#FFB8B8"/>
<path d="M338.823 942.888L306.76 931.68L311.368 920.039L332.176 927.313C335.161 928.356 337.583 930.471 338.908 933.192C340.234 935.913 340.355 939.018 339.244 941.823L338.823 942.888L338.823 942.888Z" fill="#2F2E41"/>
<path d="M368.214 684.911C379.58 684.911 388.794 676.252 388.794 665.57C388.794 654.889 379.58 646.23 368.214 646.23C356.847 646.23 347.633 654.889 347.633 665.57C347.633 676.252 356.847 684.911 368.214 684.911Z" fill="#FFB8B8"/>
<path d="M336.023 715.207C335.378 697.393 355.302 685.035 372.064 693.376C374.2 694.439 396.252 712.045 397.083 722.978C397.914 733.912 399.576 751.874 399.576 751.874L422.846 915.098L372.983 912.755L379.005 865.14L346.593 913.56L307.329 901.821L355.53 771.399C355.53 771.399 336.999 742.204 336.023 715.207Z" fill="#2F2E41"/>
<path d="M336.415 721.409L339.617 760.526C339.651 760.934 339.847 761.316 340.167 761.594C340.487 761.872 340.907 762.027 341.342 762.027H355.431C355.716 762.027 355.996 761.961 356.247 761.835C356.498 761.709 356.712 761.526 356.87 761.304C357.028 761.081 357.125 760.825 357.153 760.559C357.181 760.293 357.138 760.024 357.029 759.777L339.739 720.661C339.581 720.304 339.292 720.011 338.926 719.835C338.559 719.66 338.138 719.613 337.737 719.703C337.337 719.793 336.984 720.015 336.742 720.327C336.499 720.64 336.384 721.024 336.415 721.409V721.409Z" fill="#2F2E41"/>
<path d="M408.766 828.406C409.596 827.459 410.195 826.354 410.522 825.166C410.848 823.978 410.893 822.738 410.654 821.532C410.416 820.326 409.898 819.185 409.139 818.187C408.379 817.189 407.397 816.36 406.259 815.758L378.366 708.981L360.532 716.191L393.708 819.436C392.759 821.299 392.569 823.424 393.176 825.408C393.782 827.393 395.142 829.1 396.998 830.206C398.854 831.311 401.077 831.739 403.246 831.407C405.415 831.075 407.379 830.007 408.766 828.406V828.406Z" fill="#FFB8B8"/>
<path d="M363.01 699.549C363.01 699.549 357.192 710.483 363.01 730.007C368.827 749.531 372.983 765.932 372.983 765.932C372.983 765.932 386.28 758.122 392.097 760.465C397.914 762.808 382.895 708.418 382.895 708.418C382.895 708.418 373.814 690.177 363.01 699.549Z" fill="#2F2E41"/>
<path d="M373.043 668.588C373.321 664.575 378.709 664.438 382.988 664.4C387.267 664.362 392.383 664.505 394.805 661.189C396.405 658.998 396.099 655.956 394.777 653.606C393.455 651.257 391.281 649.45 389.141 647.712C383.618 643.224 377.926 638.771 371.295 635.898C364.665 633.026 356.894 631.865 350.017 634.171C341.57 637.004 330.15 651.586 329.164 659.963C328.178 668.341 331.741 676.881 337.746 683.142C343.752 689.402 357.498 686.876 366.149 689.103C360.89 682.109 364.356 669.399 372.781 666.133L373.043 668.588Z" fill="#2F2E41"/>
<circle cx="48.5" cy="403.5" r="7.5" fill="#090321"/>
<circle cx="48.5" cy="403.5" r="7.5" fill="#090321"/>
<circle cx="48.5" cy="403.5" r="7.5" fill="#090321"/>
<circle cx="157.5" cy="502.5" r="7.5" fill="#090321"/>
<circle cx="120.5" cy="502.5" r="7.5" fill="#090321"/>
<circle cx="83.5" cy="502.5" r="7.5" fill="#090321"/>
<circle cx="48.5" cy="502.5" r="7.5" fill="#090321"/>
<circle cx="157.5" cy="469.5" r="7.5" fill="#090321"/>
<circle cx="120.5" cy="469.5" r="7.5" fill="#090321"/>
<circle cx="83.5" cy="469.5" r="7.5" fill="#090321"/>
<circle cx="48.5" cy="469.5" r="7.5" fill="#090321"/>
<circle cx="157.5" cy="436.5" r="7.5" fill="#090321"/>
<circle cx="120.5" cy="436.5" r="7.5" fill="#090321"/>
<circle cx="83.5" cy="436.5" r="7.5" fill="#090321"/>
<circle cx="48.5" cy="436.5" r="7.5" fill="#090321"/>
<circle cx="157.5" cy="403.5" r="7.5" fill="#090321"/>
<circle cx="83.5" cy="403.5" r="7.5" fill="#090321"/>
<circle cx="120.5" cy="403.5" r="7.5" fill="#090321"/>
<path d="M682.311 459.42C682.311 455.644 681.839 453.107 680.895 451.809C680.069 450.511 678.358 449.862 675.762 449.862C674.582 449.862 673.402 449.921 672.222 450.039C671.042 450.157 670.216 450.216 669.744 450.216L669.39 449.508L670.629 441.72C672.045 441.838 674.7 441.956 678.594 442.074C682.488 442.192 686.382 442.251 690.276 442.251C693.462 442.251 697.061 442.074 701.073 441.72C705.203 441.248 707.917 440.894 709.215 440.658L708.507 448.623C704.141 449.331 701.132 450.452 699.48 451.986C697.828 453.402 696.943 455.821 696.825 459.243L694.701 535.176C694.583 539.896 695.055 543.082 696.117 544.734C697.179 546.386 699.303 547.212 702.489 547.212C704.259 547.212 705.911 547.153 707.445 547.035C708.979 546.917 709.982 546.799 710.454 546.681L710.808 547.389L709.215 555.531C707.681 555.413 704.79 555.295 700.542 555.177C696.294 555.059 691.928 555 687.444 555L667.089 555.177L668.859 547.212C672.635 546.858 675.408 546.268 677.178 545.442C679.066 544.616 680.364 543.318 681.072 541.548C681.78 539.778 682.134 537.182 682.134 533.76L682.311 459.42ZM731.694 463.845C735.352 460.187 737.181 457.119 737.181 454.641C737.181 451.573 733.464 449.803 726.03 449.331L725.676 448.623L726.915 441.012C728.331 441.13 731.222 441.366 735.588 441.72C740.072 442.074 743.671 442.251 746.385 442.251C749.217 442.251 752.344 442.192 755.766 442.074C759.306 441.838 761.607 441.661 762.669 441.543L763.377 442.782L762.138 450.039C759.07 450.629 756.238 451.868 753.642 453.756C751.046 455.644 747.093 459.361 741.783 464.907L713.286 494.82L743.022 533.583C747.27 539.129 751.046 543.023 754.35 545.265C757.772 547.507 761.548 548.628 765.678 548.628L766.386 549.336L765.324 555.354C764.026 555.59 761.43 556.003 757.536 556.593C753.76 557.183 751.459 557.478 750.633 557.478C747.801 557.478 744.674 556.18 741.252 553.584C737.83 550.87 734.349 547.094 730.809 542.256L699.834 499.245L700.011 496.767L731.694 463.845ZM791.685 448.446C789.089 448.446 786.965 447.62 785.313 445.968C783.779 444.316 783.012 442.133 783.012 439.419C783.012 436.469 784.015 433.991 786.021 431.985C788.027 429.979 790.505 428.976 793.455 428.976C795.933 428.976 797.998 429.861 799.65 431.631C801.302 433.283 802.128 435.407 802.128 438.003C802.128 440.953 801.125 443.431 799.119 445.437C797.113 447.443 794.635 448.446 791.685 448.446ZM776.64 549.867C780.18 548.923 782.717 547.566 784.251 545.796C785.785 543.908 786.552 541.43 786.552 538.362V493.404C786.552 487.032 784.369 483.846 780.003 483.846C779.177 483.846 778.292 483.964 777.348 484.2C776.404 484.318 775.814 484.436 775.578 484.554L776.286 478.005C781.242 477.297 786.316 476.353 791.508 475.173C796.818 473.993 800.24 473.226 801.774 472.872L802.659 474.996C801.597 477.474 800.653 485.085 799.827 497.829C799.001 510.455 798.588 523.73 798.588 537.654C798.588 541.076 799.06 543.613 800.004 545.265C800.948 546.799 802.541 547.566 804.783 547.566C806.081 547.566 807.32 547.507 808.5 547.389C809.68 547.271 810.506 547.212 810.978 547.212L811.332 547.92L809.916 555.531C808.854 555.413 806.848 555.295 803.898 555.177C800.948 555.059 797.703 555 794.163 555C791.095 555 787.555 555.295 783.543 555.885C779.649 556.475 777.112 556.888 775.932 557.124L776.64 549.867ZM875.623 549.867C879.163 548.923 881.7 547.566 883.234 545.796C884.768 543.908 885.535 541.43 885.535 538.362L886.243 503.316C886.243 497.416 884.945 492.873 882.349 489.687C879.871 486.501 876.272 484.908 871.552 484.908C867.776 484.908 863.941 485.911 860.047 487.917C856.153 489.805 852.731 491.87 849.781 494.112C848.719 518.538 848.188 533.052 848.188 537.654C848.188 541.312 848.66 543.908 849.604 545.442C850.548 546.858 852.2 547.566 854.56 547.566C855.858 547.566 857.097 547.507 858.277 547.389C859.457 547.271 860.283 547.212 860.755 547.212L861.109 547.92L859.516 555.531C858.454 555.413 856.389 555.295 853.321 555.177C850.253 555.059 846.949 555 843.409 555C840.341 555 836.919 555.118 833.143 555.354C829.485 555.708 827.066 555.944 825.886 556.062L826.771 548.805C830.193 548.215 832.612 547.153 834.028 545.619C835.444 544.085 836.152 541.666 836.152 538.362V495.174C836.152 491.162 835.503 488.389 834.205 486.855C832.907 485.203 830.665 484.377 827.479 484.377H825.532L825.001 483.669L825.532 477.828C830.606 477.002 835.621 476.058 840.577 474.996C845.651 473.816 848.896 473.049 850.312 472.695L851.374 474.111C851.138 474.819 850.784 476.353 850.312 478.713C849.84 480.955 849.545 483.315 849.427 485.793L849.781 486.324C863.233 477.356 871.906 472.872 875.8 472.872C883.234 472.872 889.134 474.937 893.5 479.067C897.866 483.197 900.049 488.743 900.049 495.705C900.049 496.885 899.695 502.313 898.987 511.989C898.043 524.261 897.571 532.816 897.571 537.654C897.571 541.076 898.043 543.613 898.987 545.265C899.931 546.799 901.524 547.566 903.766 547.566C905.064 547.566 906.303 547.507 907.483 547.389C908.663 547.271 909.489 547.212 909.961 547.212L910.315 547.92L908.899 555.531C907.837 555.413 905.831 555.295 902.881 555.177C899.931 555.059 896.686 555 893.146 555C890.078 555 886.538 555.295 882.526 555.885C878.632 556.475 876.095 556.888 874.915 557.124L875.623 549.867ZM980.145 544.026C967.873 552.404 960.498 556.593 958.02 556.593C951.294 556.593 945.335 555.059 940.143 551.991C934.951 548.805 930.939 544.38 928.107 538.716C925.275 533.052 923.859 526.562 923.859 519.246C923.859 510.868 925.806 503.139 929.7 496.059C933.712 488.979 939.081 483.374 945.807 479.244C952.651 474.996 960.026 472.872 967.932 472.872C971.708 472.872 975.779 473.108 980.145 473.58V444.198C980.145 437.826 977.962 434.64 973.596 434.64C972.77 434.64 971.885 434.758 970.941 434.994C969.997 435.112 969.407 435.23 969.171 435.348L969.879 428.799C974.953 428.091 980.204 427.147 985.632 425.967C991.06 424.787 994.541 424.02 996.075 423.666L997.137 425.967C995.839 427.973 994.659 440.422 993.597 463.314C992.653 486.206 992.181 510.573 992.181 536.415C992.181 539.011 992.83 541.017 994.128 542.433C995.426 543.849 997.196 544.557 999.438 544.557C1001.09 544.557 1002.68 544.262 1004.22 543.672C1005.87 542.964 1007.17 542.256 1008.11 541.548C1009.17 540.84 1009.82 540.368 1010.06 540.132L1012.54 542.964C1012.18 543.554 1011.3 544.852 1009.88 546.858C1008.47 548.746 1006.58 550.752 1004.22 552.876C1001.98 555 999.615 556.416 997.137 557.124C987.933 557.124 982.682 552.935 981.384 544.557L980.145 544.026ZM980.145 487.209C979.791 486.973 978.906 486.56 977.49 485.97C976.074 485.262 974.068 484.613 971.472 484.023C968.994 483.433 966.162 483.138 962.976 483.138C955.07 483.138 948.816 485.852 944.214 491.28C939.73 496.59 937.488 503.906 937.488 513.228C937.488 519.128 938.491 524.497 940.497 529.335C942.621 534.173 945.453 538.008 948.993 540.84C952.651 543.672 956.604 545.088 960.852 545.088C963.33 545.088 965.985 544.38 968.817 542.964C971.767 541.548 974.245 540.132 976.251 538.716C978.257 537.182 979.555 536.179 980.145 535.707V487.209ZM1018.04 549.867C1021.35 548.923 1023.65 547.743 1024.95 546.327C1026.36 544.911 1027.19 543.2 1027.42 541.194C1027.78 539.188 1027.95 535.825 1027.95 531.105V444.198C1027.95 437.826 1025.77 434.64 1021.41 434.64C1020.58 434.64 1019.69 434.758 1018.75 434.994C1017.81 435.112 1017.22 435.23 1016.98 435.348C1016.98 434.64 1017.1 433.578 1017.33 432.162L1017.69 428.799C1022.76 428.091 1028.01 427.147 1033.44 425.967C1038.87 424.787 1042.35 424.02 1043.88 423.666L1044.95 425.967C1043.65 427.973 1042.47 440.54 1041.41 463.668C1040.46 486.796 1039.99 511.458 1039.99 537.654C1039.99 541.194 1040.46 543.731 1041.41 545.265C1042.35 546.799 1043.94 547.566 1046.19 547.566C1047.48 547.566 1048.72 547.507 1049.9 547.389C1051.08 547.271 1051.91 547.212 1052.38 547.212L1052.73 547.92L1051.32 555.531C1050.26 555.413 1048.25 555.295 1045.3 555.177C1042.35 555.059 1039.11 555 1035.57 555C1032.5 555 1028.96 555.295 1024.95 555.885C1021.05 556.475 1018.51 556.888 1017.33 557.124L1018.04 549.867ZM1075.42 512.166C1075.42 522.078 1077.78 530.043 1082.5 536.061C1087.33 542.079 1093.71 545.088 1101.61 545.088C1104.92 545.088 1108.16 544.675 1111.35 543.849C1114.53 543.023 1117.19 542.197 1119.31 541.371C1121.44 540.427 1122.79 539.837 1123.38 539.601L1124.44 539.955L1126.39 545.088C1125.57 545.678 1123.62 546.976 1120.55 548.982C1117.6 550.87 1114.12 552.699 1110.11 554.469C1106.1 556.239 1102.5 557.124 1099.31 557.124C1091.99 557.124 1085.5 555.531 1079.84 552.345C1074.18 549.041 1069.81 544.439 1066.74 538.539C1063.67 532.521 1062.14 525.677 1062.14 518.007C1062.14 510.101 1063.91 502.667 1067.45 495.705C1071.11 488.743 1075.95 483.197 1081.96 479.067C1087.98 474.937 1094.41 472.872 1101.26 472.872C1109.87 472.872 1116.42 475.055 1120.9 479.421C1125.39 483.787 1127.63 490.159 1127.63 498.537C1127.63 500.425 1127.45 502.254 1127.1 504.024C1126.86 505.676 1126.69 506.738 1126.57 507.21L1124.27 509.334H1075.42V512.166ZM1108.16 501.192C1109.93 500.956 1111.11 500.543 1111.7 499.953C1112.29 499.363 1112.59 498.183 1112.59 496.413C1112.59 491.693 1111.29 488.094 1108.69 485.616C1106.21 483.138 1102.61 481.899 1097.89 481.899C1092.35 481.899 1087.57 483.787 1083.56 487.563C1079.66 491.339 1077.19 496.413 1076.12 502.785L1108.16 501.192Z" fill="#031966"/>
<path d="M927.599 580.78C927.599 576.663 927.084 573.896 926.055 572.481C925.154 571.066 923.289 570.358 920.458 570.358C919.171 570.358 917.885 570.422 916.598 570.551C915.311 570.68 914.411 570.744 913.896 570.744L913.51 569.972L914.861 561.48C916.405 561.609 919.3 561.737 923.546 561.866C927.792 561.995 932.038 562.059 936.284 562.059C939.758 562.059 943.682 561.866 948.057 561.48C952.56 560.965 955.52 560.579 956.935 560.322L956.163 569.007C951.402 569.779 948.121 571.001 946.32 572.674C944.519 574.218 943.554 576.856 943.425 580.587L941.109 663.384C940.98 668.531 941.495 672.005 942.653 673.806C943.811 675.607 946.127 676.508 949.601 676.508C951.531 676.508 953.332 676.444 955.005 676.315C956.678 676.186 957.771 676.058 958.286 675.929L958.672 676.701L956.935 685.579C955.262 685.45 952.11 685.322 947.478 685.193C942.846 685.064 938.085 685 933.196 685L911.001 685.193L912.931 676.508C917.048 676.122 920.072 675.479 922.002 674.578C924.061 673.677 925.476 672.262 926.248 670.332C927.02 668.402 927.406 665.571 927.406 661.84L927.599 580.78ZM981.446 585.605C985.435 581.616 987.429 578.271 987.429 575.569C987.429 572.224 983.376 570.294 975.27 569.779L974.884 569.007L976.235 560.708C977.779 560.837 980.931 561.094 985.692 561.48C990.581 561.866 994.506 562.059 997.465 562.059C1000.55 562.059 1003.96 561.995 1007.69 561.866C1011.55 561.609 1014.06 561.416 1015.22 561.287L1015.99 562.638L1014.64 570.551C1011.3 571.194 1008.21 572.545 1005.38 574.604C1002.55 576.663 998.237 580.716 992.447 586.763L961.374 619.38L993.798 661.647C998.43 667.694 1002.55 671.94 1006.15 674.385C1009.88 676.83 1014 678.052 1018.5 678.052L1019.27 678.824L1018.12 685.386C1016.7 685.643 1013.87 686.094 1009.62 686.737C1005.51 687.38 1003 687.702 1002.1 687.702C999.009 687.702 995.599 686.287 991.868 683.456C988.137 680.497 984.341 676.379 980.481 671.104L946.706 624.205L946.899 621.503L981.446 585.605Z" fill="#FFA420"/>
<path d="M1062.47 681.317C1065.01 680.64 1066.83 679.666 1067.93 678.396C1069.03 677.041 1069.58 675.263 1069.58 673.062L1070.09 647.916C1070.09 643.683 1069.15 640.423 1067.29 638.137C1065.51 635.851 1062.93 634.708 1059.54 634.708C1056.84 634.708 1054.08 635.428 1051.29 636.867C1048.5 638.222 1046.04 639.703 1043.92 641.312C1043.16 658.838 1042.78 669.252 1042.78 672.554C1042.78 675.179 1043.12 677.041 1043.8 678.142C1044.47 679.158 1045.66 679.666 1047.35 679.666C1048.28 679.666 1049.17 679.624 1050.02 679.539C1050.87 679.454 1051.46 679.412 1051.8 679.412L1052.05 679.92L1050.91 685.381C1050.15 685.296 1048.66 685.212 1046.46 685.127C1044.26 685.042 1041.89 685 1039.35 685C1037.15 685 1034.69 685.085 1031.99 685.254C1029.36 685.508 1027.63 685.677 1026.78 685.762L1027.41 680.555C1029.87 680.132 1031.6 679.37 1032.62 678.269C1033.64 677.168 1034.14 675.433 1034.14 673.062V642.074C1034.14 639.195 1033.68 637.206 1032.75 636.105C1031.82 634.92 1030.21 634.327 1027.92 634.327H1026.52L1026.14 633.819L1026.52 629.628C1030.17 629.035 1033.76 628.358 1037.32 627.596C1040.96 626.749 1043.29 626.199 1044.3 625.945L1045.07 626.961C1044.9 627.469 1044.64 628.57 1044.3 630.263C1043.97 631.872 1043.75 633.565 1043.67 635.343L1043.92 635.724C1053.58 629.289 1059.8 626.072 1062.59 626.072C1067.93 626.072 1072.16 627.554 1075.29 630.517C1078.43 633.48 1079.99 637.46 1079.99 642.455C1079.99 643.302 1079.74 647.196 1079.23 654.139C1078.55 662.944 1078.21 669.083 1078.21 672.554C1078.21 675.009 1078.55 676.83 1079.23 678.015C1079.91 679.116 1081.05 679.666 1082.66 679.666C1083.59 679.666 1084.48 679.624 1085.33 679.539C1086.17 679.454 1086.76 679.412 1087.1 679.412L1087.36 679.92L1086.34 685.381C1085.58 685.296 1084.14 685.212 1082.02 685.127C1079.91 685.042 1077.58 685 1075.04 685C1072.84 685 1070.3 685.212 1067.42 685.635C1064.62 686.058 1062.8 686.355 1061.96 686.524L1062.47 681.317ZM1128.7 647.916C1128.7 643.683 1127.73 640.381 1125.78 638.01C1123.83 635.639 1121.08 634.454 1117.52 634.454C1115.15 634.454 1112.53 635.047 1109.65 636.232C1106.77 637.417 1104.31 638.941 1102.28 640.804L1101.65 640.423L1100.12 634.962C1104.44 632.422 1108.55 630.305 1112.44 628.612C1116.42 626.919 1119.22 626.072 1120.82 626.072C1126.33 626.072 1130.65 627.511 1133.78 630.39C1136.91 633.269 1138.48 637.29 1138.48 642.455C1138.48 644.318 1138.18 648.128 1137.59 653.885C1136.66 663.198 1136.19 669.125 1136.19 671.665C1136.19 673.528 1136.66 674.967 1137.59 675.983C1138.52 676.999 1139.79 677.507 1141.4 677.507C1142.58 677.507 1143.85 677.211 1145.21 676.618C1146.65 676.025 1147.92 675.263 1149.02 674.332L1150.8 676.364C1149.44 678.735 1147.71 680.894 1145.59 682.841C1143.56 684.704 1141.61 685.931 1139.75 686.524C1132.89 686.524 1129.12 683.095 1128.44 676.237L1127.94 676.11C1124.89 679.158 1122.09 681.571 1119.55 683.349C1117.1 685.127 1115.24 686.016 1113.97 686.016C1109.23 686.016 1105.33 684.534 1102.28 681.571C1099.23 678.608 1097.71 674.84 1097.71 670.268C1097.71 667.813 1098.3 665.654 1099.49 663.791C1100.76 661.928 1102.41 660.701 1104.44 660.108L1128.44 653.504L1128.7 647.916ZM1111.05 663.537C1108.59 664.299 1107.36 666.077 1107.36 668.871C1107.36 671.326 1108.17 673.358 1109.78 674.967C1111.47 676.576 1113.59 677.38 1116.13 677.38C1117.73 677.38 1119.6 676.83 1121.71 675.729C1123.92 674.544 1125.9 673.062 1127.68 671.284L1128.19 658.33L1111.05 663.537ZM1200.18 678.015C1199.58 678.438 1198.27 679.327 1196.24 680.682C1194.29 682.037 1192.01 683.349 1189.38 684.619C1186.84 685.889 1184.64 686.524 1182.78 686.524C1174.73 686.524 1168.3 683.984 1163.47 678.904C1158.65 673.824 1156.24 667.008 1156.24 658.457C1156.24 652.446 1157.51 646.985 1160.05 642.074C1162.67 637.079 1166.18 633.184 1170.59 630.39C1175.07 627.511 1180.07 626.072 1185.57 626.072C1187.94 626.072 1190.23 626.241 1192.43 626.58C1194.63 626.919 1196.41 627.3 1197.76 627.723C1199.2 628.062 1200.09 628.316 1200.43 628.485L1200.81 629.374C1200.73 629.797 1200.47 630.813 1200.05 632.422C1199.71 633.946 1199.33 636.02 1198.91 638.645C1198.48 641.185 1198.23 643.937 1198.15 646.9L1192.94 647.281V643.344C1192.94 640.211 1191.96 637.714 1190.02 635.851C1188.15 633.904 1185.66 632.93 1182.52 632.93C1177.36 632.93 1173.38 634.793 1170.59 638.518C1167.79 642.159 1166.4 647.366 1166.4 654.139C1166.4 661.505 1167.92 667.347 1170.97 671.665C1174.1 675.898 1178.33 678.015 1183.67 678.015C1185.78 678.015 1187.9 677.719 1190.02 677.126C1192.13 676.449 1193.91 675.814 1195.35 675.221C1196.79 674.544 1197.68 674.078 1198.02 673.824L1198.78 674.078L1200.18 678.015ZM1209.81 680.555C1212.01 680.216 1213.57 679.624 1214.51 678.777C1215.44 677.846 1215.99 676.66 1216.16 675.221C1216.41 673.782 1216.54 671.326 1216.54 667.855V605.498C1216.54 600.926 1214.97 598.64 1211.84 598.64C1211.25 598.64 1210.61 598.725 1209.93 598.894C1209.26 598.979 1208.83 599.063 1208.66 599.148C1208.66 598.64 1208.75 597.878 1208.92 596.862L1209.17 594.449C1212.81 593.941 1216.58 593.264 1220.48 592.417C1224.37 591.57 1226.87 591.02 1227.97 590.766L1228.73 592.417C1227.8 593.856 1226.95 602.831 1226.19 619.341C1225.51 635.851 1225.17 653.589 1225.17 672.554C1225.17 675.179 1225.51 677.041 1226.19 678.142C1226.87 679.158 1228.05 679.666 1229.75 679.666C1230.68 679.666 1231.57 679.624 1232.41 679.539C1233.26 679.454 1233.85 679.412 1234.19 679.412L1234.45 679.92L1233.3 685.381C1232.54 685.296 1231.06 685.212 1228.86 685.127C1226.66 685.042 1224.29 685 1221.75 685C1219.54 685 1217.09 685.085 1214.38 685.254C1211.75 685.508 1210.02 685.677 1209.17 685.762L1209.81 680.555ZM1244.1 638.772C1245.28 637.671 1246.09 636.825 1246.51 636.232C1246.93 635.555 1247.15 634.92 1247.15 634.327C1247.15 633.396 1246.59 632.718 1245.49 632.295C1244.39 631.872 1242.62 631.66 1240.16 631.66L1239.78 631.025L1240.92 627.342C1241.77 627.342 1243.38 627.384 1245.75 627.469C1248.2 627.554 1250.74 627.596 1253.37 627.596C1255.4 627.596 1257.73 627.511 1260.35 627.342C1262.98 627.088 1264.67 626.919 1265.43 626.834L1265.81 627.469L1264.8 631.406C1261.33 632.422 1257.81 634.369 1254.26 637.248C1250.79 640.127 1246.59 644.021 1241.68 648.932C1241.68 648.932 1240.37 650.244 1237.75 652.869L1251.08 670.014C1253.96 673.739 1256.59 676.406 1258.96 678.015C1261.33 679.624 1263.82 680.428 1266.45 680.428L1266.83 681.063L1266.07 684.746C1265.31 685 1263.74 685.381 1261.37 685.889C1259 686.482 1257.43 686.778 1256.67 686.778C1255.4 686.778 1253.92 686.355 1252.23 685.508C1250.87 684.831 1249.52 683.772 1248.16 682.333C1246.89 680.894 1245.28 678.777 1243.34 675.983L1228.35 654.774L1228.6 652.996L1244.1 638.772Z" fill="#031966"/>
<path d="M843.12 778.2H842.92C842.787 779.96 842.52 783.267 842.12 788.12C841.747 792.947 841.56 795.573 841.56 796C841.56 796.827 841.973 797.24 842.8 797.24L844.44 797.2L844.52 797.36L844.16 799.16C843.867 799.133 843.333 799.093 842.56 799.04C841.813 799.013 841.053 799 840.28 799C839.613 799 838.92 799.04 838.2 799.12C837.507 799.227 837.053 799.293 836.84 799.32L837.04 797.48C837.893 797.373 838.507 797.107 838.88 796.68C839.253 796.227 839.493 795.467 839.6 794.4C840.773 783.68 841.36 777.92 841.36 777.12C841.36 776.427 841.08 775.907 840.52 775.56C839.987 775.213 839.107 775 837.88 774.92L837.76 774.72L838.08 773.32C838.427 773.347 839.107 773.387 840.12 773.44C841.133 773.493 841.907 773.52 842.44 773.52C842.92 773.52 843.44 773.507 844 773.48C844.587 773.427 844.973 773.387 845.16 773.36C846.227 776.8 847.253 780 848.24 782.96C849.253 785.893 850.08 788.227 850.72 789.96C851.36 791.693 851.76 792.773 851.92 793.2H852.12C852.493 792.213 853.347 789.867 854.68 786.16C856.013 782.453 857.467 778.213 859.04 773.44C859.04 773.413 859.4 773.427 860.12 773.48L861.68 773.52C862.187 773.52 862.947 773.493 863.96 773.44C864.973 773.36 865.653 773.307 866 773.28L866.08 773.44L865.88 774.92C864.733 775.053 863.92 775.293 863.44 775.64C862.96 775.96 862.72 776.453 862.72 777.12C862.72 777.707 862.84 779.893 863.08 783.68C863.32 787.44 863.547 790.693 863.76 793.44C863.893 794.533 864.027 795.347 864.16 795.88C864.293 796.387 864.48 796.747 864.72 796.96C864.96 797.147 865.293 797.24 865.72 797.24C865.96 797.24 866.187 797.227 866.4 797.2C866.613 797.173 866.76 797.16 866.84 797.16L866.92 797.32L866.56 799.12C866.293 799.093 865.787 799.067 865.04 799.04C864.32 799.013 863.56 799 862.76 799C862.04 799 861.227 799.04 860.32 799.12C859.44 799.227 858.867 799.293 858.6 799.32L858.76 797.48C859.587 797.373 860.187 797.16 860.56 796.84C860.933 796.52 861.12 796.067 861.12 795.48C861.12 794.92 860.92 792.32 860.52 787.68C860.147 783.04 859.893 779.88 859.76 778.2H859.56L851.84 799.48L850.88 799.76L843.12 778.2ZM877.286 799.48C875.766 799.48 874.419 799.107 873.246 798.36C872.073 797.613 871.153 796.573 870.486 795.24C869.846 793.88 869.526 792.333 869.526 790.6C869.526 788.733 869.926 787.027 870.726 785.48C871.553 783.907 872.673 782.68 874.086 781.8C875.499 780.893 877.073 780.44 878.806 780.44C880.299 780.44 881.633 780.813 882.806 781.56C884.006 782.307 884.926 783.36 885.566 784.72C886.233 786.053 886.566 787.587 886.566 789.32C886.566 791.187 886.153 792.907 885.326 794.48C884.526 796.027 883.419 797.253 882.006 798.16C880.593 799.04 879.019 799.48 877.286 799.48ZM878.406 797.52C879.899 797.52 881.086 796.92 881.966 795.72C882.846 794.493 883.286 792.84 883.286 790.76C883.286 789.187 883.046 787.787 882.566 786.56C882.086 785.307 881.406 784.333 880.526 783.64C879.673 782.947 878.699 782.6 877.606 782.6C876.113 782.6 874.926 783.213 874.046 784.44C873.166 785.667 872.726 787.333 872.726 789.44C872.726 791.013 872.966 792.413 873.446 793.64C873.926 794.867 874.593 795.827 875.446 796.52C876.299 797.187 877.286 797.52 878.406 797.52ZM890.368 797.56C891.168 797.48 891.701 797.227 891.968 796.8C892.234 796.347 892.368 795.493 892.368 794.24V785.44C892.368 784.56 892.248 783.933 892.008 783.56C891.768 783.187 891.381 783 890.848 783C890.634 783 890.448 783.013 890.288 783.04C890.154 783.067 890.061 783.093 890.008 783.12L889.808 782.84L889.928 781.6C890.941 781.413 892.008 781.187 893.128 780.92C894.274 780.653 895.008 780.48 895.328 780.4L895.608 780.64C895.554 780.88 895.474 781.44 895.368 782.32C895.261 783.173 895.221 783.987 895.248 784.76L895.408 784.88C896.208 783.627 897.141 782.6 898.208 781.8C899.301 781 900.248 780.6 901.048 780.6C901.421 780.6 901.701 780.627 901.888 780.68C902.101 780.707 902.234 780.733 902.288 780.76L902.408 780.92C902.354 781.293 902.234 782.093 902.048 783.32C901.888 784.52 901.794 785.627 901.768 786.64L900.208 786.76C900.208 785.667 900.128 784.947 899.968 784.6C899.834 784.227 899.554 784.04 899.128 784.04C898.541 784.04 897.914 784.293 897.248 784.8C896.581 785.28 895.968 785.933 895.408 786.76C895.381 787.533 895.328 788.813 895.248 790.6C895.168 792.387 895.114 793.827 895.088 794.92C895.088 795.827 895.221 796.44 895.488 796.76C895.754 797.08 896.261 797.24 897.008 797.24C897.354 797.24 897.701 797.227 898.048 797.2C898.394 797.173 898.634 797.16 898.768 797.16L898.808 797.32L898.448 799.08C898.181 799.08 897.648 799.067 896.848 799.04C896.048 799.013 895.221 799 894.368 799C893.381 799 892.488 799.013 891.688 799.04C890.888 799.093 890.381 799.133 890.168 799.16L890.368 797.56ZM907.37 789.32C907.37 791.56 907.903 793.36 908.97 794.72C910.063 796.08 911.503 796.76 913.29 796.76C914.036 796.76 914.77 796.667 915.49 796.48C916.21 796.293 916.81 796.107 917.29 795.92C917.77 795.707 918.076 795.573 918.21 795.52L918.45 795.6L918.89 796.76C918.703 796.893 918.263 797.187 917.57 797.64C916.903 798.067 916.116 798.48 915.21 798.88C914.303 799.28 913.49 799.48 912.77 799.48C911.116 799.48 909.65 799.12 908.37 798.4C907.09 797.653 906.103 796.613 905.41 795.28C904.716 793.92 904.37 792.373 904.37 790.64C904.37 788.853 904.77 787.173 905.57 785.6C906.396 784.027 907.49 782.773 908.85 781.84C910.21 780.907 911.663 780.44 913.21 780.44C915.156 780.44 916.636 780.933 917.65 781.92C918.663 782.907 919.17 784.347 919.17 786.24C919.17 786.667 919.13 787.08 919.05 787.48C918.996 787.853 918.956 788.093 918.93 788.2L918.41 788.68H907.37V789.32ZM914.77 786.84C915.17 786.787 915.436 786.693 915.57 786.56C915.703 786.427 915.77 786.16 915.77 785.76C915.77 784.693 915.476 783.88 914.89 783.32C914.33 782.76 913.516 782.48 912.45 782.48C911.196 782.48 910.116 782.907 909.21 783.76C908.33 784.613 907.77 785.76 907.53 787.2L914.77 786.84ZM932.225 784.8C932.225 784.08 932.065 783.573 931.745 783.28C931.425 782.987 930.825 782.827 929.945 782.8L929.785 782.56L929.985 781.36C930.759 780.987 931.505 780.533 932.225 780C932.972 779.44 933.572 778.96 934.025 778.56C934.505 778.133 934.812 777.853 934.945 777.72L935.745 778.04C935.719 778.173 935.679 778.493 935.625 779C935.572 779.507 935.505 780.187 935.425 781.04L941.305 780.92L941.425 781.04L941.065 783.16L935.265 783.04C935.079 785.973 934.985 789.307 934.985 793.04C934.985 794.4 935.212 795.36 935.665 795.92C936.145 796.48 936.959 796.76 938.105 796.76C938.505 796.76 938.905 796.707 939.305 796.6C939.705 796.493 940.039 796.387 940.305 796.28C940.572 796.147 940.745 796.067 940.825 796.04L941.225 797.08C941.065 797.213 940.719 797.467 940.185 797.84C939.679 798.213 939.119 798.587 938.505 798.96C937.919 799.307 937.479 799.48 937.185 799.48C935.372 799.48 934.092 799.12 933.345 798.4C932.599 797.653 932.225 796.4 932.225 794.64V784.8ZM943.548 797.44C944.322 797.36 944.855 797.16 945.148 796.84C945.468 796.52 945.628 795.987 945.628 795.24V773.96C945.628 773.24 945.508 772.72 945.268 772.4C945.028 772.053 944.655 771.88 944.148 771.88H943.308L943.148 771.76L943.308 770.48C944.455 770.32 945.642 770.107 946.868 769.84C948.095 769.573 948.882 769.4 949.228 769.32L949.468 769.84C949.282 770.133 949.095 771.547 948.908 774.08C948.748 776.587 948.615 779.747 948.508 783.56C951.548 781.48 953.548 780.44 954.508 780.44C956.242 780.44 957.588 780.893 958.548 781.8C959.508 782.707 959.988 783.973 959.988 785.6C959.988 786.133 959.895 787.36 959.708 789.28C959.468 792.4 959.348 794.333 959.348 795.08C959.348 795.853 959.455 796.427 959.668 796.8C959.882 797.147 960.242 797.32 960.748 797.32C961.042 797.32 961.322 797.307 961.588 797.28C961.855 797.253 962.042 797.24 962.148 797.24L962.228 797.4L961.908 799.12C961.668 799.093 961.215 799.067 960.548 799.04C959.882 799.013 959.148 799 958.348 799C957.655 799 956.855 799.067 955.948 799.2C955.068 799.333 954.495 799.427 954.228 799.48L954.388 797.84C955.188 797.627 955.762 797.32 956.108 796.92C956.455 796.493 956.628 795.933 956.628 795.24L956.868 787.32C956.868 785.987 956.575 784.96 955.988 784.24C955.428 783.52 954.615 783.16 953.548 783.16C952.642 783.16 951.708 783.413 950.748 783.92C949.815 784.4 949.055 784.88 948.468 785.36C948.388 788.427 948.348 791.667 948.348 795.08C948.348 795.907 948.455 796.493 948.668 796.84C948.882 797.16 949.255 797.32 949.788 797.32C950.082 797.32 950.362 797.307 950.628 797.28C950.895 797.253 951.082 797.24 951.188 797.24L951.268 797.4L950.908 799.12C950.668 799.093 950.202 799.067 949.508 799.04C948.815 799.013 948.068 799 947.268 799C946.388 799 945.575 799.013 944.828 799.04C944.082 799.067 943.575 799.08 943.308 799.08L943.548 797.44ZM967.956 789.32C967.956 791.56 968.489 793.36 969.556 794.72C970.649 796.08 972.089 796.76 973.876 796.76C974.622 796.76 975.356 796.667 976.076 796.48C976.796 796.293 977.396 796.107 977.876 795.92C978.356 795.707 978.662 795.573 978.796 795.52L979.036 795.6L979.476 796.76C979.289 796.893 978.849 797.187 978.156 797.64C977.489 798.067 976.702 798.48 975.796 798.88C974.889 799.28 974.076 799.48 973.356 799.48C971.702 799.48 970.236 799.12 968.956 798.4C967.676 797.653 966.689 796.613 965.996 795.28C965.302 793.92 964.956 792.373 964.956 790.64C964.956 788.853 965.356 787.173 966.156 785.6C966.982 784.027 968.076 782.773 969.436 781.84C970.796 780.907 972.249 780.44 973.796 780.44C975.742 780.44 977.222 780.933 978.236 781.92C979.249 782.907 979.756 784.347 979.756 786.24C979.756 786.667 979.716 787.08 979.636 787.48C979.582 787.853 979.542 788.093 979.516 788.2L978.996 788.68H967.956V789.32ZM975.356 786.84C975.756 786.787 976.022 786.693 976.156 786.56C976.289 786.427 976.356 786.16 976.356 785.76C976.356 784.693 976.062 783.88 975.476 783.32C974.916 782.76 974.102 782.48 973.036 782.48C971.782 782.48 970.702 782.907 969.796 783.76C968.916 784.613 968.356 785.76 968.116 787.2L975.356 786.84ZM1003.37 783.32C1003.37 782.973 1003.24 782.733 1002.97 782.6C1002.73 782.44 1002.29 782.36 1001.65 782.36H1000.13L999.971 782.12L1000.17 780.88L1004.33 780.92L1007.61 780.88L1007.33 782.36C1006.77 782.44 1006.33 782.667 1006.01 783.04C1005.69 783.413 1005.28 784.187 1004.77 785.36L998.971 799L996.811 799.68C996.411 798.4 995.611 795.893 994.411 792.16C993.238 788.4 992.411 785.8 991.931 784.36C991.478 783.08 990.571 782.413 989.211 782.36L989.131 782.2L989.371 780.88L992.691 780.92C993.705 780.92 994.691 780.88 995.651 780.8C996.611 780.72 997.225 780.667 997.491 780.64L997.571 780.84L997.331 782.08C996.425 782.107 995.798 782.2 995.451 782.36C995.131 782.493 994.971 782.747 994.971 783.12C994.971 783.6 995.451 785.533 996.411 788.92C997.371 792.28 998.025 794.56 998.371 795.76H998.531L1000.93 789.84C1001.81 787.787 1002.44 786.267 1002.81 785.28C1003.18 784.293 1003.37 783.64 1003.37 783.32ZM1018.12 787.32C1018.12 785.987 1017.81 784.947 1017.2 784.2C1016.59 783.453 1015.72 783.08 1014.6 783.08C1013.85 783.08 1013.03 783.267 1012.12 783.64C1011.21 784.013 1010.44 784.493 1009.8 785.08L1009.6 784.96L1009.12 783.24C1010.48 782.44 1011.77 781.773 1013 781.24C1014.25 780.707 1015.13 780.44 1015.64 780.44C1017.37 780.44 1018.73 780.893 1019.72 781.8C1020.71 782.707 1021.2 783.973 1021.2 785.6C1021.2 786.187 1021.11 787.387 1020.92 789.2C1020.63 792.133 1020.48 794 1020.48 794.8C1020.48 795.387 1020.63 795.84 1020.92 796.16C1021.21 796.48 1021.61 796.64 1022.12 796.64C1022.49 796.64 1022.89 796.547 1023.32 796.36C1023.77 796.173 1024.17 795.933 1024.52 795.64L1025.08 796.28C1024.65 797.027 1024.11 797.707 1023.44 798.32C1022.8 798.907 1022.19 799.293 1021.6 799.48C1019.44 799.48 1018.25 798.4 1018.04 796.24L1017.88 796.2C1016.92 797.16 1016.04 797.92 1015.24 798.48C1014.47 799.04 1013.88 799.32 1013.48 799.32C1011.99 799.32 1010.76 798.853 1009.8 797.92C1008.84 796.987 1008.36 795.8 1008.36 794.36C1008.36 793.587 1008.55 792.907 1008.92 792.32C1009.32 791.733 1009.84 791.347 1010.48 791.16L1018.04 789.08L1018.12 787.32ZM1012.56 792.24C1011.79 792.48 1011.4 793.04 1011.4 793.92C1011.4 794.693 1011.65 795.333 1012.16 795.84C1012.69 796.347 1013.36 796.6 1014.16 796.6C1014.67 796.6 1015.25 796.427 1015.92 796.08C1016.61 795.707 1017.24 795.24 1017.8 794.68L1017.96 790.6L1012.56 792.24ZM1027.71 797.56C1028.51 797.48 1029.04 797.227 1029.31 796.8C1029.58 796.347 1029.71 795.493 1029.71 794.24V785.44C1029.71 784.56 1029.59 783.933 1029.35 783.56C1029.11 783.187 1028.72 783 1028.19 783C1027.98 783 1027.79 783.013 1027.63 783.04C1027.5 783.067 1027.4 783.093 1027.35 783.12L1027.15 782.84L1027.27 781.6C1028.28 781.413 1029.35 781.187 1030.47 780.92C1031.62 780.653 1032.35 780.48 1032.67 780.4L1032.95 780.64C1032.9 780.88 1032.82 781.44 1032.71 782.32C1032.6 783.173 1032.56 783.987 1032.59 784.76L1032.75 784.88C1033.55 783.627 1034.48 782.6 1035.55 781.8C1036.64 781 1037.59 780.6 1038.39 780.6C1038.76 780.6 1039.04 780.627 1039.23 780.68C1039.44 780.707 1039.58 780.733 1039.63 780.76L1039.75 780.92C1039.7 781.293 1039.58 782.093 1039.39 783.32C1039.23 784.52 1039.14 785.627 1039.11 786.64L1037.55 786.76C1037.55 785.667 1037.47 784.947 1037.31 784.6C1037.18 784.227 1036.9 784.04 1036.47 784.04C1035.88 784.04 1035.26 784.293 1034.59 784.8C1033.92 785.28 1033.31 785.933 1032.75 786.76C1032.72 787.533 1032.67 788.813 1032.59 790.6C1032.51 792.387 1032.46 793.827 1032.43 794.92C1032.43 795.827 1032.56 796.44 1032.83 796.76C1033.1 797.08 1033.6 797.24 1034.35 797.24C1034.7 797.24 1035.04 797.227 1035.39 797.2C1035.74 797.173 1035.98 797.16 1036.11 797.16L1036.15 797.32L1035.79 799.08C1035.52 799.08 1034.99 799.067 1034.19 799.04C1033.39 799.013 1032.56 799 1031.71 799C1030.72 799 1029.83 799.013 1029.03 799.04C1028.23 799.093 1027.72 799.133 1027.51 799.16L1027.71 797.56ZM1045.98 774.92C1045.4 774.92 1044.92 774.733 1044.54 774.36C1044.2 773.987 1044.02 773.493 1044.02 772.88C1044.02 772.213 1044.25 771.653 1044.7 771.2C1045.16 770.747 1045.72 770.52 1046.38 770.52C1046.94 770.52 1047.41 770.72 1047.78 771.12C1048.16 771.493 1048.34 771.973 1048.34 772.56C1048.34 773.227 1048.12 773.787 1047.66 774.24C1047.21 774.693 1046.65 774.92 1045.98 774.92ZM1042.58 797.84C1043.38 797.627 1043.96 797.32 1044.3 796.92C1044.65 796.493 1044.82 795.933 1044.82 795.24V785.08C1044.82 783.64 1044.33 782.92 1043.34 782.92C1043.16 782.92 1042.96 782.947 1042.74 783C1042.53 783.027 1042.4 783.053 1042.34 783.08L1042.5 781.6C1043.62 781.44 1044.77 781.227 1045.94 780.96C1047.14 780.693 1047.92 780.52 1048.26 780.44L1048.46 780.92C1048.22 781.48 1048.01 783.2 1047.82 786.08C1047.64 788.933 1047.54 791.933 1047.54 795.08C1047.54 795.853 1047.65 796.427 1047.86 796.8C1048.08 797.147 1048.44 797.32 1048.94 797.32C1049.24 797.32 1049.52 797.307 1049.78 797.28C1050.05 797.253 1050.24 797.24 1050.34 797.24L1050.42 797.4L1050.1 799.12C1049.86 799.093 1049.41 799.067 1048.74 799.04C1048.08 799.013 1047.34 799 1046.54 799C1045.85 799 1045.05 799.067 1044.14 799.2C1043.26 799.333 1042.69 799.427 1042.42 799.48L1042.58 797.84ZM1056.39 789.32C1056.39 791.56 1056.93 793.36 1057.99 794.72C1059.09 796.08 1060.53 796.76 1062.31 796.76C1063.06 796.76 1063.79 796.667 1064.51 796.48C1065.23 796.293 1065.83 796.107 1066.31 795.92C1066.79 795.707 1067.1 795.573 1067.23 795.52L1067.47 795.6L1067.91 796.76C1067.73 796.893 1067.29 797.187 1066.59 797.64C1065.93 798.067 1065.14 798.48 1064.23 798.88C1063.33 799.28 1062.51 799.48 1061.79 799.48C1060.14 799.48 1058.67 799.12 1057.39 798.4C1056.11 797.653 1055.13 796.613 1054.43 795.28C1053.74 793.92 1053.39 792.373 1053.39 790.64C1053.39 788.853 1053.79 787.173 1054.59 785.6C1055.42 784.027 1056.51 782.773 1057.87 781.84C1059.23 780.907 1060.69 780.44 1062.23 780.44C1064.18 780.44 1065.66 780.933 1066.67 781.92C1067.69 782.907 1068.19 784.347 1068.19 786.24C1068.19 786.667 1068.15 787.08 1068.07 787.48C1068.02 787.853 1067.98 788.093 1067.95 788.2L1067.43 788.68H1056.39V789.32ZM1063.79 786.84C1064.19 786.787 1064.46 786.693 1064.59 786.56C1064.73 786.427 1064.79 786.16 1064.79 785.76C1064.79 784.693 1064.5 783.88 1063.91 783.32C1063.35 782.76 1062.54 782.48 1061.47 782.48C1060.22 782.48 1059.14 782.907 1058.23 783.76C1057.35 784.613 1056.79 785.76 1056.55 787.2L1063.79 786.84ZM1073.16 784.8C1073.16 784.08 1073 783.573 1072.68 783.28C1072.36 782.987 1071.76 782.827 1070.88 782.8L1070.72 782.56L1070.92 781.36C1071.7 780.987 1072.44 780.533 1073.16 780C1073.91 779.44 1074.51 778.96 1074.96 778.56C1075.44 778.133 1075.75 777.853 1075.88 777.72L1076.68 778.04C1076.66 778.173 1076.62 778.493 1076.56 779C1076.51 779.507 1076.44 780.187 1076.36 781.04L1082.24 780.92L1082.36 781.04L1082 783.16L1076.2 783.04C1076.02 785.973 1075.92 789.307 1075.92 793.04C1075.92 794.4 1076.15 795.36 1076.6 795.92C1077.08 796.48 1077.9 796.76 1079.04 796.76C1079.44 796.76 1079.84 796.707 1080.24 796.6C1080.64 796.493 1080.98 796.387 1081.24 796.28C1081.51 796.147 1081.68 796.067 1081.76 796.04L1082.16 797.08C1082 797.213 1081.66 797.467 1081.12 797.84C1080.62 798.213 1080.06 798.587 1079.44 798.96C1078.86 799.307 1078.42 799.48 1078.12 799.48C1076.31 799.48 1075.03 799.12 1074.28 798.4C1073.54 797.653 1073.16 796.4 1073.16 794.64V784.8ZM1092.29 795.36C1095.41 787.893 1096.97 783.867 1096.97 783.28C1096.97 782.587 1096.46 782.24 1095.45 782.24H1093.61L1093.53 782.08L1093.77 780.76C1094.01 780.787 1094.53 780.827 1095.33 780.88C1096.15 780.907 1096.98 780.92 1097.81 780.92L1101.21 780.88L1100.93 782.36C1100.34 782.467 1099.89 782.68 1099.57 783C1099.27 783.293 1098.98 783.84 1098.69 784.64L1093.53 796.8C1092.01 800.267 1090.82 802.787 1089.97 804.36C1089.14 805.933 1088.31 807.04 1087.49 807.68C1086.69 808.347 1085.7 808.667 1084.53 808.64C1084.31 808.64 1083.97 808.32 1083.49 807.68C1083.01 807.067 1082.77 806.627 1082.77 806.36L1082.97 806.08C1084.51 806.08 1085.97 805.453 1087.33 804.2C1088.71 802.973 1089.86 801.253 1090.77 799.04C1090.13 797.013 1089.27 794.507 1088.21 791.52C1087.17 788.533 1086.27 786.12 1085.53 784.28C1085.21 783.613 1084.83 783.133 1084.41 782.84C1084.01 782.547 1083.47 782.387 1082.81 782.36L1082.73 782.2L1082.97 780.88L1086.29 780.92C1087.27 780.92 1088.25 780.88 1089.21 780.8C1090.19 780.72 1090.82 780.667 1091.09 780.64L1091.17 780.84L1090.93 782.08C1090.02 782.107 1089.39 782.2 1089.05 782.36C1088.73 782.493 1088.57 782.747 1088.57 783.12C1088.57 783.547 1088.83 784.667 1089.37 786.48C1089.9 788.293 1090.45 790.093 1091.01 791.88C1091.57 793.667 1091.94 794.827 1092.13 795.36H1092.29ZM1100.29 796.08C1101.2 795.387 1101.97 795.04 1102.61 795.04C1103.2 795.04 1103.68 795.32 1104.05 795.88C1104.45 796.413 1104.65 797.173 1104.65 798.16C1104.65 799.547 1104.09 800.853 1102.97 802.08C1101.85 803.333 1100.55 804.4 1099.05 805.28L1098.33 804.68V804.28C1099.27 803.64 1100.03 802.88 1100.61 802C1101.2 801.12 1101.49 800.267 1101.49 799.44C1101.49 798.907 1101.37 798.4 1101.13 797.92C1100.89 797.413 1100.59 796.987 1100.21 796.64L1100.29 796.08ZM1116.37 773.96C1116.37 772.52 1115.88 771.8 1114.89 771.8C1114.68 771.8 1114.49 771.813 1114.33 771.84C1114.17 771.867 1114.06 771.893 1114.01 771.92L1113.89 771.8L1114.05 770.48C1115.2 770.32 1116.38 770.107 1117.61 769.84C1118.84 769.573 1119.62 769.4 1119.97 769.32L1120.21 769.84C1120.02 770.107 1119.85 771.467 1119.69 773.92C1119.53 776.347 1119.4 779.453 1119.29 783.24C1120.49 782.387 1121.52 781.707 1122.37 781.2C1123.25 780.693 1123.84 780.44 1124.13 780.44C1125.62 780.44 1126.96 780.8 1128.13 781.52C1129.3 782.24 1130.21 783.253 1130.85 784.56C1131.52 785.84 1131.85 787.32 1131.85 789C1131.85 790.92 1131.4 792.68 1130.49 794.28C1129.61 795.88 1128.41 797.147 1126.89 798.08C1125.37 799.013 1123.7 799.48 1121.89 799.48C1120.77 799.48 1119.62 799.4 1118.45 799.24C1117.3 799.107 1116.73 799.027 1116.73 799L1116.37 798.68V773.96ZM1119.09 796.44C1119.57 796.68 1120.18 796.88 1120.93 797.04C1121.68 797.2 1122.37 797.28 1123.01 797.28C1124.8 797.28 1126.2 796.68 1127.21 795.48C1128.25 794.253 1128.77 792.587 1128.77 790.48C1128.77 789.147 1128.53 787.92 1128.05 786.8C1127.6 785.68 1126.96 784.8 1126.13 784.16C1125.33 783.493 1124.45 783.16 1123.49 783.16C1122.96 783.16 1122.28 783.373 1121.45 783.8C1120.62 784.2 1119.88 784.707 1119.21 785.32L1119.09 796.44ZM1137.72 789.32C1137.72 791.56 1138.25 793.36 1139.32 794.72C1140.41 796.08 1141.85 796.76 1143.64 796.76C1144.39 796.76 1145.12 796.667 1145.84 796.48C1146.56 796.293 1147.16 796.107 1147.64 795.92C1148.12 795.707 1148.43 795.573 1148.56 795.52L1148.8 795.6L1149.24 796.76C1149.05 796.893 1148.61 797.187 1147.92 797.64C1147.25 798.067 1146.47 798.48 1145.56 798.88C1144.65 799.28 1143.84 799.48 1143.12 799.48C1141.47 799.48 1140 799.12 1138.72 798.4C1137.44 797.653 1136.45 796.613 1135.76 795.28C1135.07 793.92 1134.72 792.373 1134.72 790.64C1134.72 788.853 1135.12 787.173 1135.92 785.6C1136.75 784.027 1137.84 782.773 1139.2 781.84C1140.56 780.907 1142.01 780.44 1143.56 780.44C1145.51 780.44 1146.99 780.933 1148 781.92C1149.01 782.907 1149.52 784.347 1149.52 786.24C1149.52 786.667 1149.48 787.08 1149.4 787.48C1149.35 787.853 1149.31 788.093 1149.28 788.2L1148.76 788.68H1137.72V789.32ZM1145.12 786.84C1145.52 786.787 1145.79 786.693 1145.92 786.56C1146.05 786.427 1146.12 786.16 1146.12 785.76C1146.12 784.693 1145.83 783.88 1145.24 783.32C1144.68 782.76 1143.87 782.48 1142.8 782.48C1141.55 782.48 1140.47 782.907 1139.56 783.76C1138.68 784.613 1138.12 785.76 1137.88 787.2L1145.12 786.84ZM1154.49 784.8C1154.49 784.08 1154.33 783.573 1154.01 783.28C1153.69 782.987 1153.09 782.827 1152.21 782.8L1152.05 782.56L1152.25 781.36C1153.02 780.987 1153.77 780.533 1154.49 780C1155.24 779.44 1155.84 778.96 1156.29 778.56C1156.77 778.133 1157.08 777.853 1157.21 777.72L1158.01 778.04C1157.98 778.173 1157.94 778.493 1157.89 779C1157.84 779.507 1157.77 780.187 1157.69 781.04L1163.57 780.92L1163.69 781.04L1163.33 783.16L1157.53 783.04C1157.34 785.973 1157.25 789.307 1157.25 793.04C1157.25 794.4 1157.48 795.36 1157.93 795.92C1158.41 796.48 1159.22 796.76 1160.37 796.76C1160.77 796.76 1161.17 796.707 1161.57 796.6C1161.97 796.493 1162.3 796.387 1162.57 796.28C1162.84 796.147 1163.01 796.067 1163.09 796.04L1163.49 797.08C1163.33 797.213 1162.98 797.467 1162.45 797.84C1161.94 798.213 1161.38 798.587 1160.77 798.96C1160.18 799.307 1159.74 799.48 1159.45 799.48C1157.64 799.48 1156.36 799.12 1155.61 798.4C1154.86 797.653 1154.49 796.4 1154.49 794.64V784.8ZM1167.69 784.8C1167.69 784.08 1167.53 783.573 1167.21 783.28C1166.89 782.987 1166.29 782.827 1165.41 782.8L1165.25 782.56L1165.45 781.36C1166.23 780.987 1166.97 780.533 1167.69 780C1168.44 779.44 1169.04 778.96 1169.49 778.56C1169.97 778.133 1170.28 777.853 1170.41 777.72L1171.21 778.04C1171.19 778.173 1171.15 778.493 1171.09 779C1171.04 779.507 1170.97 780.187 1170.89 781.04L1176.77 780.92L1176.89 781.04L1176.53 783.16L1170.73 783.04C1170.55 785.973 1170.45 789.307 1170.45 793.04C1170.45 794.4 1170.68 795.36 1171.13 795.92C1171.61 796.48 1172.43 796.76 1173.57 796.76C1173.97 796.76 1174.37 796.707 1174.77 796.6C1175.17 796.493 1175.51 796.387 1175.77 796.28C1176.04 796.147 1176.21 796.067 1176.29 796.04L1176.69 797.08C1176.53 797.213 1176.19 797.467 1175.65 797.84C1175.15 798.213 1174.59 798.587 1173.97 798.96C1173.39 799.307 1172.95 799.48 1172.65 799.48C1170.84 799.48 1169.56 799.12 1168.81 798.4C1168.07 797.653 1167.69 796.4 1167.69 794.64V784.8ZM1181.67 789.32C1181.67 791.56 1182.2 793.36 1183.27 794.72C1184.36 796.08 1185.8 796.76 1187.59 796.76C1188.33 796.76 1189.07 796.667 1189.79 796.48C1190.51 796.293 1191.11 796.107 1191.59 795.92C1192.07 795.707 1192.37 795.573 1192.51 795.52L1192.75 795.6L1193.19 796.76C1193 796.893 1192.56 797.187 1191.87 797.64C1191.2 798.067 1190.41 798.48 1189.51 798.88C1188.6 799.28 1187.79 799.48 1187.07 799.48C1185.41 799.48 1183.95 799.12 1182.67 798.4C1181.39 797.653 1180.4 796.613 1179.71 795.28C1179.01 793.92 1178.67 792.373 1178.67 790.64C1178.67 788.853 1179.07 787.173 1179.87 785.6C1180.69 784.027 1181.79 782.773 1183.15 781.84C1184.51 780.907 1185.96 780.44 1187.51 780.44C1189.45 780.44 1190.93 780.933 1191.95 781.92C1192.96 782.907 1193.47 784.347 1193.47 786.24C1193.47 786.667 1193.43 787.08 1193.35 787.48C1193.29 787.853 1193.25 788.093 1193.23 788.2L1192.71 788.68H1181.67V789.32ZM1189.07 786.84C1189.47 786.787 1189.73 786.693 1189.87 786.56C1190 786.427 1190.07 786.16 1190.07 785.76C1190.07 784.693 1189.77 783.88 1189.19 783.32C1188.63 782.76 1187.81 782.48 1186.75 782.48C1185.49 782.48 1184.41 782.907 1183.51 783.76C1182.63 784.613 1182.07 785.76 1181.83 787.2L1189.07 786.84ZM1197.52 797.56C1198.32 797.48 1198.85 797.227 1199.12 796.8C1199.38 796.347 1199.52 795.493 1199.52 794.24V785.44C1199.52 784.56 1199.4 783.933 1199.16 783.56C1198.92 783.187 1198.53 783 1198 783C1197.78 783 1197.6 783.013 1197.44 783.04C1197.3 783.067 1197.21 783.093 1197.16 783.12L1196.96 782.84L1197.08 781.6C1198.09 781.413 1199.16 781.187 1200.28 780.92C1201.42 780.653 1202.16 780.48 1202.48 780.4L1202.76 780.64C1202.7 780.88 1202.62 781.44 1202.52 782.32C1202.41 783.173 1202.37 783.987 1202.4 784.76L1202.56 784.88C1203.36 783.627 1204.29 782.6 1205.36 781.8C1206.45 781 1207.4 780.6 1208.2 780.6C1208.57 780.6 1208.85 780.627 1209.04 780.68C1209.25 780.707 1209.38 780.733 1209.44 780.76L1209.56 780.92C1209.5 781.293 1209.38 782.093 1209.2 783.32C1209.04 784.52 1208.94 785.627 1208.92 786.64L1207.36 786.76C1207.36 785.667 1207.28 784.947 1207.12 784.6C1206.98 784.227 1206.7 784.04 1206.28 784.04C1205.69 784.04 1205.06 784.293 1204.4 784.8C1203.73 785.28 1203.12 785.933 1202.56 786.76C1202.53 787.533 1202.48 788.813 1202.4 790.6C1202.32 792.387 1202.26 793.827 1202.24 794.92C1202.24 795.827 1202.37 796.44 1202.64 796.76C1202.9 797.08 1203.41 797.24 1204.16 797.24C1204.5 797.24 1204.85 797.227 1205.2 797.2C1205.54 797.173 1205.78 797.16 1205.92 797.16L1205.96 797.32L1205.6 799.08C1205.33 799.08 1204.8 799.067 1204 799.04C1203.2 799.013 1202.37 799 1201.52 799C1200.53 799 1199.64 799.013 1198.84 799.04C1198.04 799.093 1197.53 799.133 1197.32 799.16L1197.52 797.56ZM1221.83 784.8C1221.83 784.08 1221.67 783.573 1221.35 783.28C1221.03 782.987 1220.43 782.827 1219.55 782.8L1219.39 782.56L1219.59 781.36C1220.37 780.987 1221.11 780.533 1221.83 780C1222.58 779.44 1223.18 778.96 1223.63 778.56C1224.11 778.133 1224.42 777.853 1224.55 777.72L1225.35 778.04C1225.33 778.173 1225.29 778.493 1225.23 779C1225.18 779.507 1225.11 780.187 1225.03 781.04L1230.91 780.92L1231.03 781.04L1230.67 783.16L1224.87 783.04C1224.69 785.973 1224.59 789.307 1224.59 793.04C1224.59 794.4 1224.82 795.36 1225.27 795.92C1225.75 796.48 1226.57 796.76 1227.71 796.76C1228.11 796.76 1228.51 796.707 1228.91 796.6C1229.31 796.493 1229.65 796.387 1229.91 796.28C1230.18 796.147 1230.35 796.067 1230.43 796.04L1230.83 797.08C1230.67 797.213 1230.33 797.467 1229.79 797.84C1229.29 798.213 1228.73 798.587 1228.11 798.96C1227.53 799.307 1227.09 799.48 1226.79 799.48C1224.98 799.48 1223.7 799.12 1222.95 798.4C1222.21 797.653 1221.83 796.4 1221.83 794.64V784.8ZM1233.16 797.44C1233.93 797.36 1234.46 797.16 1234.76 796.84C1235.08 796.52 1235.24 795.987 1235.24 795.24V773.96C1235.24 773.24 1235.12 772.72 1234.88 772.4C1234.64 772.053 1234.26 771.88 1233.76 771.88H1232.92L1232.76 771.76L1232.92 770.48C1234.06 770.32 1235.25 770.107 1236.48 769.84C1237.7 769.573 1238.49 769.4 1238.84 769.32L1239.08 769.84C1238.89 770.133 1238.7 771.547 1238.52 774.08C1238.36 776.587 1238.22 779.747 1238.12 783.56C1241.16 781.48 1243.16 780.44 1244.12 780.44C1245.85 780.44 1247.2 780.893 1248.16 781.8C1249.12 782.707 1249.6 783.973 1249.6 785.6C1249.6 786.133 1249.5 787.36 1249.32 789.28C1249.08 792.4 1248.96 794.333 1248.96 795.08C1248.96 795.853 1249.06 796.427 1249.28 796.8C1249.49 797.147 1249.85 797.32 1250.36 797.32C1250.65 797.32 1250.93 797.307 1251.2 797.28C1251.46 797.253 1251.65 797.24 1251.76 797.24L1251.84 797.4L1251.52 799.12C1251.28 799.093 1250.82 799.067 1250.16 799.04C1249.49 799.013 1248.76 799 1247.96 799C1247.26 799 1246.46 799.067 1245.56 799.2C1244.68 799.333 1244.1 799.427 1243.84 799.48L1244 797.84C1244.8 797.627 1245.37 797.32 1245.72 796.92C1246.06 796.493 1246.24 795.933 1246.24 795.24L1246.48 787.32C1246.48 785.987 1246.18 784.96 1245.6 784.24C1245.04 783.52 1244.22 783.16 1243.16 783.16C1242.25 783.16 1241.32 783.413 1240.36 783.92C1239.42 784.4 1238.66 784.88 1238.08 785.36C1238 788.427 1237.96 791.667 1237.96 795.08C1237.96 795.907 1238.06 796.493 1238.28 796.84C1238.49 797.16 1238.86 797.32 1239.4 797.32C1239.69 797.32 1239.97 797.307 1240.24 797.28C1240.5 797.253 1240.69 797.24 1240.8 797.24L1240.88 797.4L1240.52 799.12C1240.28 799.093 1239.81 799.067 1239.12 799.04C1238.42 799.013 1237.68 799 1236.88 799C1236 799 1235.18 799.013 1234.44 799.04C1233.69 799.067 1233.18 799.08 1232.92 799.08L1233.16 797.44ZM1257.57 789.32C1257.57 791.56 1258.1 793.36 1259.17 794.72C1260.26 796.08 1261.7 796.76 1263.49 796.76C1264.23 796.76 1264.97 796.667 1265.69 796.48C1266.41 796.293 1267.01 796.107 1267.49 795.92C1267.97 795.707 1268.27 795.573 1268.41 795.52L1268.65 795.6L1269.09 796.76C1268.9 796.893 1268.46 797.187 1267.77 797.64C1267.1 798.067 1266.31 798.48 1265.41 798.88C1264.5 799.28 1263.69 799.48 1262.97 799.48C1261.31 799.48 1259.85 799.12 1258.57 798.4C1257.29 797.653 1256.3 796.613 1255.61 795.28C1254.91 793.92 1254.57 792.373 1254.57 790.64C1254.57 788.853 1254.97 787.173 1255.76 785.6C1256.59 784.027 1257.69 782.773 1259.05 781.84C1260.41 780.907 1261.86 780.44 1263.4 780.44C1265.35 780.44 1266.83 780.933 1267.85 781.92C1268.86 782.907 1269.37 784.347 1269.37 786.24C1269.37 786.667 1269.33 787.08 1269.25 787.48C1269.19 787.853 1269.15 788.093 1269.13 788.2L1268.61 788.68H1257.57V789.32ZM1264.97 786.84C1265.37 786.787 1265.63 786.693 1265.77 786.56C1265.9 786.427 1265.97 786.16 1265.97 785.76C1265.97 784.693 1265.67 783.88 1265.09 783.32C1264.53 782.76 1263.71 782.48 1262.65 782.48C1261.39 782.48 1260.31 782.907 1259.41 783.76C1258.53 784.613 1257.97 785.76 1257.73 787.2L1264.97 786.84ZM1285.98 799.48C1285.13 799.48 1284.34 799.413 1283.62 799.28C1282.93 799.173 1282.38 799.053 1281.98 798.92C1281.58 798.787 1281.33 798.693 1281.22 798.64L1281.1 798.36C1281.18 797.96 1281.27 797.133 1281.38 795.88C1281.49 794.627 1281.55 793.667 1281.58 793L1282.98 792.8C1282.98 794.56 1283.27 795.8 1283.86 796.52C1284.45 797.24 1285.45 797.6 1286.86 797.6C1287.87 797.6 1288.73 797.373 1289.42 796.92C1290.11 796.467 1290.46 795.907 1290.46 795.24C1290.46 794.573 1290.14 793.973 1289.5 793.44C1288.89 792.88 1287.66 792.107 1285.82 791.12C1284.3 790.347 1283.19 789.573 1282.5 788.8C1281.81 788 1281.46 787.12 1281.46 786.16C1281.46 785.093 1281.78 784.12 1282.42 783.24C1283.06 782.36 1283.94 781.68 1285.06 781.2C1286.18 780.693 1287.43 780.44 1288.82 780.44C1289.46 780.44 1290.07 780.493 1290.66 780.6C1291.25 780.68 1291.73 780.773 1292.1 780.88C1292.47 780.987 1292.71 781.053 1292.82 781.08L1292.9 781.28C1292.85 781.547 1292.73 782.16 1292.54 783.12C1292.35 784.053 1292.22 785.067 1292.14 786.16L1290.66 786.28C1290.66 786.2 1290.67 786.04 1290.7 785.8C1290.73 785.56 1290.74 785.333 1290.74 785.12C1290.74 784.16 1290.47 783.467 1289.94 783.04C1289.43 782.587 1288.61 782.36 1287.46 782.36C1286.55 782.36 1285.78 782.573 1285.14 783C1284.53 783.427 1284.22 783.947 1284.22 784.56C1284.22 785.2 1284.49 785.8 1285.02 786.36C1285.58 786.92 1286.47 787.52 1287.7 788.16C1289.86 789.307 1291.33 790.267 1292.1 791.04C1292.9 791.813 1293.3 792.707 1293.3 793.72C1293.3 794.733 1292.95 795.68 1292.26 796.56C1291.59 797.44 1290.7 798.147 1289.58 798.68C1288.46 799.213 1287.26 799.48 1285.98 799.48ZM1304.43 799.48C1302.91 799.48 1301.57 799.107 1300.39 798.36C1299.22 797.613 1298.3 796.573 1297.63 795.24C1296.99 793.88 1296.67 792.333 1296.67 790.6C1296.67 788.733 1297.07 787.027 1297.87 785.48C1298.7 783.907 1299.82 782.68 1301.23 781.8C1302.65 780.893 1304.22 780.44 1305.95 780.44C1307.45 780.44 1308.78 780.813 1309.95 781.56C1311.15 782.307 1312.07 783.36 1312.71 784.72C1313.38 786.053 1313.71 787.587 1313.71 789.32C1313.71 791.187 1313.3 792.907 1312.47 794.48C1311.67 796.027 1310.57 797.253 1309.15 798.16C1307.74 799.04 1306.17 799.48 1304.43 799.48ZM1305.55 797.52C1307.05 797.52 1308.23 796.92 1309.11 795.72C1309.99 794.493 1310.43 792.84 1310.43 790.76C1310.43 789.187 1310.19 787.787 1309.71 786.56C1309.23 785.307 1308.55 784.333 1307.67 783.64C1306.82 782.947 1305.85 782.6 1304.75 782.6C1303.26 782.6 1302.07 783.213 1301.19 784.44C1300.31 785.667 1299.87 787.333 1299.87 789.44C1299.87 791.013 1300.11 792.413 1300.59 793.64C1301.07 794.867 1301.74 795.827 1302.59 796.52C1303.45 797.187 1304.43 797.52 1305.55 797.52ZM1330.44 796.8C1330.25 796.933 1329.84 797.213 1329.2 797.64C1328.58 798.067 1327.86 798.48 1327.04 798.88C1326.24 799.28 1325.54 799.48 1324.96 799.48C1322.42 799.48 1320.4 798.68 1318.88 797.08C1317.36 795.48 1316.6 793.333 1316.6 790.64C1316.6 788.747 1317 787.027 1317.8 785.48C1318.62 783.907 1319.73 782.68 1321.12 781.8C1322.53 780.893 1324.1 780.44 1325.84 780.44C1326.58 780.44 1327.3 780.493 1328 780.6C1328.69 780.707 1329.25 780.827 1329.68 780.96C1330.13 781.067 1330.41 781.147 1330.52 781.2L1330.64 781.48C1330.61 781.613 1330.53 781.933 1330.4 782.44C1330.29 782.92 1330.17 783.573 1330.04 784.4C1329.9 785.2 1329.82 786.067 1329.8 787L1328.16 787.12V785.88C1328.16 784.893 1327.85 784.107 1327.24 783.52C1326.65 782.907 1325.86 782.6 1324.88 782.6C1323.25 782.6 1322 783.187 1321.12 784.36C1320.24 785.507 1319.8 787.147 1319.8 789.28C1319.8 791.6 1320.28 793.44 1321.24 794.8C1322.22 796.133 1323.56 796.8 1325.24 796.8C1325.9 796.8 1326.57 796.707 1327.24 796.52C1327.9 796.307 1328.46 796.107 1328.92 795.92C1329.37 795.707 1329.65 795.56 1329.76 795.48L1330 795.56L1330.44 796.8ZM1337.43 774.92C1336.84 774.92 1336.36 774.733 1335.99 774.36C1335.64 773.987 1335.47 773.493 1335.47 772.88C1335.47 772.213 1335.7 771.653 1336.15 771.2C1336.6 770.747 1337.16 770.52 1337.83 770.52C1338.39 770.52 1338.86 770.72 1339.23 771.12C1339.6 771.493 1339.79 771.973 1339.79 772.56C1339.79 773.227 1339.56 773.787 1339.11 774.24C1338.66 774.693 1338.1 774.92 1337.43 774.92ZM1334.03 797.84C1334.83 797.627 1335.4 797.32 1335.75 796.92C1336.1 796.493 1336.27 795.933 1336.27 795.24V785.08C1336.27 783.64 1335.78 782.92 1334.79 782.92C1334.6 782.92 1334.4 782.947 1334.19 783C1333.98 783.027 1333.84 783.053 1333.79 783.08L1333.95 781.6C1335.07 781.44 1336.22 781.227 1337.39 780.96C1338.59 780.693 1339.36 780.52 1339.71 780.44L1339.91 780.92C1339.67 781.48 1339.46 783.2 1339.27 786.08C1339.08 788.933 1338.99 791.933 1338.99 795.08C1338.99 795.853 1339.1 796.427 1339.31 796.8C1339.52 797.147 1339.88 797.32 1340.39 797.32C1340.68 797.32 1340.96 797.307 1341.23 797.28C1341.5 797.253 1341.68 797.24 1341.79 797.24L1341.87 797.4L1341.55 799.12C1341.31 799.093 1340.86 799.067 1340.19 799.04C1339.52 799.013 1338.79 799 1337.99 799C1337.3 799 1336.5 799.067 1335.59 799.2C1334.71 799.333 1334.14 799.427 1333.87 799.48L1334.03 797.84ZM1347.84 789.32C1347.84 791.56 1348.37 793.36 1349.44 794.72C1350.53 796.08 1351.97 796.76 1353.76 796.76C1354.51 796.76 1355.24 796.667 1355.96 796.48C1356.68 796.293 1357.28 796.107 1357.76 795.92C1358.24 795.707 1358.55 795.573 1358.68 795.52L1358.92 795.6L1359.36 796.76C1359.17 796.893 1358.73 797.187 1358.04 797.64C1357.37 798.067 1356.59 798.48 1355.68 798.88C1354.77 799.28 1353.96 799.48 1353.24 799.48C1351.59 799.48 1350.12 799.12 1348.84 798.4C1347.56 797.653 1346.57 796.613 1345.88 795.28C1345.19 793.92 1344.84 792.373 1344.84 790.64C1344.84 788.853 1345.24 787.173 1346.04 785.6C1346.87 784.027 1347.96 782.773 1349.32 781.84C1350.68 780.907 1352.13 780.44 1353.68 780.44C1355.63 780.44 1357.11 780.933 1358.12 781.92C1359.13 782.907 1359.64 784.347 1359.64 786.24C1359.64 786.667 1359.6 787.08 1359.52 787.48C1359.47 787.853 1359.43 788.093 1359.4 788.2L1358.88 788.68H1347.84V789.32ZM1355.24 786.84C1355.64 786.787 1355.91 786.693 1356.04 786.56C1356.17 786.427 1356.24 786.16 1356.24 785.76C1356.24 784.693 1355.95 783.88 1355.36 783.32C1354.8 782.76 1353.99 782.48 1352.92 782.48C1351.67 782.48 1350.59 782.907 1349.68 783.76C1348.8 784.613 1348.24 785.76 1348 787.2L1355.24 786.84ZM1364.61 784.8C1364.61 784.08 1364.45 783.573 1364.13 783.28C1363.81 782.987 1363.21 782.827 1362.33 782.8L1362.17 782.56L1362.37 781.36C1363.14 780.987 1363.89 780.533 1364.61 780C1365.35 779.44 1365.95 778.96 1366.41 778.56C1366.89 778.133 1367.19 777.853 1367.33 777.72L1368.13 778.04C1368.1 778.173 1368.06 778.493 1368.01 779C1367.95 779.507 1367.89 780.187 1367.81 781.04L1373.69 780.92L1373.81 781.04L1373.45 783.16L1367.65 783.04C1367.46 785.973 1367.37 789.307 1367.37 793.04C1367.37 794.4 1367.59 795.36 1368.05 795.92C1368.53 796.48 1369.34 796.76 1370.49 796.76C1370.89 796.76 1371.29 796.707 1371.69 796.6C1372.09 796.493 1372.42 796.387 1372.69 796.28C1372.95 796.147 1373.13 796.067 1373.21 796.04L1373.61 797.08C1373.45 797.213 1373.1 797.467 1372.57 797.84C1372.06 798.213 1371.5 798.587 1370.89 798.96C1370.3 799.307 1369.86 799.48 1369.57 799.48C1367.75 799.48 1366.47 799.12 1365.73 798.4C1364.98 797.653 1364.61 796.4 1364.61 794.64V784.8ZM1383.73 795.36C1386.85 787.893 1388.41 783.867 1388.41 783.28C1388.41 782.587 1387.9 782.24 1386.89 782.24H1385.05L1384.97 782.08L1385.21 780.76C1385.45 780.787 1385.97 780.827 1386.77 780.88C1387.6 780.907 1388.42 780.92 1389.25 780.92L1392.65 780.88L1392.37 782.36C1391.78 782.467 1391.33 782.68 1391.01 783C1390.72 783.293 1390.42 783.84 1390.13 784.64L1384.97 796.8C1383.45 800.267 1382.26 802.787 1381.41 804.36C1380.58 805.933 1379.76 807.04 1378.93 807.68C1378.13 808.347 1377.14 808.667 1375.97 808.64C1375.76 808.64 1375.41 808.32 1374.93 807.68C1374.45 807.067 1374.21 806.627 1374.21 806.36L1374.41 806.08C1375.96 806.08 1377.41 805.453 1378.77 804.2C1380.16 802.973 1381.3 801.253 1382.21 799.04C1381.57 797.013 1380.72 794.507 1379.65 791.52C1378.61 788.533 1377.72 786.12 1376.97 784.28C1376.65 783.613 1376.28 783.133 1375.85 782.84C1375.45 782.547 1374.92 782.387 1374.25 782.36L1374.17 782.2L1374.41 780.88L1377.73 780.92C1378.72 780.92 1379.69 780.88 1380.65 780.8C1381.64 780.72 1382.26 780.667 1382.53 780.64L1382.61 780.84L1382.37 782.08C1381.46 782.107 1380.84 782.2 1380.49 782.36C1380.17 782.493 1380.01 782.747 1380.01 783.12C1380.01 783.547 1380.28 784.667 1380.81 786.48C1381.34 788.293 1381.89 790.093 1382.45 791.88C1383.01 793.667 1383.38 794.827 1383.57 795.36H1383.73Z" fill="black"/>
</g>
<defs>
<clipPath id="clip0">
<rect width="1440" height="1024" fill="white"/>
</clipPath>
</defs>
</svg>
