<svg width="1440" height="1024" viewBox="0 0 1440 1024" fill="none" xmlns="http://www.w3.org/2000/svg">
<rect width="1440" height="1024" fill="white"/>
<g clip-path="url(#clip0)">
<path d="M952.471 811.409C960.417 804.436 965.244 793.422 963.978 782.7C962.712 771.978 954.872 762.12 944.703 759.843C934.533 757.567 922.941 763.869 919.852 774.185C918.152 754.297 916.193 733.576 906.01 716.64C896.79 701.304 880.82 690.331 863.513 688.368C846.205 686.405 827.983 693.819 817.189 708.004C806.395 722.189 803.752 742.811 811.312 759.097C816.881 771.094 827.141 780.022 837.891 787.285C872.629 810.559 914.292 820.024 955.215 813.937" fill="#F2F2F2"/>
<path d="M834.304 694.23C848.585 706.309 861.686 719.817 873.418 734.561C891.778 757.556 906.636 783.338 917.473 811.008C918.266 813.026 915.109 813.905 914.325 811.909C907.433 794.414 898.907 777.663 888.869 761.896C873.215 737.265 854.037 715.256 831.996 696.627C830.366 695.249 832.688 692.864 834.304 694.23V694.23Z" fill="white"/>
<path d="M957.96 811.409C950.013 804.436 945.187 793.422 946.452 782.7C947.718 771.978 955.558 762.12 965.728 759.843C975.897 757.567 987.49 763.869 990.579 774.185C992.279 754.297 994.237 733.576 1004.42 716.64C1013.64 701.304 1029.61 690.331 1046.92 688.368C1064.23 686.405 1082.45 693.819 1093.24 708.004C1104.04 722.189 1106.68 742.811 1099.12 759.097C1093.55 771.094 1083.29 780.022 1072.54 787.285C1037.8 810.559 996.138 820.024 955.215 813.937" fill="#F2F2F2"/>
<path d="M1076.13 694.23C1061.85 706.309 1048.74 719.817 1037.01 734.561C1018.65 757.556 1003.79 783.338 992.958 811.008C992.164 813.026 995.321 813.905 996.106 811.909C1013.84 766.939 1042.14 727.304 1078.43 696.627C1080.06 695.249 1077.74 692.864 1076.13 694.23V694.23Z" fill="white"/>
<path d="M981.54 573.933C996.24 573.933 1008.16 561.559 1008.16 546.294C1008.16 531.029 996.24 518.655 981.54 518.655C966.839 518.655 954.922 531.029 954.922 546.294C954.922 561.559 966.839 573.933 981.54 573.933Z" fill="#F2F2F2"/>
<path d="M899.47 451.016H1082.86V461.435H922.882C913.476 461.435 904.162 463.359 895.472 467.096C886.782 470.834 878.886 476.312 872.234 483.219C865.583 490.125 860.307 498.324 856.708 507.348C853.108 516.371 851.256 526.043 851.256 535.81V654.176H831.189C830.302 654.176 829.452 653.81 828.824 653.159C828.197 652.508 827.845 651.625 827.845 650.703V525.391C827.845 515.624 829.697 505.953 833.297 496.929C836.896 487.906 842.172 479.707 848.823 472.8C855.474 465.894 863.37 460.415 872.06 456.678C880.751 452.94 890.064 451.016 899.47 451.016V451.016Z" fill="#F2F2F2"/>
<path d="M934.744 811.988V653.73H979.393V811.988C979.392 813.052 978.984 814.071 978.26 814.824C977.536 815.576 976.554 815.999 975.529 816H938.608C937.584 815.999 936.602 815.576 935.877 814.824C935.153 814.071 934.745 813.052 934.744 811.988Z" fill="#3F3D56"/>
<path d="M818.4 650.61V521.923C818.422 501.436 826.269 481.796 840.22 467.31C854.17 452.824 873.085 444.676 892.813 444.652H1082V655.068H822.693C821.555 655.067 820.464 654.596 819.659 653.761C818.854 652.925 818.401 651.792 818.4 650.61V650.61ZM1080.28 446.436H892.813C873.54 446.458 855.062 454.419 841.433 468.57C827.805 482.722 820.139 501.909 820.117 521.923V650.61C820.118 651.319 820.39 651.999 820.872 652.5C821.355 653.002 822.01 653.284 822.693 653.285H1080.28V446.436Z" fill="#3F3D56"/>
<path d="M981.54 560.559C977.442 560.554 973.514 558.862 970.616 555.853C967.719 552.845 966.089 548.766 966.084 544.511V429.495C966.084 428.786 965.812 428.106 965.329 427.605C964.846 427.103 964.191 426.821 963.508 426.821H903.404C902.266 426.819 901.175 426.349 900.37 425.513C899.565 424.678 899.112 423.545 899.111 422.363V380.458C899.112 379.276 899.565 378.143 900.37 377.307C901.175 376.471 902.266 376.001 903.404 376H992.702C993.84 376.001 994.931 376.471 995.736 377.307C996.541 378.143 996.994 379.276 996.995 380.458V544.511C996.99 548.766 995.361 552.845 992.463 555.853C989.566 558.862 985.637 560.554 981.54 560.559Z" fill="#F1ABFF"/>
<path d="M1088.87 442.869C1101.82 442.841 1114.25 448.157 1123.43 457.648C1132.61 467.139 1137.78 480.027 1137.81 493.477V639.974H1233.98C1237.84 639.966 1241.55 641.551 1244.29 644.382C1247.02 647.212 1248.57 651.056 1248.57 655.068H1039.93V493.477C1039.95 480.027 1045.13 467.139 1054.3 457.648C1063.48 448.157 1075.92 442.841 1088.87 442.869Z" fill="#3F3D56"/>
<path d="M1077.12 526.293L1087.26 569.764L1285.5 519.931L1275.37 476.461C1275.24 475.929 1274.99 475.439 1274.64 475.034C1274.29 474.63 1273.84 474.324 1273.34 474.147C1272.97 474.013 1272.59 473.952 1272.2 473.968L1157.6 412.357C1156.93 412.001 1156.16 411.906 1155.43 412.089C1154.69 412.272 1154.05 412.721 1153.61 413.355L1098.38 493.325L1077.56 523.482C1077.52 523.534 1077.49 523.595 1077.48 523.659C1077.47 523.724 1077.47 523.79 1077.48 523.854C1077.06 524.587 1076.93 525.463 1077.12 526.293V526.293Z" fill="white"/>
<path d="M1077.48 523.854C1077.49 523.911 1077.51 523.965 1077.54 524.013C1077.57 524.062 1077.61 524.103 1077.66 524.136C1077.71 524.174 1077.77 524.201 1077.84 524.214C1077.9 524.227 1077.97 524.227 1078.03 524.212C1078.13 524.184 1078.22 524.118 1078.29 524.028L1078.36 523.925L1079.44 522.351L1099.13 493.851L1154.34 413.9C1154.65 413.447 1155.12 413.126 1155.64 412.996C1156.16 412.865 1156.71 412.934 1157.19 413.19L1270.9 474.323L1271.92 474.873C1271.96 474.891 1272 474.906 1272.04 474.919C1272.12 474.905 1272.2 474.897 1272.28 474.896C1272.38 474.859 1272.47 474.781 1272.52 474.678C1272.55 474.623 1272.57 474.564 1272.58 474.503C1272.58 474.442 1272.57 474.38 1272.56 474.321C1272.54 474.263 1272.51 474.208 1272.47 474.161C1272.44 474.114 1272.39 474.075 1272.34 474.046L1272.2 473.968L1157.6 412.357C1156.93 412.001 1156.16 411.906 1155.43 412.089C1154.69 412.272 1154.05 412.721 1153.61 413.355L1098.38 493.325L1077.56 523.482C1077.52 523.534 1077.49 523.595 1077.48 523.659C1077.47 523.724 1077.47 523.79 1077.48 523.854V523.854Z" fill="#3F3D56"/>
<path d="M1137.02 528.287L1141.43 528.795L1174.18 532.563L1195.89 535.059L1197.18 535.207L1224.27 513.234L1225.31 512.392L1231.71 507.203L1254.47 488.741L1254.61 487.444L1262.71 411.557C1262.82 410.512 1262.52 409.465 1261.89 408.644C1261.26 407.823 1260.34 407.296 1259.33 407.178L1151.27 394.748C1150.26 394.634 1149.25 394.939 1148.46 395.595C1147.67 396.252 1147.16 397.207 1147.05 398.251L1141.34 451.78L1138.17 481.458L1135.34 508.008L1134.03 520.338L1133.64 523.909C1133.53 524.955 1133.83 526.002 1134.46 526.823C1135.09 527.643 1136.01 528.17 1137.02 528.287V528.287Z" fill="#E6E6E6"/>
<path d="M1166.72 461.769L1213.53 467.153L1230.13 469.061C1230.86 469.145 1231.6 469.079 1232.31 468.866C1233.02 468.652 1233.68 468.296 1234.25 467.818C1234.83 467.339 1235.31 466.747 1235.66 466.077C1236.02 465.406 1236.24 464.669 1236.33 463.908C1236.41 463.147 1236.34 462.376 1236.14 461.641C1235.93 460.906 1235.59 460.22 1235.13 459.622C1234.67 459.024 1234.1 458.526 1233.45 458.157C1232.81 457.788 1232.1 457.555 1231.36 457.471L1210.72 455.096L1167.96 450.173C1166.48 450.003 1164.99 450.451 1163.83 451.417C1162.67 452.384 1161.92 453.79 1161.76 455.328C1161.59 456.865 1162.02 458.407 1162.95 459.615C1163.88 460.823 1165.24 461.598 1166.72 461.769Z" fill="white"/>
<path d="M1164.05 483.271C1164.17 483.293 1164.29 483.315 1164.42 483.328L1218.75 489.579L1227.83 490.624C1229.31 490.794 1230.79 490.347 1231.96 489.38C1233.12 488.413 1233.86 487.006 1234.03 485.468C1234.19 483.931 1233.76 482.388 1232.83 481.181C1231.9 479.973 1230.54 479.199 1229.06 479.029L1215.94 477.522L1172.9 472.57L1165.66 471.736C1164.21 471.568 1162.75 471.992 1161.6 472.918C1160.45 473.843 1159.69 475.198 1159.48 476.696C1159.27 478.194 1159.63 479.718 1160.48 480.945C1161.34 482.172 1162.62 483.006 1164.05 483.271V483.271Z" fill="white"/>
<path d="M1157.9 502.336C1158.35 503.104 1158.96 503.755 1159.68 504.238C1160.41 504.721 1161.23 505.024 1162.09 505.123L1184.36 507.684L1224.03 512.247L1224.04 512.245L1225.31 512.392L1231.71 507.203C1231.75 506.808 1231.75 506.411 1231.71 506.017C1231.57 504.693 1231.01 503.457 1230.1 502.513C1229.2 501.569 1228.01 500.973 1226.74 500.824L1221.23 500.189L1199.37 497.677L1183.64 495.866L1163.33 493.528C1162.29 493.408 1161.23 493.593 1160.29 494.062C1159.34 494.531 1158.54 495.265 1157.98 496.182C1157.41 497.098 1157.11 498.16 1157.09 499.247C1157.08 500.335 1157.36 501.405 1157.9 502.336L1157.9 502.336Z" fill="white"/>
<path d="M1189.18 435.487L1200.83 436.826L1205.97 437.419L1213.75 438.312C1215.23 438.482 1216.71 438.035 1217.87 437.068C1219.04 436.101 1219.78 434.694 1219.95 433.156C1220.11 431.618 1219.68 430.076 1218.75 428.869C1217.82 427.661 1216.46 426.887 1214.98 426.717L1190.42 423.895C1188.94 423.724 1187.46 424.171 1186.3 425.137C1185.13 426.103 1184.39 427.509 1184.22 429.046C1184.06 430.584 1184.49 432.126 1185.42 433.333C1186.35 434.541 1187.7 435.316 1189.18 435.487V435.487Z" fill="white"/>
<path d="M1093.95 467.773L1108.15 528.681L1131.85 533.36L1153.77 537.694L1177.29 542.341L1184.81 543.827C1185.25 543.913 1185.7 543.901 1186.13 543.792C1186.57 543.682 1186.98 543.478 1187.33 543.192L1193.36 538.302L1197.18 535.207L1224.27 513.234L1207.04 439.344C1206.87 438.609 1206.5 437.941 1205.97 437.419C1205.51 436.958 1204.95 436.625 1204.33 436.451C1203.71 436.277 1203.06 436.267 1202.43 436.423L1096.76 462.986C1095.78 463.234 1094.93 463.877 1094.4 464.775C1093.87 465.673 1093.71 466.751 1093.95 467.773V467.773Z" fill="#F1ABFF"/>
<path d="M1126.51 516.228C1126.86 517.73 1127.77 519.026 1129.04 519.832C1130.31 520.637 1131.84 520.886 1133.29 520.523L1195.29 504.937C1196.74 504.571 1197.99 503.624 1198.76 502.305C1199.54 500.985 1199.78 499.4 1199.43 497.897C1199.41 497.822 1199.39 497.749 1199.37 497.677C1198.97 496.228 1198.05 494.994 1196.8 494.234C1195.55 493.475 1194.06 493.248 1192.65 493.601L1130.65 509.188C1129.2 509.553 1127.95 510.499 1127.17 511.819C1126.4 513.139 1126.16 514.724 1126.51 516.228Z" fill="white"/>
<path d="M1131.85 533.36L1153.77 537.694L1200.21 526.021C1201.66 525.657 1202.91 524.711 1203.68 523.391C1204.46 522.07 1204.7 520.484 1204.35 518.981C1204 517.478 1203.08 516.181 1201.81 515.375C1200.54 514.57 1199.01 514.321 1197.57 514.685L1135.56 530.272C1134.26 530.595 1133.12 531.389 1132.34 532.511C1132.15 532.779 1131.99 533.063 1131.85 533.36Z" fill="white"/>
<path d="M1177.29 542.341L1184.81 543.827C1185.25 543.913 1185.7 543.901 1186.13 543.792C1186.57 543.682 1186.98 543.478 1187.33 543.192L1193.36 538.302L1177.29 542.341Z" fill="white"/>
<path d="M1139 483.567C1139.35 485.07 1140.26 486.366 1141.54 487.172C1142.81 487.977 1144.33 488.226 1145.78 487.863L1169.8 481.826C1171.24 481.46 1172.49 480.514 1173.27 479.194C1174.04 477.874 1174.28 476.289 1173.93 474.786C1173.75 473.979 1173.39 473.222 1172.9 472.57C1172.24 471.687 1171.34 471.022 1170.32 470.653C1169.3 470.284 1168.2 470.228 1167.16 470.491L1143.14 476.528C1141.69 476.892 1140.44 477.838 1139.67 479.158C1138.89 480.478 1138.65 482.064 1139 483.567V483.567Z" fill="white"/>
<path d="M1153.77 537.694L1177.29 542.342L1184.81 543.828C1185.25 543.913 1185.7 543.901 1186.13 543.792C1186.57 543.682 1186.98 543.479 1187.33 543.194L1193.36 538.303L1191.25 538.835L1186.78 542.456C1186.52 542.659 1186.23 542.805 1185.92 542.883C1185.61 542.961 1185.29 542.97 1184.97 542.909L1179.41 541.81L1155.89 537.162L1153.77 537.694ZM1224.04 512.249L1224.27 513.231L1225.31 512.389L1224.04 512.249ZM1153.77 537.694L1177.29 542.342L1184.81 543.828C1185.25 543.913 1185.7 543.901 1186.13 543.792C1186.57 543.682 1186.98 543.479 1187.33 543.194L1193.36 538.303L1191.25 538.835L1186.78 542.456C1186.52 542.659 1186.23 542.805 1185.92 542.883C1185.61 542.961 1185.29 542.97 1184.97 542.909L1179.41 541.81L1155.89 537.162L1153.77 537.694ZM1153.77 537.694L1177.29 542.342L1184.81 543.828C1185.25 543.913 1185.7 543.901 1186.13 543.792C1186.57 543.682 1186.98 543.479 1187.33 543.194L1193.36 538.303L1191.25 538.835L1186.78 542.456C1186.52 542.659 1186.23 542.805 1185.92 542.883C1185.61 542.961 1185.29 542.97 1184.97 542.909L1179.41 541.81L1155.89 537.162L1153.77 537.694ZM1077.12 526.293L1103.67 640.158C1103.87 641 1104.38 641.726 1105.09 642.177C1105.8 642.628 1106.66 642.767 1107.47 642.564L1299.59 594.269C1300.4 594.064 1301.1 593.534 1301.54 592.795C1301.97 592.056 1302.11 591.168 1301.91 590.326L1275.37 476.461C1275.24 475.929 1274.99 475.438 1274.64 475.034C1274.29 474.63 1273.84 474.324 1273.34 474.147C1272.97 474.013 1272.59 473.952 1272.2 473.968C1271.74 473.982 1271.3 474.103 1270.9 474.323C1270.71 474.415 1270.54 474.527 1270.37 474.659L1254.61 487.445L1231.71 506.019L1224.04 512.242L1224.04 512.249L1224.03 512.25L1195.9 535.055L1191.25 538.835L1186.78 542.456C1186.52 542.659 1186.23 542.805 1185.92 542.883C1185.61 542.961 1185.29 542.97 1184.97 542.909L1179.41 541.81L1155.89 537.162L1132.34 532.511L1080.77 522.321C1080.33 522.23 1079.88 522.24 1079.44 522.351C1078.85 522.499 1078.32 522.82 1077.91 523.274C1077.75 523.453 1077.6 523.647 1077.48 523.854C1077.06 524.587 1076.93 525.463 1077.12 526.293V526.293ZM1153.77 537.694L1177.29 542.342L1184.81 543.828C1185.25 543.913 1185.7 543.901 1186.13 543.792C1186.57 543.682 1186.98 543.479 1187.33 543.194L1193.36 538.303L1191.25 538.835L1186.78 542.456C1186.52 542.659 1186.23 542.805 1185.92 542.883C1185.61 542.961 1185.29 542.97 1184.97 542.909L1179.41 541.81L1155.89 537.162L1153.77 537.694ZM1153.77 537.694L1177.29 542.342L1184.81 543.828C1185.25 543.913 1185.7 543.901 1186.13 543.792C1186.57 543.682 1186.98 543.479 1187.33 543.194L1193.36 538.303L1191.25 538.835L1186.78 542.456C1186.52 542.659 1186.23 542.805 1185.92 542.883C1185.61 542.961 1185.29 542.97 1184.97 542.909L1179.41 541.81L1155.89 537.162L1153.77 537.694ZM1153.77 537.694L1177.29 542.342L1184.81 543.828C1185.25 543.913 1185.7 543.901 1186.13 543.792C1186.57 543.682 1186.98 543.479 1187.33 543.194L1193.36 538.303L1191.25 538.835L1186.78 542.456C1186.52 542.659 1186.23 542.805 1185.92 542.883C1185.61 542.961 1185.29 542.97 1184.97 542.909L1179.41 541.81L1155.89 537.162L1153.77 537.694Z" fill="white"/>
<path d="M1153.77 537.694L1177.29 542.342L1184.81 543.828C1185.25 543.913 1185.7 543.901 1186.13 543.792C1186.57 543.682 1186.98 543.479 1187.33 543.194L1193.36 538.303L1191.25 538.835L1186.78 542.456C1186.52 542.659 1186.23 542.805 1185.92 542.883C1185.61 542.961 1185.29 542.97 1184.97 542.909L1179.41 541.81L1155.89 537.162L1153.77 537.694ZM1224.04 512.249L1224.27 513.231L1225.31 512.389L1224.04 512.249ZM1153.77 537.694L1177.29 542.342L1184.81 543.828C1185.25 543.913 1185.7 543.901 1186.13 543.792C1186.57 543.682 1186.98 543.479 1187.33 543.194L1193.36 538.303L1191.25 538.835L1186.78 542.456C1186.52 542.659 1186.23 542.805 1185.92 542.883C1185.61 542.961 1185.29 542.97 1184.97 542.909L1179.41 541.81L1155.89 537.162L1153.77 537.694ZM1153.77 537.694L1177.29 542.342L1184.81 543.828C1185.25 543.913 1185.7 543.901 1186.13 543.792C1186.57 543.682 1186.98 543.479 1187.33 543.194L1193.36 538.303L1191.25 538.835L1186.78 542.456C1186.52 542.659 1186.23 542.805 1185.92 542.883C1185.61 542.961 1185.29 542.97 1184.97 542.909L1179.41 541.81L1155.89 537.162L1153.77 537.694ZM1078.36 523.925L1078.47 524.016C1078.49 523.982 1078.53 523.953 1078.55 523.918C1078.81 523.637 1079.14 523.427 1079.49 523.308C1079.85 523.188 1080.23 523.163 1080.6 523.233L1131.85 533.356L1153.77 537.694L1177.29 542.342L1184.81 543.828C1185.25 543.913 1185.7 543.901 1186.13 543.792C1186.57 543.682 1186.98 543.479 1187.33 543.194L1193.36 538.303L1191.25 538.835L1186.78 542.456C1186.52 542.659 1186.23 542.805 1185.92 542.883C1185.61 542.961 1185.29 542.97 1184.97 542.909L1179.41 541.81L1155.89 537.162L1132.34 532.511L1080.77 522.321C1080.33 522.23 1079.88 522.24 1079.44 522.35L1078.36 523.925ZM1077.12 526.293L1103.67 640.158C1103.87 641 1104.38 641.726 1105.09 642.177C1105.8 642.628 1106.66 642.767 1107.47 642.564L1299.59 594.269C1300.4 594.064 1301.1 593.534 1301.54 592.795C1301.97 592.056 1302.11 591.168 1301.91 590.326L1275.37 476.461C1275.24 475.929 1274.99 475.439 1274.64 475.034C1274.29 474.63 1273.84 474.324 1273.34 474.147C1272.97 474.013 1272.59 473.952 1272.2 473.968C1271.74 473.982 1271.3 474.103 1270.9 474.323C1270.71 474.415 1270.54 474.527 1270.37 474.659L1254.61 487.445L1231.71 506.019L1224.04 512.242L1224.04 512.249L1224.03 512.25L1195.9 535.055L1191.25 538.835L1186.78 542.456C1186.52 542.659 1186.23 542.805 1185.92 542.883C1185.61 542.961 1185.29 542.97 1184.97 542.909L1179.41 541.81L1155.89 537.162L1132.34 532.511L1080.77 522.321C1080.33 522.23 1079.88 522.24 1079.44 522.35C1078.85 522.499 1078.32 522.82 1077.91 523.274C1077.75 523.452 1077.6 523.647 1077.48 523.854C1077.06 524.587 1076.93 525.463 1077.12 526.293V526.293ZM1078 526.073C1077.92 525.738 1077.92 525.388 1077.98 525.05C1078.05 524.712 1078.19 524.394 1078.4 524.12C1078.41 524.08 1078.44 524.044 1078.47 524.016C1078.49 523.982 1078.53 523.953 1078.55 523.918C1078.81 523.637 1079.14 523.427 1079.49 523.308C1079.85 523.188 1080.23 523.163 1080.6 523.233L1131.85 533.356L1153.77 537.694L1177.29 542.342L1184.81 543.828C1185.25 543.913 1185.7 543.901 1186.13 543.792C1186.57 543.682 1186.98 543.479 1187.33 543.194L1193.36 538.303L1197.18 535.207L1224.27 513.231L1225.31 512.389L1231.7 507.202L1254.47 488.738L1270.93 475.389C1271.18 475.186 1271.47 475.041 1271.78 474.964C1271.87 474.942 1271.95 474.927 1272.04 474.919C1272.12 474.905 1272.2 474.897 1272.28 474.896C1272.54 474.893 1272.8 474.938 1273.05 475.027C1273.4 475.155 1273.72 475.374 1273.98 475.662C1274.23 475.951 1274.41 476.3 1274.5 476.679L1301.04 590.544C1301.11 590.843 1301.12 591.153 1301.08 591.456C1301.03 591.759 1300.93 592.05 1300.78 592.313C1300.62 592.575 1300.42 592.803 1300.18 592.984C1299.94 593.164 1299.67 593.294 1299.38 593.366L1107.26 641.662C1106.68 641.807 1106.07 641.706 1105.56 641.383C1105.05 641.06 1104.68 640.54 1104.55 639.938L1078 526.073ZM1153.77 537.694L1177.29 542.342L1184.81 543.828C1185.25 543.913 1185.7 543.901 1186.13 543.792C1186.57 543.682 1186.98 543.479 1187.33 543.194L1193.36 538.303L1191.25 538.835L1186.78 542.456C1186.52 542.659 1186.23 542.805 1185.92 542.883C1185.61 542.961 1185.29 542.97 1184.97 542.909L1179.41 541.81L1155.89 537.162L1153.77 537.694ZM1153.77 537.694L1177.29 542.342L1184.81 543.828C1185.25 543.913 1185.7 543.901 1186.13 543.792C1186.57 543.682 1186.98 543.479 1187.33 543.194L1193.36 538.303L1191.25 538.835L1186.78 542.456C1186.52 542.659 1186.23 542.805 1185.92 542.883C1185.61 542.961 1185.29 542.97 1184.97 542.909L1179.41 541.81L1155.89 537.162L1153.77 537.694ZM1153.77 537.694L1177.29 542.342L1184.81 543.828C1185.25 543.913 1185.7 543.901 1186.13 543.792C1186.57 543.682 1186.98 543.479 1187.33 543.194L1193.36 538.303L1191.25 538.835L1186.78 542.456C1186.52 542.659 1186.23 542.805 1185.92 542.883C1185.61 542.961 1185.29 542.97 1184.97 542.909L1179.41 541.81L1155.89 537.162L1153.77 537.694Z" fill="#3F3D56"/>
<path d="M1249.52 571.898C1249.09 570.032 1249.38 568.064 1250.35 566.426C1251.31 564.788 1252.86 563.613 1254.66 563.159L1278.9 557.064C1280.7 556.62 1282.59 556.932 1284.16 557.933C1285.74 558.933 1286.86 560.54 1287.3 562.402C1287.73 564.264 1287.44 566.228 1286.48 567.865C1285.52 569.502 1283.98 570.678 1282.18 571.135L1257.94 577.23C1256.14 577.68 1254.24 577.371 1252.67 576.371C1251.09 575.371 1249.96 573.763 1249.52 571.898Z" fill="#F1ABFF"/>
<path d="M981.54 550.752C984.859 550.752 987.55 547.958 987.55 544.511C987.55 541.064 984.859 538.27 981.54 538.27C978.22 538.27 975.529 541.064 975.529 544.511C975.529 547.958 978.22 550.752 981.54 550.752Z" fill="white"/>
</g>
<defs>
<clipPath id="clip0">
<rect width="495" height="440" fill="white" transform="translate(807 376)"/>
</clipPath>
</defs>
</svg>
